{
.appVersion = "1075";
copyright = "Copyright 2012 The Libre Caslon Display Authors (https://github.com/impallari/Libre-Caslon-Display)";
customParameters = (
{
name = licenseURL;
value = "http://scripts.sil.org/OFL";
},
{
name = description;
value = "Libre Caslon in Display and Text weights";
},
{
name = trademark;
value = "Libre Caslon is a trademark of Pablo Impallari";
},
{
name = license;
value = "This Font Software is licensed under the SIL Open Font License, Version 1.1. This license is available with a FAQ at: http://scripts.sil.org/OFL";
},
{
name = fsType;
value = (
);
},
{
name = "Use Typo Metrics";
value = 1;
},
{
name = "Disable Last Change";
value = 1;
},
{
name = "Use Line Breaks";
value = 1;
},
{
name = openTypeOS2VendorID;
value = IMPA;
}
);
date = "2017-11-30 14:42:33 +0000";
designer = "Pablo Impallari, Rodrigo Fuenzalida";
designerURL = "http://www.impallari.com";
disablesAutomaticAlignment = 1;
familyName = "Libre Caslon Display";
featurePrefixes = (
{
code = "languagesystem DFLT dflt;";
name = "FontLab OTPanel";
}
);
features = (
{
code = "sub f f b by f_f_b;
	sub f f h by f_f_h;
	sub f f i by f_f_i;
	sub f f j by f_f_j;
	sub f f k by f_f_k;
	sub f f l by f_f_l;
	sub f f t by f_f_t;
	sub f b by f_b;
	sub f f by f_f;
	sub f h by f_h;
	sub f i  by f_i;
	sub f j by f_j;
	sub f k by f_k;
	sub f l by f_l;
	sub f t by f_t;
	sub L' [A A.ss01] by L.short;
	sub L' [L L.short] [A A.ss01] by L.short;
	sub T' [b h k l] by T.short;
";
name = liga;
},
{
code = "sub c p by c_p;
	sub c t by c_t;
	sub e t by e_t;
	sub s p by s_p;
	sub s t by s_t;
";
name = dlig;
},
{
code = "sub A by A.ss01 ;
";
name = ss01;
},
{
code = "# Oldstyle Figures
    sub [zero one two three four five six seven eight nine] by [zero.oldstyle one.oldstyle two.oldstyle three.oldstyle four.oldstyle five.oldstyle six.oldstyle seven.oldstyle eight.oldstyle nine.oldstyle];
";
name = onum;
},
{
code = "sub one [slash fraction] two by onehalf;
	sub one [slash fraction] three by onethird;

glyphs = (
{
glyphname = A;
layers = (
{
anchors = (
{
name = bottom;
position = "{559, 0}";
},
{
name = top;
position = "{319, 800}";
}
);
background = {
paths = (
{
closed = 1;
nodes = (
"178 8 LINE",
"178 0 LINE",
"-35 0 LINE",
"-35 8 LINE",
"21 13 LINE SMOOTH",
"54 16 OFFCURVE",
"64 23 OFFCURVE",
"75 53 CURVE SMOOTH",
"320 706 LINE",
"338 706 LINE",
"590 18 LINE",
"673 8 LINE",
"673 0 LINE",
"428 0 LINE",
"428 8 LINE",
"510 18 LINE",
"298 595 LINE",
"294 595 LINE",
"91 53 LINE SMOOTH",
"88 45 OFFCURVE",
"87 40 OFFCURVE",
"87 35 CURVE SMOOTH",
"87 20 OFFCURVE",
"95 15 OFFCURVE",
"117 13 CURVE SMOOTH"
);
},
{
closed = 1;
nodes = (
"168 290 LINE",
"435 290 LINE",
"435 274 LINE",
"168 274 LINE"
);
}
);
};
layerId = UUID0;
paths = (
{
closed = 1;
nodes = (
"178 8 LINE",
"178 0 LINE",
"-35 0 LINE",
"-35 8 LINE",
"21 13 LINE SMOOTH",
"54 16 OFFCURVE",
"64 23 OFFCURVE",
"75 53 CURVE SMOOTH",
"320 706 LINE",
"338 706 LINE",
"590 18 LINE",
"673 8 LINE",
"673 0 LINE",
"428 0 LINE",
"428 8 LINE",
"510 18 LINE",
"298 595 LINE",
"294 595 LINE",
"91 53 LINE SMOOTH",
"88 45 OFFCURVE",
"87 40 OFFCURVE",
"87 35 CURVE SMOOTH",
"87 20 OFFCURVE",
"95 15 OFFCURVE",
"117 13 CURVE SMOOTH"
);
},
{
closed = 1;
nodes = (
"168 290 LINE",
"435 290 LINE",
"435 274 LINE",
"168 274 LINE"
);
}
);
width = 658;
}
);
leftKerningGroup = A;
rightKerningGroup = A;
unicode = 0041;
},
{
glyphname = Aogonek;
layers = (
{
background = {
paths = (
{
closed = 1;
nodes = (
"626 -178 LINE",
"598 -211 OFFCURVE",
"567 -226 OFFCURVE",
"528 -226 CURVE SMOOTH",
"473 -226 OFFCURVE",
"438 -196 OFFCURVE",
"438 -149 CURVE SMOOTH",
"438 -99 OFFCURVE",
"480 -42 OFFCURVE",
"552 9 CURVE",
"564 9 LINE",
"531 -23 OFFCURVE",
"499 -87 OFFCURVE",
"499 -132 CURVE SMOOTH",
"499 -175 OFFCURVE",
"523 -198 OFFCURVE",
"561 -198 CURVE SMOOTH",
"584 -198 OFFCURVE",
"604 -191 OFFCURVE",
"623 -173 CURVE"
);
}
);
};
components = (
{
name = A;
transform = "{1, 0, 0, 1, -3, 0}";
}
);
layerId = UUID0;
paths = (
{
closed = 1;
nodes = (
"626 -178 LINE",
"598 -211 OFFCURVE",
"567 -226 OFFCURVE",
"528 -226 CURVE SMOOTH",
"473 -226 OFFCURVE",
"438 -196 OFFCURVE",
"438 -149 CURVE SMOOTH",
"438 -99 OFFCURVE",
"480 -42 OFFCURVE",
"552 9 CURVE",
"564 9 LINE",
"531 -23 OFFCURVE",
"499 -87 OFFCURVE",
"499 -132 CURVE SMOOTH",
"499 -175 OFFCURVE",
"523 -198 OFFCURVE",
"561 -198 CURVE SMOOTH",
"584 -198 OFFCURVE",
"604 -191 OFFCURVE",
"623 -173 CURVE"
);
}
);
width = 653;
}
);
leftKerningGroup = A;
rightKerningGroup = A;
unicode = 0104;
},
{
glyphname = Aringacute;
layers = (
{
background = {
paths = (
{
closed = 1;
nodes = (
"342 811 LINE",
"382 941 LINE SMOOTH",
"387 956 OFFCURVE",
"398 962 OFFCURVE",
"413 962 CURVE SMOOTH",
"431 962 OFFCURVE",
"441 948 OFFCURVE",
"441 931 CURVE SMOOTH",
"441 918 OFFCURVE",
"431 909 OFFCURVE",
"405 876 CURVE SMOOTH",
"349 806 LINE"
);
}
);
};
components = (
{
name = A;
},
{
name = ring;
transform = "{1, 0, 0, 1, 226, 165}";
}
);
layerId = UUID0;
paths = (
{
closed = 1;
nodes = (
"342 811 LINE",
"382 941 LINE SMOOTH",
"387 956 OFFCURVE",
"398 962 OFFCURVE",
"413 962 CURVE SMOOTH",
"431 962 OFFCURVE",
"441 948 OFFCURVE",
"441 931 CURVE SMOOTH",
"441 918 OFFCURVE",
"431 909 OFFCURVE",
"405 876 CURVE SMOOTH",
"349 806 LINE"
);
}
);
width = 659;
}
);
leftKerningGroup = A;
rightKerningGroup = A;
unicode = 01FA;
},
{
glyphname = AE;
layers = (
{
background = {
paths = (
{
closed = 1;
nodes = (
"174 8 LINE",
"172 0 LINE",
"-40 0 LINE",
"-38 8 LINE",
"19 13 LINE SMOOTH",
"53 16 OFFCURVE",
"64 23 OFFCURVE",
"82 53 CURVE SMOOTH",
"451 682 LINE",
"469 682 LINE",
"419 595 LINE",
"415 595 LINE",
"98 53 LINE SMOOTH",
"91 42 OFFCURVE",
"89 35 OFFCURVE",
"89 29 CURVE SMOOTH",
"89 18 OFFCURVE",
"97 15 OFFCURVE",
"114 13 CURVE SMOOTH"
);
},
{
closed = 1;
nodes = (
"224 290 LINE",
"491 290 LINE",
"488 274 LINE",
"221 274 LINE"
);
},
{
closed = 1;
nodes = (
"496 678 LINE",
"496 12 LINE",
"660 12 LINE SMOOTH",
"692 12 OFFCURVE",
"703 19 OFFCURVE",
"715 49 CURVE SMOOTH",
"781 211 LINE",
"792 210 LINE",
"767 0 LINE",
"337 0 LINE",
"337 8 LINE",
"419 16 LINE",
"419 674 LINE",
"337 682 LINE",
"337 690 LINE",
"768 690 LINE",
"782 502 LINE",
"772 501 LINE",
"716 641 LINE SMOOTH",
"704 671 OFFCURVE",
"694 678 OFFCURVE",
"662 678 CURVE SMOOTH"
);
},
{
closed = 1;
nodes = (
"585 371 LINE SMOOTH",
"617 371 OFFCURVE",
"627 379 OFFCURVE",
"633 410 CURVE SMOOTH",
"650 491 LINE",
"662 491 LINE",
"662 235 LINE",
"650 235 LINE",
"633 316 LINE SMOOTH",
"627 347 OFFCURVE",
"617 355 OFFCURVE",
"585 355 CURVE SMOOTH",
"488 355 LINE",
"488 371 LINE"
);
}
);
};
layerId = UUID0;
paths = (
{
closed = 1;
nodes = (
"174 8 LINE",
"172 0 LINE",
"-40 0 LINE",
"-38 8 LINE",
"19 13 LINE SMOOTH",
"53 16 OFFCURVE",
"64 23 OFFCURVE",
"82 53 CURVE SMOOTH",
"451 682 LINE",
"469 682 LINE",
"419 595 LINE",
"415 595 LINE",
"98 53 LINE SMOOTH",
"91 42 OFFCURVE",
"89 35 OFFCURVE",
"89 29 CURVE SMOOTH",
"89 18 OFFCURVE",
"97 15 OFFCURVE",
"114 13 CURVE SMOOTH"
);
},
{
closed = 1;
nodes = (
"224 290 LINE",
"491 290 LINE",
"488 274 LINE",
"221 274 LINE"
);
},
{
closed = 1;
nodes = (
"496 678 LINE",
"496 12 LINE",
"660 12 LINE SMOOTH",
"692 12 OFFCURVE",
"703 19 OFFCURVE",
"715 49 CURVE SMOOTH",
"781 211 LINE",
"792 210 LINE",
"767 0 LINE",
"337 0 LINE",
"337 8 LINE",
"419 16 LINE",
"419 674 LINE",
"337 682 LINE",
"337 690 LINE",
"768 690 LINE",
"782 502 LINE",
"772 501 LINE",
"716 641 LINE SMOOTH",
"704 671 OFFCURVE",
"694 678 OFFCURVE",
"662 678 CURVE SMOOTH"
);
},
{
closed = 1;
nodes = (
"585 371 LINE SMOOTH",
"617 371 OFFCURVE",
"627 379 OFFCURVE",
"633 410 CURVE SMOOTH",
"650 491 LINE",
"662 491 LINE",
"662 235 LINE",
"650 235 LINE",
"633 316 LINE SMOOTH",
"627 347 OFFCURVE",
"617 355 OFFCURVE",
"585 355 CURVE SMOOTH",
"488 355 LINE",
"488 371 LINE"
);
}
);
width = 851;
}
);
leftKerningGroup = AE;
rightKerningGroup = E;
unicode = 00C6;
},
{
glyphname = B;
layers = (
{
background = {
paths = (
{
closed = 1;
nodes = (
"150 0 LINE",
"150 12 LINE",
"311 12 LINE SMOOTH",
"418 12 OFFCURVE",
"466 73 OFFCURVE",
"466 186 CURVE SMOOTH",
"466 310 OFFCURVE",
"410 359 OFFCURVE",
"311 359 CURVE SMOOTH",
"150 359 LINE",
"150 371 LINE",
"315 371 LINE SMOOTH",
"407 371 OFFCURVE",
"441 427 OFFCURVE",
"441 526 CURVE SMOOTH",
"441 626 OFFCURVE",
"392 678 OFFCURVE",
"286 678 CURVE SMOOTH",
"165 678 LINE",
"165 690 LINE",
"289 690 LINE SMOOTH",
"446 690 OFFCURVE",
"531 632 OFFCURVE",
"531 526 CURVE SMOOTH",
"531 442 OFFCURVE",
"478 382 OFFCURVE",
"382 368 CURVE",
"382 364 LINE",
"498 348 OFFCURVE",
"561 287 OFFCURVE",
"561 189 CURVE SMOOTH",
"561 93 OFFCURVE",
"500 0 OFFCURVE",
"335 0 CURVE SMOOTH"
);
},
{
closed = 1;
nodes = (
"40 682 LINE",
"40 690 LINE",
"199 690 LINE",
"199 0 LINE",
"40 0 LINE",
"40 8 LINE",
"122 16 LINE",
"122 674 LINE"
);
}
);
};
layerId = UUID0;
paths = (
{
closed = 1;
nodes = (
"150 0 LINE",
"150 12 LINE",
"311 12 LINE SMOOTH",
"418 12 OFFCURVE",
"466 73 OFFCURVE",
"466 186 CURVE SMOOTH",
"466 310 OFFCURVE",
"410 359 OFFCURVE",
"311 359 CURVE SMOOTH",
"150 359 LINE",
"150 371 LINE",
"315 371 LINE SMOOTH",
"407 371 OFFCURVE",
"441 427 OFFCURVE",
"441 526 CURVE SMOOTH",
"441 626 OFFCURVE",
"392 678 OFFCURVE",
"286 678 CURVE SMOOTH",
"165 678 LINE",
"165 690 LINE",
"289 690 LINE SMOOTH",
"446 690 OFFCURVE",
"531 632 OFFCURVE",
"531 526 CURVE SMOOTH",
"531 442 OFFCURVE",
"478 382 OFFCURVE",
"382 368 CURVE",
"382 364 LINE",
"498 348 OFFCURVE",
"561 287 OFFCURVE",
"561 189 CURVE SMOOTH",
"561 93 OFFCURVE",
"500 0 OFFCURVE",
"335 0 CURVE SMOOTH"
);
},
{
closed = 1;
nodes = (
"40 682 LINE",
"40 690 LINE",
"199 690 LINE",
"199 0 LINE",
"40 0 LINE",
"40 8 LINE",
"122 16 LINE",
"122 674 LINE"
);
}
);
width = 615;
}
);
leftKerningGroup = I;
unicode = 0042;
},
{
glyphname = C;
layers = (
{
anchors = (
{
name = bottom;
position = "{375, 0}";
},
{
name = top;
position = "{365, 800}";
}
);
background = {
paths = (
{
closed = 1;
nodes = (
"566 113 OFFCURVE",
"587 176 OFFCURVE",
"600 232 CURVE",
"613 230 LINE",
"613 0 LINE",
"600 0 LINE",
"566 55 LINE",
"507 12 OFFCURVE",
"433 -16 OFFCURVE",
"367 -16 CURVE SMOOTH",
"190 -16 OFFCURVE",
"52 142 OFFCURVE",
"52 345 CURVE SMOOTH",
"52 547 OFFCURVE",
"190 706 OFFCURVE",
"365 706 CURVE SMOOTH",
"425 706 OFFCURVE",
"485 688 OFFCURVE",
"563 646 CURVE",
"587 694 LINE",
"600 694 LINE",
"610 469 LINE",
"596 465 LINE",
"587 515 OFFCURVE",
"572 559 OFFCURVE",
"552 592 CURVE SMOOTH",
"512 658 OFFCURVE",
"445 694 OFFCURVE",
"368 694 CURVE SMOOTH",
"226 694 OFFCURVE",
"148 567 OFFCURVE",
"148 345 CURVE SMOOTH",
"148 124 OFFCURVE",
"227 -2 OFFCURVE",
"367 -2 CURVE SMOOTH",
"428 -2 OFFCURVE",
"488 27 OFFCURVE",
"526 68 CURVE SMOOTH"
);
}
);
};
layerId = UUID0;
paths = (
{
closed = 1;
nodes = (
"566 113 OFFCURVE",
"587 176 OFFCURVE",
"600 232 CURVE",
"613 230 LINE",
"613 0 LINE",
"600 0 LINE",
"566 55 LINE",
"507 12 OFFCURVE",
"433 -16 OFFCURVE",
"367 -16 CURVE SMOOTH",
"190 -16 OFFCURVE",
"52 142 OFFCURVE",
"52 345 CURVE SMOOTH",
"52 547 OFFCURVE",
"190 706 OFFCURVE",
"365 706 CURVE SMOOTH",
"425 706 OFFCURVE",
"485 688 OFFCURVE",
"563 646 CURVE",
"587 694 LINE",
"600 694 LINE",
"610 469 LINE",
"596 465 LINE",
"587 515 OFFCURVE",
"572 559 OFFCURVE",
"552 592 CURVE SMOOTH",
"512 658 OFFCURVE",
"445 694 OFFCURVE",
"368 694 CURVE SMOOTH",
"226 694 OFFCURVE",
"148 567 OFFCURVE",
"148 345 CURVE SMOOTH",
"148 124 OFFCURVE",
"227 -2 OFFCURVE",
"367 -2 CURVE SMOOTH",
"428 -2 OFFCURVE",
"488 27 OFFCURVE",
"526 68 CURVE SMOOTH"
);
}
);
width = 676;
}
);
leftKerningGroup = O;
rightKerningGroup = C;
unicode = 0043;
},
{
glyphname = D;
layers = (
{
anchors = (
{
name = bottom;
position = "{318, 0}";
},
{
name = top;
position = "{318, 800}";
}
);
background = {
paths = (
{
closed = 1;
nodes = (
"40 682 LINE",
"40 690 LINE",
"199 690 LINE",
"199 0 LINE",
"40 0 LINE",
"40 8 LINE",
"122 16 LINE",
"122 674 LINE"
);
},
{
closed = 1;
nodes = (
"148 690 LINE",
"306 690 LINE SMOOTH",
"398 690 OFFCURVE",
"467 673 OFFCURVE",
"519 637 CURVE SMOOTH",
"601 580 OFFCURVE",
"648 475 OFFCURVE",
"648 349 CURVE SMOOTH",
"648 222 OFFCURVE",
"600 113 OFFCURVE",
"519 54 CURVE SMOOTH",
"467 16 OFFCURVE",
"403 0 OFFCURVE",
"306 0 CURVE SMOOTH",
"148 0 LINE",
"148 12 LINE",
"297 12 LINE SMOOTH",
"404 12 OFFCURVE",
"448 27 OFFCURVE",
"483 71 CURVE SMOOTH",
"526 126 OFFCURVE",
"552 232 OFFCURVE",
"552 354 CURVE SMOOTH",
"552 472 OFFCURVE",
"528 566 OFFCURVE",
"483 619 CURVE SMOOTH",
"446 662 OFFCURVE",
"399 678 OFFCURVE",
"297 678 CURVE SMOOTH",
"148 678 LINE"
);
}
);
};
layerId = UUID0;
paths = (
{
closed = 1;
nodes = (
"40 682 LINE",
"40 690 LINE",
"199 690 LINE",
"199 0 LINE",
"40 0 LINE",
"40 8 LINE",
"122 16 LINE",
"122 674 LINE"
);
},
{
closed = 1;
nodes = (
"148 690 LINE",
"306 690 LINE SMOOTH",
"398 690 OFFCURVE",
"467 673 OFFCURVE",
"519 637 CURVE SMOOTH",
"601 580 OFFCURVE",
"648 475 OFFCURVE",
"648 349 CURVE SMOOTH",
"648 222 OFFCURVE",
"600 113 OFFCURVE",
"519 54 CURVE SMOOTH",
"467 16 OFFCURVE",
"403 0 OFFCURVE",
"306 0 CURVE SMOOTH",
"148 0 LINE",
"148 12 LINE",
"297 12 LINE SMOOTH",
"404 12 OFFCURVE",
"448 27 OFFCURVE",
"483 71 CURVE SMOOTH",
"526 126 OFFCURVE",
"552 232 OFFCURVE",
"552 354 CURVE SMOOTH",
"552 472 OFFCURVE",
"528 566 OFFCURVE",
"483 619 CURVE SMOOTH",
"446 662 OFFCURVE",
"399 678 OFFCURVE",
"297 678 CURVE SMOOTH",
"148 678 LINE"
);
}
);
width = 704;
}
);
leftKerningGroup = I;
rightKerningGroup = D;
unicode = 0044;
},
{
glyphname = Eth;
layers = (
{
background = {
paths = (
{
closed = 1;
nodes = (
"51 363 LINE",
"335 363 LINE",
"335 341 LINE",
"51 341 LINE"
);
}
);
};
components = (
{
name = D;
transform = "{1, 0, 0, 1, 11, 0}";
}
);
layerId = UUID0;
paths = (
{
closed = 1;
nodes = (
"51 363 LINE",
"335 363 LINE",
"335 341 LINE",
"51 341 LINE"
);
}
);
width = 715;
}
);
leftKerningGroup = I;
rightKerningGroup = D;
unicode = 00D0;
},
{
glyphname = Dcroat;
layers = (
{
background = {
paths = (
{
closed = 1;
nodes = (
"51 363 LINE",
"335 363 LINE",
"335 341 LINE",
"51 341 LINE"
);
}
);
};
components = (
{
name = D;
transform = "{1, 0, 0, 1, 11, 0}";
}
);
layerId = UUID0;
paths = (
{
closed = 1;
nodes = (
"51 363 LINE",
"335 363 LINE",
"335 341 LINE",
"51 341 LINE"
);
}
);
width = 715;
}
);
leftKerningGroup = I;
rightKerningGroup = D;
unicode = 0110;
},
{
glyphname = E;
layers = (
{
anchors = (
{
name = bottom;
position = "{313, 0}";
},
{
name = top;
position = "{314, 800}";
}
);
background = {
paths = (
{
closed = 1;
nodes = (
"199 678 LINE",
"199 12 LINE",
"423 12 LINE SMOOTH",
"455 12 OFFCURVE",
"466 19 OFFCURVE",
"478 49 CURVE SMOOTH",
"544 211 LINE",
"555 210 LINE",
"530 0 LINE",
"40 0 LINE",
"40 8 LINE",
"122 16 LINE",
"122 674 LINE",
"40 682 LINE",
"40 690 LINE",
"531 690 LINE",
"545 502 LINE",
"535 501 LINE",
"479 641 LINE SMOOTH",
"467 671 OFFCURVE",
"457 678 OFFCURVE",
"425 678 CURVE SMOOTH"
);
},
{
closed = 1;
nodes = (
"347 371 LINE SMOOTH",
"379 371 OFFCURVE",
"389 379 OFFCURVE",
"395 410 CURVE SMOOTH",
"412 491 LINE",
"424 491 LINE",
"424 235 LINE",
"412 235 LINE",
"395 316 LINE SMOOTH",
"389 347 OFFCURVE",
"379 355 OFFCURVE",
"347 355 CURVE SMOOTH",
"190 355 LINE",
"190 371 LINE"
);
}
);
};
layerId = UUID0;
paths = (
{
closed = 1;
nodes = (
"199 678 LINE",
"199 12 LINE",
"423 12 LINE SMOOTH",
"455 12 OFFCURVE",
"466 19 OFFCURVE",
"478 49 CURVE SMOOTH",
"544 211 LINE",
"555 210 LINE",
"530 0 LINE",
"40 0 LINE",
"40 8 LINE",
"122 16 LINE",
"122 674 LINE",
"40 682 LINE",
"40 690 LINE",
"531 690 LINE",
"545 502 LINE",
"535 501 LINE",
"479 641 LINE SMOOTH",
"467 671 OFFCURVE",
"457 678 OFFCURVE",
"425 678 CURVE SMOOTH"
);
},
{
closed = 1;
nodes = (
"347 371 LINE SMOOTH",
"379 371 OFFCURVE",
"389 379 OFFCURVE",
"395 410 CURVE SMOOTH",
"412 491 LINE",
"424 491 LINE",
"424 235 LINE",
"412 235 LINE",
"395 316 LINE SMOOTH",
"389 347 OFFCURVE",
"379 355 OFFCURVE",
"347 355 CURVE SMOOTH",
"190 355 LINE",
"190 371 LINE"
);
}
);
width = 614;
}
);
leftKerningGroup = I;
rightKerningGroup = E;
unicode = 0045;
},
{
glyphname = F;
layers = (
{
background = {
paths = (
{
closed = 1;
nodes = (
"199 678 LINE",
"199 16 LINE",
"297 8 LINE",
"297 0 LINE",
"40 0 LINE",
"40 8 LINE",
"122 16 LINE",
"122 674 LINE",
"40 682 LINE",
"40 690 LINE",
"508 690 LINE",
"524 491 LINE",
"516 490 LINE",
"456 641 LINE SMOOTH",
"444 671 OFFCURVE",
"434 678 OFFCURVE",
"402 678 CURVE SMOOTH"
);
},
{
closed = 1;
nodes = (
"344 371 LINE SMOOTH",
"376 371 OFFCURVE",
"386 379 OFFCURVE",
"392 410 CURVE SMOOTH",
"409 491 LINE",
"421 491 LINE",
"421 235 LINE",
"409 235 LINE",
"392 316 LINE SMOOTH",
"386 347 OFFCURVE",
"376 355 OFFCURVE",
"344 355 CURVE SMOOTH",
"187 355 LINE",
"187 371 LINE"
);
}
);
};
layerId = UUID0;
paths = (
{
closed = 1;
nodes = (
"199 678 LINE",
"199 16 LINE",
"297 8 LINE",
"297 0 LINE",
"40 0 LINE",
"40 8 LINE",
"122 16 LINE",
"122 674 LINE",
"40 682 LINE",
"40 690 LINE",
"508 690 LINE",
"524 491 LINE",
"516 490 LINE",
"456 641 LINE SMOOTH",
"444 671 OFFCURVE",
"434 678 OFFCURVE",
"402 678 CURVE SMOOTH"
);
},
{
closed = 1;
nodes = (
"344 371 LINE SMOOTH",
"376 371 OFFCURVE",
"386 379 OFFCURVE",
"392 410 CURVE SMOOTH",
"409 491 LINE",
"421 491 LINE",
"421 235 LINE",
"409 235 LINE",
"392 316 LINE SMOOTH",
"386 347 OFFCURVE",
"376 355 OFFCURVE",
"344 355 CURVE SMOOTH",
"187 355 LINE",
"187 371 LINE"
);
}
);
width = 554;
}
);
leftKerningGroup = I;
unicode = 0046;
},
{
glyphname = G;
layers = (
{
anchors = (
{
name = top;
position = "{372, 800}";
}
);
background = {
paths = (
{
closed = 1;
nodes = (
"456 337 LINE",
"456 345 LINE",
"687 345 LINE",
"687 337 LINE",
"605 329 LINE",
"605 68 LINE",
"533 1 OFFCURVE",
"417 -16 OFFCURVE",
"367 -16 CURVE SMOOTH",
"190 -16 OFFCURVE",
"52 142 OFFCURVE",
"52 345 CURVE SMOOTH",
"52 547 OFFCURVE",
"190 706 OFFCURVE",
"365 706 CURVE SMOOTH",
"423 706 OFFCURVE",
"483 688 OFFCURVE",
"559 646 CURVE",
"583 694 LINE",
"596 694 LINE",
"606 469 LINE",
"592 465 LINE",
"583 515 OFFCURVE",
"568 559 OFFCURVE",
"548 592 CURVE SMOOTH",
"508 658 OFFCURVE",
"443 694 OFFCURVE",
"368 694 CURVE SMOOTH",
"226 694 OFFCURVE",
"148 567 OFFCURVE",
"148 345 CURVE SMOOTH",
"148 122 OFFCURVE",
"227 -4 OFFCURVE",
"367 -4 CURVE SMOOTH",
"435 -4 OFFCURVE",
"496 30 OFFCURVE",
"528 77 CURVE",
"528 329 LINE"
);
}
);
};
layerId = UUID0;
paths = (
{
closed = 1;
nodes = (
"456 337 LINE",
"456 345 LINE",
"687 345 LINE",
"687 337 LINE",
"605 329 LINE",
"605 68 LINE",
"533 1 OFFCURVE",
"417 -16 OFFCURVE",
"367 -16 CURVE SMOOTH",
"190 -16 OFFCURVE",
"52 142 OFFCURVE",
"52 345 CURVE SMOOTH",
"52 547 OFFCURVE",
"190 706 OFFCURVE",
"365 706 CURVE SMOOTH",
"423 706 OFFCURVE",
"483 688 OFFCURVE",
"559 646 CURVE",
"583 694 LINE",
"596 694 LINE",
"606 469 LINE",
"592 465 LINE",
"583 515 OFFCURVE",
"568 559 OFFCURVE",
"548 592 CURVE SMOOTH",
"508 658 OFFCURVE",
"443 694 OFFCURVE",
"368 694 CURVE SMOOTH",
"226 694 OFFCURVE",
"148 567 OFFCURVE",
"148 345 CURVE SMOOTH",
"148 122 OFFCURVE",
"227 -4 OFFCURVE",
"367 -4 CURVE SMOOTH",
"435 -4 OFFCURVE",
"496 30 OFFCURVE",
"528 77 CURVE",
"528 329 LINE"
);
}
);
width = 703;
}
);
leftKerningGroup = O;
rightKerningGroup = G;
unicode = 0047;
},
{
glyphname = H;
layers = (
{
anchors = (
{
name = bottom;
position = "{368, 0}";
},
{
name = top;
position = "{368, 800}";
}
);
background = {
paths = (
{
closed = 1;
nodes = (
"445 682 LINE",
"445 690 LINE",
"691 690 LINE",
"691 682 LINE",
"609 674 LINE",
"609 16 LINE",
"691 8 LINE",
"691 0 LINE",
"445 0 LINE",
"445 8 LINE",
"532 16 LINE",
"532 674 LINE"
);
},
{
closed = 1;
nodes = (
"40 682 LINE",
"40 690 LINE",
"286 690 LINE",
"286 682 LINE",
"199 674 LINE",
"199 16 LINE",
"286 8 LINE",
"286 0 LINE",
"40 0 LINE",
"40 8 LINE",
"122 16 LINE",
"122 674 LINE"
);
},
{
closed = 1;
nodes = (
"162 371 LINE",
"569 371 LINE",
"569 355 LINE",
"162 355 LINE"
);
}
);
};
layerId = UUID0;
paths = (
{
closed = 1;
nodes = (
"445 682 LINE",
"445 690 LINE",
"691 690 LINE",
"691 682 LINE",
"609 674 LINE",
"609 16 LINE",
"691 8 LINE",
"691 0 LINE",
"445 0 LINE",
"445 8 LINE",
"532 16 LINE",
"532 674 LINE"
);
},
{
closed = 1;
nodes = (
"40 682 LINE",
"40 690 LINE",
"286 690 LINE",
"286 682 LINE",
"199 674 LINE",
"199 16 LINE",
"286 8 LINE",
"286 0 LINE",
"40 0 LINE",
"40 8 LINE",
"122 16 LINE",
"122 674 LINE"
);
},
{
closed = 1;
nodes = (
"162 371 LINE",
"569 371 LINE",
"569 355 LINE",
"162 355 LINE"
);
}
);
width = 731;
}
);
leftKerningGroup = I;
rightKerningGroup = I;
unicode = 0048;
},
{
glyphname = Hbar;
layers = (
{
background = {
paths = (
{
closed = 1;
nodes = (
"47 531 LINE",
"697 531 LINE",
"697 514 LINE",
"47 514 LINE"
);
}
);
};
components = (
{
name = H;
transform = "{1, 0, 0, 1, 6, 0}";
}
);
layerId = UUID0;
paths = (
{
closed = 1;
nodes = (
"47 531 LINE",
"697 531 LINE",
"697 514 LINE",
"47 514 LINE"
);
}
);
width = 745;
}
);
leftKerningGroup = I;
rightKerningGroup = I;
unicode = 0126;
},
{
glyphname = I;
layers = (
{
anchors = (
{
name = bottom;
position = "{161, 0}";
},
{
name = top;
position = "{161, 800}";
}
);
background = {
paths = (
{
closed = 1;
nodes = (
"122 674 LINE",
"122 16 LINE",
"40 8 LINE",
"40 0 LINE",
"281 0 LINE",
"281 8 LINE",
"199 16 LINE",
"199 674 LINE",
"281 682 LINE",
"281 690 LINE",
"40 690 LINE",
"40 682 LINE"
);
}
);
};
layerId = UUID0;
paths = (
{
closed = 1;
nodes = (
"122 674 LINE",
"122 16 LINE",
"40 8 LINE",
"40 0 LINE",
"281 0 LINE",
"281 8 LINE",
"199 16 LINE",
"199 674 LINE",
"281 682 LINE",
"281 690 LINE",
"40 690 LINE",
"40 682 LINE"
);
}
);
width = 321;
}
);
leftKerningGroup = I;
rightKerningGroup = I;
unicode = 0049;
},
{
glyphname = J;
layers = (
{
anchors = (
{
name = top;
position = "{173, 800}";
}
);
background = {
paths = (
{
closed = 1;
nodes = (
"134 674 LINE",
"52 682 LINE",
"52 690 LINE",
"293 690 LINE",
"293 682 LINE",
"211 674 LINE",
"211 57 LINE SMOOTH",
"211 -30 OFFCURVE",
"202 -74 OFFCURVE",
"178 -109 CURVE SMOOTH",
"151 -147 OFFCURVE",
"105 -171 OFFCURVE",
"55 -171 CURVE SMOOTH",
"-7 -171 OFFCURVE",
"-54 -138 OFFCURVE",
"-54 -94 CURVE SMOOTH",
"-54 -67 OFFCURVE",
"-38 -50 OFFCURVE",
"-12 -50 CURVE SMOOTH",
"14 -50 OFFCURVE",
"30 -67 OFFCURVE",
"30 -95 CURVE SMOOTH",
"30 -102 OFFCURVE",
"29 -117 OFFCURVE",
"29 -124 CURVE SMOOTH",
"29 -147 OFFCURVE",
"41 -159 OFFCURVE",
"63 -159 CURVE SMOOTH",
"106 -159 OFFCURVE",
"134 -104 OFFCURVE",
"134 -20 CURVE SMOOTH"
);
}
);
};
layerId = UUID0;
paths = (
{
closed = 1;
nodes = (
"134 674 LINE",
"52 682 LINE",
"52 690 LINE",
"293 690 LINE",
"293 682 LINE",
"211 674 LINE",
"211 57 LINE SMOOTH",
"211 -30 OFFCURVE",
"202 -74 OFFCURVE",
"178 -109 CURVE SMOOTH",
"151 -147 OFFCURVE",
"105 -171 OFFCURVE",
"55 -171 CURVE SMOOTH",
"-7 -171 OFFCURVE",
"-54 -138 OFFCURVE",
"-54 -94 CURVE SMOOTH",
"-54 -67 OFFCURVE",
"-38 -50 OFFCURVE",
"-12 -50 CURVE SMOOTH",
"14 -50 OFFCURVE",
"30 -67 OFFCURVE",
"30 -95 CURVE SMOOTH",
"30 -102 OFFCURVE",
"29 -117 OFFCURVE",
"29 -124 CURVE SMOOTH",
"29 -147 OFFCURVE",
"41 -159 OFFCURVE",
"63 -159 CURVE SMOOTH",
"106 -159 OFFCURVE",
"134 -104 OFFCURVE",
"134 -20 CURVE SMOOTH"
);
}
);
width = 330;
}
);
leftKerningGroup = J;
rightKerningGroup = J;
unicode = 004A;
},
{
glyphname = K;
layers = (
{
anchors = (
{
name = bottom;
position = "{335, 0}";
}
);
background = {
paths = (
{
closed = 1;
nodes = (
"304 423 LINE",
"597 40 LINE SMOOTH",
"619 15 OFFCURVE",
"634 8 OFFCURVE",
"671 8 CURVE SMOOTH",
"675 8 LINE",
"675 0 LINE",
"526 0 LINE",
"252 361 LINE"
);
},
{
closed = 1;
nodes = (
"40 682 LINE",
"40 690 LINE",
"286 690 LINE",
"286 682 LINE",
"199 674 LINE",
"199 16 LINE",
"286 8 LINE",
"286 0 LINE",
"40 0 LINE",
"40 8 LINE",
"122 16 LINE",
"122 674 LINE"
);
},
{
closed = 1;
nodes = (
"409 690 LINE",
"613 690 LINE",
"613 682 LINE",
"535 669 OFFCURVE",
"521 662 OFFCURVE",
"491 628 CURVE SMOOTH",
"172 263 LINE",
"172 281 LINE",
"471 626 LINE SMOOTH",
"481 638 OFFCURVE",
"487 649 OFFCURVE",
"487 657 CURVE SMOOTH",
"487 670 OFFCURVE",
"472 675 OFFCURVE",
"409 682 CURVE"
);
}
);
};
layerId = UUID0;
paths = (
{
closed = 1;
nodes = (
"304 423 LINE",
"597 40 LINE SMOOTH",
"619 15 OFFCURVE",
"634 8 OFFCURVE",
"671 8 CURVE SMOOTH",
"675 8 LINE",
"675 0 LINE",
"526 0 LINE",
"252 361 LINE"
);
},
{
closed = 1;
nodes = (
"40 682 LINE",
"40 690 LINE",
"286 690 LINE",
"286 682 LINE",
"199 674 LINE",
"199 16 LINE",
"286 8 LINE",
"286 0 LINE",
"40 0 LINE",
"40 8 LINE",
"122 16 LINE",
"122 674 LINE"
);
},
{
closed = 1;
nodes = (
"409 690 LINE",
"613 690 LINE",
"613 682 LINE",
"535 669 OFFCURVE",
"521 662 OFFCURVE",
"491 628 CURVE SMOOTH",
"172 263 LINE",
"172 281 LINE",
"471 626 LINE SMOOTH",
"481 638 OFFCURVE",
"487 649 OFFCURVE",
"487 657 CURVE SMOOTH",
"487 670 OFFCURVE",
"472 675 OFFCURVE",
"409 682 CURVE"
);
}
);
width = 656;
}
);
leftKerningGroup = I;
rightKerningGroup = K;
unicode = 004B;
},
{
glyphname = L;
layers = (
{
anchors = (
{
name = bottom;
position = "{300, 0}";
}
);
background = {
paths = (
{
closed = 1;
nodes = (
"40 682 LINE",
"40 690 LINE",
"286 690 LINE",
"286 682 LINE",
"199 674 LINE",
"199 12 LINE",
"420 12 LINE SMOOTH",
"452 12 OFFCURVE",
"463 19 OFFCURVE",
"475 49 CURVE SMOOTH",
"543 220 LINE",
"555 218 LINE",
"530 0 LINE",
"40 0 LINE",
"40 8 LINE",
"122 16 LINE",
"122 674 LINE"
);
}
);
};
layerId = UUID0;
paths = (
{
closed = 1;
nodes = (
"40 682 LINE",
"40 690 LINE",
"286 690 LINE",
"286 682 LINE",
"199 674 LINE",
"199 12 LINE",
"420 12 LINE SMOOTH",
"452 12 OFFCURVE",
"463 19 OFFCURVE",
"475 49 CURVE SMOOTH",
"543 220 LINE",
"555 218 LINE",
"530 0 LINE",
"40 0 LINE",
"40 8 LINE",
"122 16 LINE",
"122 674 LINE"
);
}
);
width = 583;
}
);
leftKerningGroup = I;
rightKerningGroup = L;
unicode = 004C;
},
{
glyphname = Lslash;
layers = (
{
background = {
paths = (
{
closed = 1;
nodes = (
"316 412 LINE",
"40 253 LINE",
"40 271 LINE",
"316 431 LINE"
);
}
);
};
components = (
{
name = L;
}
);
layerId = UUID0;
paths = (
{
closed = 1;
nodes = (
"316 412 LINE",
"40 253 LINE",
"40 271 LINE",
"316 431 LINE"
);
}
);
width = 583;
}
);
leftKerningGroup = I;
rightKerningGroup = L;
unicode = 0141;
},
{
glyphname = M;
layers = (
{
background = {
paths = (
{
closed = 1;
nodes = (
"34 682 LINE",
"34 690 LINE",
"205 690 LINE",
"451 103 LINE",
"455 103 LINE",
"675 690 LINE",
"697 690 LINE",
"672 625 LINE",
"668 625 LINE",
"427 -16 LINE",
"417 -16 LINE",
"148 626 LINE",
"144 626 LINE",
"136 634 LINE",
"136 645 LINE",
"123 675 OFFCURVE",
"112 682 OFFCURVE",
"80 682 CURVE SMOOTH"
);
},
{
closed = 1;
nodes = (
"144 678 LINE",
"144 61 LINE SMOOTH",
"144 29 OFFCURVE",
"150 19 OFFCURVE",
"174 16 CURVE SMOOTH",
"245 8 LINE",
"245 0 LINE",
"26 0 LINE",
"26 8 LINE",
"98 16 LINE SMOOTH",
"122 19 OFFCURVE",
"128 29 OFFCURVE",
"128 61 CURVE SMOOTH",
"128 678 LINE"
);
},
{
closed = 1;
nodes = (
"836 690 LINE",
"836 682 LINE",
"749 674 LINE",
"749 16 LINE",
"836 8 LINE",
"836 0 LINE",
"590 0 LINE",
"590 8 LINE",
"672 16 LINE",
"672 652 LINE",
"679 690 LINE"
);
}
);
};
layerId = UUID0;
paths = (
{
closed = 1;
nodes = (
"34 682 LINE",
"34 690 LINE",
"205 690 LINE",
"451 103 LINE",
"455 103 LINE",
"675 690 LINE",
"697 690 LINE",
"672 625 LINE",
"668 625 LINE",
"427 -16 LINE",
"417 -16 LINE",
"148 626 LINE",
"144 626 LINE",
"136 634 LINE",
"136 645 LINE",
"123 675 OFFCURVE",
"112 682 OFFCURVE",
"80 682 CURVE SMOOTH"
);
},
{
closed = 1;
nodes = (
"144 678 LINE",
"144 61 LINE SMOOTH",
"144 29 OFFCURVE",
"150 19 OFFCURVE",
"174 16 CURVE SMOOTH",
"245 8 LINE",
"245 0 LINE",
"26 0 LINE",
"26 8 LINE",
"98 16 LINE SMOOTH",
"122 19 OFFCURVE",
"128 29 OFFCURVE",
"128 61 CURVE SMOOTH",
"128 678 LINE"
);
},
{
closed = 1;
nodes = (
"836 690 LINE",
"836 682 LINE",
"749 674 LINE",
"749 16 LINE",
"836 8 LINE",
"836 0 LINE",
"590 0 LINE",
"590 8 LINE",
"672 16 LINE",
"672 652 LINE",
"679 690 LINE"
);
}
);
width = 871;
}
);
leftKerningGroup = I;
rightKerningGroup = I;
unicode = 004D;
},
{
glyphname = N;
layers = (
{
anchors = (
{
name = bottom;
position = "{376, 0}";
},
{
name = top;
position = "{376, 800}";
}
);
background = {
paths = (
{
closed = 1;
nodes = (
"43 682 LINE",
"43 690 LINE",
"192 690 LINE",
"586 138 LINE",
"606 138 LINE",
"606 -16 LINE",
"596 -16 LINE",
"147 621 LINE",
"138 621 LINE",
"133 635 LINE",
"123 649 LINE SMOOTH",
"105 675 OFFCURVE",
"92 682 OFFCURVE",
"60 682 CURVE SMOOTH"
);
},
{
closed = 1;
nodes = (
"590 68 LINE",
"590 629 LINE SMOOTH",
"590 661 OFFCURVE",
"584 672 OFFCURVE",
"560 674 CURVE SMOOTH",
"479 682 LINE",
"479 690 LINE",
"718 690 LINE",
"718 682 LINE",
"646 674 LINE SMOOTH",
"614 670 OFFCURVE",
"606 661 OFFCURVE",
"606 629 CURVE SMOOTH",
"606 68 LINE"
);
},
{
closed = 1;
nodes = (
"143 664 LINE",
"143 61 LINE SMOOTH",
"143 29 OFFCURVE",
"149 19 OFFCURVE",
"173 16 CURVE SMOOTH",
"244 8 LINE",
"244 0 LINE",
"25 0 LINE",
"25 8 LINE",
"97 16 LINE SMOOTH",
"121 19 OFFCURVE",
"127 29 OFFCURVE",
"127 61 CURVE SMOOTH",
"127 662 LINE"
);
}
);
};
layerId = UUID0;
paths = (
{
closed = 1;
nodes = (
"43 682 LINE",
"43 690 LINE",
"192 690 LINE",
"586 138 LINE",
"606 138 LINE",
"606 -16 LINE",
"596 -16 LINE",
"147 621 LINE",
"138 621 LINE",
"133 635 LINE",
"123 649 LINE SMOOTH",
"105 675 OFFCURVE",
"92 682 OFFCURVE",
"60 682 CURVE SMOOTH"
);
},
{
closed = 1;
nodes = (
"590 68 LINE",
"590 629 LINE SMOOTH",
"590 661 OFFCURVE",
"584 672 OFFCURVE",
"560 674 CURVE SMOOTH",
"479 682 LINE",
"479 690 LINE",
"718 690 LINE",
"718 682 LINE",
"646 674 LINE SMOOTH",
"614 670 OFFCURVE",
"606 661 OFFCURVE",
"606 629 CURVE SMOOTH",
"606 68 LINE"
);
},
{
closed = 1;
nodes = (
"143 664 LINE",
"143 61 LINE SMOOTH",
"143 29 OFFCURVE",
"149 19 OFFCURVE",
"173 16 CURVE SMOOTH",
"244 8 LINE",
"244 0 LINE",
"25 0 LINE",
"25 8 LINE",
"97 16 LINE SMOOTH",
"121 19 OFFCURVE",
"127 29 OFFCURVE",
"127 61 CURVE SMOOTH",
"127 662 LINE"
);
}
);
width = 734;
}
);
leftKerningGroup = I;
rightKerningGroup = N;
unicode = 004E;
},
{
glyphname = Eng;
layers = (
{
background = {
paths = (
{
closed = 1;
nodes = (
"43 682 LINE",
"43 690 LINE",
"192 690 LINE",
"586 138 LINE",
"590 138 LINE",
"590 629 LINE SMOOTH",
"590 662 OFFCURVE",
"583 672 OFFCURVE",
"560 674 CURVE SMOOTH",
"479 682 LINE",
"479 690 LINE",
"718 690 LINE",
"718 682 LINE",
"646 674 LINE SMOOTH",
"614 670 OFFCURVE",
"606 661 OFFCURVE",
"606 629 CURVE SMOOTH",
"606 -14 LINE SMOOTH",
"606 -178 OFFCURVE",
"574 -246 OFFCURVE",
"496 -246 CURVE SMOOTH",
"439 -246 OFFCURVE",
"393 -210 OFFCURVE",
"393 -165 CURVE SMOOTH",
"393 -138 OFFCURVE",
"409 -121 OFFCURVE",
"435 -121 CURVE SMOOTH",
"461 -121 OFFCURVE",
"477 -138 OFFCURVE",
"477 -166 CURVE SMOOTH",
"477 -173 OFFCURVE",
"476 -188 OFFCURVE",
"476 -195 CURVE SMOOTH",
"476 -218 OFFCURVE",
"488 -230 OFFCURVE",
"509 -230 CURVE SMOOTH",
"561 -230 OFFCURVE",
"590 -161 OFFCURVE",
"590 -40 CURVE SMOOTH",
"590 -3 LINE",
"147 621 LINE",
"143 621 LINE",
"143 61 LINE SMOOTH",
"143 28 OFFCURVE",
"150 18 OFFCURVE",
"173 16 CURVE SMOOTH",
"244 8 LINE",
"244 0 LINE",
"25 0 LINE",
"25 8 LINE",
"97 16 LINE SMOOTH",
"120 18 OFFCURVE",
"127 28 OFFCURVE",
"127 61 CURVE SMOOTH",
"127 643 LINE",
"123 649 LINE SMOOTH",
"105 675 OFFCURVE",
"92 682 OFFCURVE",
"60 682 CURVE SMOOTH"
);
}
);
};
layerId = UUID0;
paths = (
{
closed = 1;
nodes = (
"43 682 LINE",
"43 690 LINE",
"192 690 LINE",
"586 138 LINE",
"590 138 LINE",
"590 629 LINE SMOOTH",
"590 662 OFFCURVE",
"583 672 OFFCURVE",
"560 674 CURVE SMOOTH",
"479 682 LINE",
"479 690 LINE",
"718 690 LINE",
"718 682 LINE",
"646 674 LINE SMOOTH",
"614 670 OFFCURVE",
"606 661 OFFCURVE",
"606 629 CURVE SMOOTH",
"606 -14 LINE SMOOTH",
"606 -178 OFFCURVE",
"574 -246 OFFCURVE",
"496 -246 CURVE SMOOTH",
"439 -246 OFFCURVE",
"393 -210 OFFCURVE",
"393 -165 CURVE SMOOTH",
"393 -138 OFFCURVE",
"409 -121 OFFCURVE",
"435 -121 CURVE SMOOTH",
"461 -121 OFFCURVE",
"477 -138 OFFCURVE",
"477 -166 CURVE SMOOTH",
"477 -173 OFFCURVE",
"476 -188 OFFCURVE",
"476 -195 CURVE SMOOTH",
"476 -218 OFFCURVE",
"488 -230 OFFCURVE",
"509 -230 CURVE SMOOTH",
"561 -230 OFFCURVE",
"590 -161 OFFCURVE",
"590 -40 CURVE SMOOTH",
"590 -3 LINE",
"147 621 LINE",
"143 621 LINE",
"143 61 LINE SMOOTH",
"143 28 OFFCURVE",
"150 18 OFFCURVE",
"173 16 CURVE SMOOTH",
"244 8 LINE",
"244 0 LINE",
"25 0 LINE",
"25 8 LINE",
"97 16 LINE SMOOTH",
"120 18 OFFCURVE",
"127 28 OFFCURVE",
"127 61 CURVE SMOOTH",
"127 643 LINE",
"123 649 LINE SMOOTH",
"105 675 OFFCURVE",
"92 682 OFFCURVE",
"60 682 CURVE SMOOTH"
);
}
);
width = 734;
}
);
leftKerningGroup = I;
rightKerningGroup = N;
unicode = 014A;
},
{
glyphname = O;
layers = (
{
anchors = (
{
name = bottom;
position = "{368, 0}";
},
{
name = top;
position = "{369, 800}";
}
);
background = {
paths = (
{
closed = 1;
nodes = (
"190 706 OFFCURVE",
"52 548 OFFCURVE",
"52 345 CURVE SMOOTH",
"52 142 OFFCURVE",
"190 -16 OFFCURVE",
"367 -16 CURVE SMOOTH",
"544 -16 OFFCURVE",
"682 142 OFFCURVE",
"682 345 CURVE SMOOTH",
"682 548 OFFCURVE",
"544 706 OFFCURVE",
"367 706 CURVE SMOOTH"
);
},
{
closed = 1;
nodes = (
"148 568 OFFCURVE",
"227 694 OFFCURVE",
"367 694 CURVE SMOOTH",
"507 694 OFFCURVE",
"586 568 OFFCURVE",
"586 345 CURVE SMOOTH",
"586 123 OFFCURVE",
"507 -3 OFFCURVE",
"367 -3 CURVE SMOOTH",
"227 -3 OFFCURVE",
"148 123 OFFCURVE",
"148 345 CURVE SMOOTH"
);
}
);
};
layerId = UUID0;
paths = (
{
closed = 1;
nodes = (
"190 706 OFFCURVE",
"52 548 OFFCURVE",
"52 345 CURVE SMOOTH",
"52 142 OFFCURVE",
"190 -16 OFFCURVE",
"367 -16 CURVE SMOOTH",
"544 -16 OFFCURVE",
"682 142 OFFCURVE",
"682 345 CURVE SMOOTH",
"682 548 OFFCURVE",
"544 706 OFFCURVE",
"367 706 CURVE SMOOTH"
);
},
{
closed = 1;
nodes = (
"148 568 OFFCURVE",
"227 694 OFFCURVE",
"367 694 CURVE SMOOTH",
"507 694 OFFCURVE",
"586 568 OFFCURVE",
"586 345 CURVE SMOOTH",
"586 123 OFFCURVE",
"507 -3 OFFCURVE",
"367 -3 CURVE SMOOTH",
"227 -3 OFFCURVE",
"148 123 OFFCURVE",
"148 345 CURVE SMOOTH"
);
}
);
width = 734;
}
);
leftKerningGroup = O;
rightKerningGroup = O;
unicode = 004F;
},
{
glyphname = Oogonek;
layers = (
{
background = {
paths = (
{
closed = 1;
nodes = (
"389 -5 LINE",
"320 -52 OFFCURVE",
"280 -103 OFFCURVE",
"280 -149 CURVE SMOOTH",
"280 -196 OFFCURVE",
"315 -226 OFFCURVE",
"370 -226 CURVE SMOOTH",
"409 -226 OFFCURVE",
"440 -211 OFFCURVE",
"468 -178 CURVE",
"465 -173 LINE",
"446 -191 OFFCURVE",
"426 -198 OFFCURVE",
"403 -198 CURVE SMOOTH",
"365 -198 OFFCURVE",
"341 -175 OFFCURVE",
"341 -132 CURVE SMOOTH",
"341 -93 OFFCURVE",
"368 -41 OFFCURVE",
"398 -9 CURVE"
);
}
);
};
components = (
{
name = O;
}
);
layerId = UUID0;
paths = (
{
closed = 1;
nodes = (
"389 -5 LINE",
"320 -52 OFFCURVE",
"280 -103 OFFCURVE",
"280 -149 CURVE SMOOTH",
"280 -196 OFFCURVE",
"315 -226 OFFCURVE",
"370 -226 CURVE SMOOTH",
"409 -226 OFFCURVE",
"440 -211 OFFCURVE",
"468 -178 CURVE",
"465 -173 LINE",
"446 -191 OFFCURVE",
"426 -198 OFFCURVE",
"403 -198 CURVE SMOOTH",
"365 -198 OFFCURVE",
"341 -175 OFFCURVE",
"341 -132 CURVE SMOOTH",
"341 -93 OFFCURVE",
"368 -41 OFFCURVE",
"398 -9 CURVE"
);
}
);
width = 734;
}
);
unicode = 01EA;
},
{
glyphname = Oslash;
layers = (
{
background = {
paths = (
{
closed = 1;
nodes = (
"584 750 LINE",
"164 -75 LINE",
"141 -75 LINE",
"561 750 LINE"
);
},
{
closed = 1;
nodes = (
"544 706 OFFCURVE",
"682 548 OFFCURVE",
"682 345 CURVE SMOOTH",
"682 142 OFFCURVE",
"544 -16 OFFCURVE",
"367 -16 CURVE SMOOTH",
"190 -16 OFFCURVE",
"52 142 OFFCURVE",
"52 345 CURVE SMOOTH",
"52 548 OFFCURVE",
"190 706 OFFCURVE",
"367 706 CURVE SMOOTH"
);
},
{
closed = 1;
nodes = (
"148 123 OFFCURVE",
"227 -3 OFFCURVE",
"367 -3 CURVE SMOOTH",
"507 -3 OFFCURVE",
"586 123 OFFCURVE",
"586 345 CURVE SMOOTH",
"586 568 OFFCURVE",
"507 694 OFFCURVE",
"367 694 CURVE SMOOTH",
"227 694 OFFCURVE",
"148 568 OFFCURVE",
"148 345 CURVE SMOOTH"
);
}
);
};
layerId = UUID0;
paths = (
{
closed = 1;
nodes = (
"584 750 LINE",
"164 -75 LINE",
"141 -75 LINE",
"561 750 LINE"
);
},
{
closed = 1;
nodes = (
"544 706 OFFCURVE",
"682 548 OFFCURVE",
"682 345 CURVE SMOOTH",
"682 142 OFFCURVE",
"544 -16 OFFCURVE",
"367 -16 CURVE SMOOTH",
"190 -16 OFFCURVE",
"52 142 OFFCURVE",
"52 345 CURVE SMOOTH",
"52 548 OFFCURVE",
"190 706 OFFCURVE",
"367 706 CURVE SMOOTH"
);
},
{
closed = 1;
nodes = (
"148 123 OFFCURVE",
"227 -3 OFFCURVE",
"367 -3 CURVE SMOOTH",
"507 -3 OFFCURVE",
"586 123 OFFCURVE",
"586 345 CURVE SMOOTH",
"586 568 OFFCURVE",
"507 694 OFFCURVE",
"367 694 CURVE SMOOTH",
"227 694 OFFCURVE",
"148 568 OFFCURVE",
"148 345 CURVE SMOOTH"
);
}
);
width = 734;
}
);
leftKerningGroup = O;
rightKerningGroup = O;
unicode = 00D8;
},
{
glyphname = Oslashacute;
layers = (
{
background = {
paths = (
{
closed = 1;
nodes = (
"562 750 LINE",
"142 -75 LINE",
"165 -75 LINE",
"585 750 LINE"
);
}
);
};
components = (
{
name = acute;
transform = "{1, 0, 0, 1, 310, 270}";
},
{
name = O;
transform = "{1, 0, 0, 1, 1, 0}";
}
);
layerId = UUID0;
paths = (
{
closed = 1;
nodes = (
"562 750 LINE",
"142 -75 LINE",
"165 -75 LINE",
"585 750 LINE"
);
}
);
width = 734;
}
);
leftKerningGroup = O;
rightKerningGroup = O;
unicode = 01FE;
},
{
glyphname = OE;
layers = (
{
background = {
paths = (
{
closed = 1;
nodes = (
"797 678 LINE",
"829 678 OFFCURVE",
"839 671 OFFCURVE",
"851 641 CURVE SMOOTH",
"907 501 LINE",
"917 502 LINE",
"903 690 LINE",
"494 690 LINE",
"494 0 LINE",
"902 0 LINE",
"927 210 LINE",
"916 211 LINE",
"850 49 LINE SMOOTH",
"838 19 OFFCURVE",
"827 12 OFFCURVE",
"795 12 CURVE SMOOTH",
"571 12 LINE",
"571 678 LINE"
);
},
{
closed = 1;
nodes = (
"562 371 LINE",
"562 355 LINE",
"719 355 LINE SMOOTH",
"751 355 OFFCURVE",
"761 347 OFFCURVE",
"767 316 CURVE SMOOTH",
"784 235 LINE",
"796 235 LINE",
"796 491 LINE",
"784 491 LINE",
"767 410 LINE SMOOTH",
"761 379 OFFCURVE",
"751 371 OFFCURVE",
"719 371 CURVE SMOOTH"
);
},
{
closed = 1;
nodes = (
"190 706 OFFCURVE",
"52 548 OFFCURVE",
"52 345 CURVE SMOOTH",
"52 142 OFFCURVE",
"190 -16 OFFCURVE",
"367 -16 CURVE SMOOTH",
"423 -16 OFFCURVE",
"476 -8 OFFCURVE",
"521 8 CURVE",
"538 673 LINE",
"489 697 OFFCURVE",
"431 706 OFFCURVE",
"367 706 CURVE SMOOTH"
);
},
{
closed = 1;
nodes = (
"148 568 OFFCURVE",
"227 694 OFFCURVE",
"367 694 CURVE SMOOTH",
"429 694 OFFCURVE",
"479 673 OFFCURVE",
"516 625 CURVE",
"502 53 LINE",
"467 18 OFFCURVE",
"422 -3 OFFCURVE",
"367 -3 CURVE SMOOTH",
"227 -3 OFFCURVE",
"148 123 OFFCURVE",
"148 345 CURVE SMOOTH"
);
}
);
};
layerId = UUID0;
paths = (
{
closed = 1;
nodes = (
"190 706 OFFCURVE",
"52 548 OFFCURVE",
"52 345 CURVE SMOOTH",
"52 142 OFFCURVE",
"190 -16 OFFCURVE",
"367 -16 CURVE SMOOTH",
"412 -16 OFFCURVE",
"456 -10 OFFCURVE",
"495 0 CURVE",
"902 0 LINE",
"927 210 LINE",
"916 211 LINE",
"850 49 LINE SMOOTH",
"838 19 OFFCURVE",
"827 12 OFFCURVE",
"795 12 CURVE SMOOTH",
"571 12 LINE",
"571 355 LINE",
"719 355 LINE SMOOTH",
"751 355 OFFCURVE",
"761 347 OFFCURVE",
"767 316 CURVE SMOOTH",
"784 235 LINE",
"796 235 LINE",
"796 491 LINE",
"784 491 LINE",
"767 410 LINE SMOOTH",
"761 379 OFFCURVE",
"751 371 OFFCURVE",
"719 371 CURVE SMOOTH",
"571 371 LINE",
"571 678 LINE",
"797 678 LINE SMOOTH",
"829 678 OFFCURVE",
"839 671 OFFCURVE",
"851 641 CURVE SMOOTH",
"907 501 LINE",
"917 502 LINE",
"903 690 LINE",
"494 690 LINE",
"461 700 OFFCURVE",
"416 706 OFFCURVE",
"367 706 CURVE SMOOTH"
);
},
{
closed = 1;
nodes = (
"148 568 OFFCURVE",
"227 694 OFFCURVE",
"367 694 CURVE SMOOTH",
"417 694 OFFCURVE",
"460 680 OFFCURVE",
"494 649 CURVE",
"494 41 LINE",
"456 12 OFFCURVE",
"413 -3 OFFCURVE",
"367 -3 CURVE SMOOTH",
"227 -3 OFFCURVE",
"148 123 OFFCURVE",
"148 345 CURVE SMOOTH"
);
}
);
width = 985;
}
);
leftKerningGroup = O;
rightKerningGroup = E;
unicode = 0152;
},
{
glyphname = P;
layers = (
{
background = {
paths = (
{
closed = 1;
nodes = (
"122 16 LINE",
"122 674 LINE",
"40 682 LINE",
"40 690 LINE",
"199 690 LINE",
"199 16 LINE",
"297 8 LINE",
"297 0 LINE",
"40 0 LINE",
"40 8 LINE"
);
},
{
closed = 1;
nodes = (
"165 690 LINE",
"293 690 LINE SMOOTH",
"450 690 OFFCURVE",
"535 620 OFFCURVE",
"535 499 CURVE SMOOTH",
"535 369 OFFCURVE",
"450 300 OFFCURVE",
"293 300 CURVE SMOOTH",
"165 300 LINE",
"165 312 LINE",
"290 312 LINE SMOOTH",
"398 312 OFFCURVE",
"445 371 OFFCURVE",
"445 504 CURVE SMOOTH",
"445 602 OFFCURVE",
"416 678 OFFCURVE",
"290 678 CURVE SMOOTH",
"165 678 LINE"
);
}
);
};
layerId = UUID0;
paths = (
{
closed = 1;
nodes = (
"122 16 LINE",
"122 674 LINE",
"40 682 LINE",
"40 690 LINE",
"199 690 LINE",
"199 16 LINE",
"297 8 LINE",
"297 0 LINE",
"40 0 LINE",
"40 8 LINE"
);
},
{
closed = 1;
nodes = (
"165 690 LINE",
"293 690 LINE SMOOTH",
"450 690 OFFCURVE",
"535 620 OFFCURVE",
"535 499 CURVE SMOOTH",
"535 369 OFFCURVE",
"450 300 OFFCURVE",
"293 300 CURVE SMOOTH",
"165 300 LINE",
"165 312 LINE",
"290 312 LINE SMOOTH",
"398 312 OFFCURVE",
"445 371 OFFCURVE",
"445 504 CURVE SMOOTH",
"445 602 OFFCURVE",
"416 678 OFFCURVE",
"290 678 CURVE SMOOTH",
"165 678 LINE"
);
}
);
width = 568;
}
);
leftKerningGroup = I;
unicode = 0050;
},
{
glyphname = Thorn;
layers = (
{
background = {
paths = (
{
closed = 1;
nodes = (
"165 549 LINE",
"293 549 LINE SMOOTH",
"450 549 OFFCURVE",
"535 479 OFFCURVE",
"535 358 CURVE SMOOTH",
"535 228 OFFCURVE",
"450 159 OFFCURVE",
"293 159 CURVE SMOOTH",
"165 159 LINE",
"165 171 LINE",
"290 171 LINE SMOOTH",
"398 171 OFFCURVE",
"445 230 OFFCURVE",
"445 363 CURVE SMOOTH",
"445 461 OFFCURVE",
"416 537 OFFCURVE",
"290 537 CURVE SMOOTH",
"165 537 LINE"
);
},
{
closed = 1;
nodes = (
"122 16 LINE",
"122 674 LINE",
"40 682 LINE",
"40 690 LINE",
"297 690 LINE",
"297 682 LINE",
"199 674 LINE",
"199 16 LINE",
"297 8 LINE",
"297 0 LINE",
"40 0 LINE",
"40 8 LINE"
);
}
);
};
layerId = UUID0;
paths = (
{
closed = 1;
nodes = (
"165 549 LINE",
"293 549 LINE SMOOTH",
"450 549 OFFCURVE",
"535 479 OFFCURVE",
"535 358 CURVE SMOOTH",
"535 228 OFFCURVE",
"450 159 OFFCURVE",
"293 159 CURVE SMOOTH",
"165 159 LINE",
"165 171 LINE",
"290 171 LINE SMOOTH",
"398 171 OFFCURVE",
"445 230 OFFCURVE",
"445 363 CURVE SMOOTH",
"445 461 OFFCURVE",
"416 537 OFFCURVE",
"290 537 CURVE SMOOTH",
"165 537 LINE"
);
},
{
closed = 1;
nodes = (
"122 16 LINE",
"122 674 LINE",
"40 682 LINE",
"40 690 LINE",
"297 690 LINE",
"297 682 LINE",
"199 674 LINE",
"199 16 LINE",
"297 8 LINE",
"297 0 LINE",
"40 0 LINE",
"40 8 LINE"
);
}
);
width = 571;
}
);
leftKerningGroup = I;
unicode = 00DE;
},
{
glyphname = Q;
layers = (
{
background = {
paths = (
{
closed = 1;
nodes = (
"544 706 OFFCURVE",
"682 548 OFFCURVE",
"682 345 CURVE SMOOTH",
"682 142 OFFCURVE",
"544 -16 OFFCURVE",
"367 -16 CURVE SMOOTH",
"190 -16 OFFCURVE",
"52 142 OFFCURVE",
"52 345 CURVE SMOOTH",
"52 548 OFFCURVE",
"190 706 OFFCURVE",
"367 706 CURVE SMOOTH"
);
},
{
closed = 1;
nodes = (
"148 122 OFFCURVE",
"227 -4 OFFCURVE",
"367 -4 CURVE SMOOTH",
"507 -4 OFFCURVE",
"586 122 OFFCURVE",
"586 345 CURVE SMOOTH",
"586 568 OFFCURVE",
"507 694 OFFCURVE",
"367 694 CURVE SMOOTH",
"227 694 OFFCURVE",
"148 568 OFFCURVE",
"148 345 CURVE SMOOTH"
);
},
{
closed = 1;
nodes = (
"403 -8 LINE",
"475 -33 OFFCURVE",
"545 -88 OFFCURVE",
"613 -88 CURVE SMOOTH",
"659 -88 OFFCURVE",
"678 -62 OFFCURVE",
"692 -30 CURVE SMOOTH",
"702 -36 LINE SMOOTH",
"675 -98 OFFCURVE",
"614 -149 OFFCURVE",
"547 -149 CURVE SMOOTH",
"495 -149 OFFCURVE",
"455 -119 OFFCURVE",
"429 -85 CURVE SMOOTH",
"402 -50 OFFCURVE",
"368 -16 OFFCURVE",
"327 -16 CURVE SMOOTH",
"301 -16 OFFCURVE",
"265 -30 OFFCURVE",
"265 -55 CURVE SMOOTH",
"265 -70 OFFCURVE",
"278 -88 OFFCURVE",
"278 -108 CURVE SMOOTH",
"278 -131 OFFCURVE",
"260 -150 OFFCURVE",
"236 -150 CURVE SMOOTH",
"213 -150 OFFCURVE",
"197 -132 OFFCURVE",
"197 -106 CURVE SMOOTH",
"197 -62 OFFCURVE",
"243 -29 OFFCURVE",
"299 -8 CURVE"
);
}
);
};
layerId = UUID0;
paths = (
{
closed = 1;
nodes = (
"544 706 OFFCURVE",
"682 548 OFFCURVE",
"682 345 CURVE SMOOTH",
"682 142 OFFCURVE",
"544 -16 OFFCURVE",
"367 -16 CURVE SMOOTH",
"190 -16 OFFCURVE",
"52 142 OFFCURVE",
"52 345 CURVE SMOOTH",
"52 548 OFFCURVE",
"190 706 OFFCURVE",
"367 706 CURVE SMOOTH"
);
},
{
closed = 1;
nodes = (
"148 122 OFFCURVE",
"227 -4 OFFCURVE",
"367 -4 CURVE SMOOTH",
"507 -4 OFFCURVE",
"586 122 OFFCURVE",
"586 345 CURVE SMOOTH",
"586 568 OFFCURVE",
"507 694 OFFCURVE",
"367 694 CURVE SMOOTH",
"227 694 OFFCURVE",
"148 568 OFFCURVE",
"148 345 CURVE SMOOTH"
);
},
{
closed = 1;
nodes = (
"403 -8 LINE",
"475 -33 OFFCURVE",
"545 -88 OFFCURVE",
"613 -88 CURVE SMOOTH",
"659 -88 OFFCURVE",
"678 -62 OFFCURVE",
"692 -30 CURVE SMOOTH",
"702 -36 LINE SMOOTH",
"675 -98 OFFCURVE",
"614 -149 OFFCURVE",
"547 -149 CURVE SMOOTH",
"495 -149 OFFCURVE",
"455 -119 OFFCURVE",
"429 -85 CURVE SMOOTH",
"402 -50 OFFCURVE",
"368 -16 OFFCURVE",
"327 -16 CURVE SMOOTH",
"301 -16 OFFCURVE",
"265 -30 OFFCURVE",
"265 -55 CURVE SMOOTH",
"265 -70 OFFCURVE",
"278 -88 OFFCURVE",
"278 -108 CURVE SMOOTH",
"278 -131 OFFCURVE",
"260 -150 OFFCURVE",
"236 -150 CURVE SMOOTH",
"213 -150 OFFCURVE",
"197 -132 OFFCURVE",
"197 -106 CURVE SMOOTH",
"197 -62 OFFCURVE",
"243 -29 OFFCURVE",
"299 -8 CURVE"
);
}
);
width = 734;
}
);
leftKerningGroup = O;
rightKerningGroup = O;
unicode = 0051;
},
{
glyphname = R;
layers = (
{
anchors = (
{
name = bottom;
position = "{326, 0}";
},
{
name = top;
position = "{323, 800}";
}
);
background = {
paths = (
{
closed = 1;
nodes = (
"178 328 LINE",
"388 328 LINE",
"571 42 LINE SMOOTH",
"588 15 OFFCURVE",
"601 8 OFFCURVE",
"633 8 CURVE SMOOTH",
"647 8 LINE",
"647 0 LINE",
"544 0 LINE SMOOTH",
"512 0 OFFCURVE",
"500 7 OFFCURVE",
"483 34 CURVE SMOOTH",
"330 281 LINE SMOOTH",
"311 311 OFFCURVE",
"306 315 OFFCURVE",
"273 315 CURVE SMOOTH",
"178 315 LINE"
);
},
{
closed = 1;
nodes = (
"122 16 LINE",
"122 674 LINE",
"40 682 LINE",
"40 690 LINE",
"199 690 LINE",
"199 16 LINE",
"286 8 LINE",
"286 0 LINE",
"40 0 LINE",
"40 8 LINE"
);
},
{
closed = 1;
nodes = (
"165 690 LINE",
"293 690 LINE SMOOTH",
"450 690 OFFCURVE",
"535 625 OFFCURVE",
"535 505 CURVE SMOOTH",
"535 385 OFFCURVE",
"449 318 OFFCURVE",
"293 318 CURVE SMOOTH",
"165 318 LINE",
"165 330 LINE",
"290 330 LINE SMOOTH",
"397 330 OFFCURVE",
"447 386 OFFCURVE",
"447 503 CURVE SMOOTH",
"447 621 OFFCURVE",
"396 678 OFFCURVE",
"290 678 CURVE SMOOTH",
"165 678 LINE"
);
}
);
};
layerId = UUID0;
paths = (
{
closed = 1;
nodes = (
"178 328 LINE",
"388 328 LINE",
"571 42 LINE SMOOTH",
"588 15 OFFCURVE",
"601 8 OFFCURVE",
"633 8 CURVE SMOOTH",
"647 8 LINE",
"647 0 LINE",
"544 0 LINE SMOOTH",
"512 0 OFFCURVE",
"500 7 OFFCURVE",
"483 34 CURVE SMOOTH",
"330 281 LINE SMOOTH",
"311 311 OFFCURVE",
"306 315 OFFCURVE",
"273 315 CURVE SMOOTH",
"178 315 LINE"
);
},
{
closed = 1;
nodes = (
"122 16 LINE",
"122 674 LINE",
"40 682 LINE",
"40 690 LINE",
"199 690 LINE",
"199 16 LINE",
"286 8 LINE",
"286 0 LINE",
"40 0 LINE",
"40 8 LINE"
);
},
{
closed = 1;
nodes = (
"165 690 LINE",
"293 690 LINE SMOOTH",
"450 690 OFFCURVE",
"535 625 OFFCURVE",
"535 505 CURVE SMOOTH",
"535 385 OFFCURVE",
"449 318 OFFCURVE",
"293 318 CURVE SMOOTH",
"165 318 LINE",
"165 330 LINE",
"290 330 LINE SMOOTH",
"397 330 OFFCURVE",
"447 386 OFFCURVE",
"447 503 CURVE SMOOTH",
"447 621 OFFCURVE",
"396 678 OFFCURVE",
"290 678 CURVE SMOOTH",
"165 678 LINE"
);
}
);
width = 614;
}
);
leftKerningGroup = I;
rightKerningGroup = R;
unicode = 0052;
},
{
glyphname = S;
layers = (
{
anchors = (
{
name = bottom;
position = "{276, 0}";
},
{
name = top;
position = "{278, 800}";
}
);
background = {
paths = (
{
closed = 1;
nodes = (
"214 -16 OFFCURVE",
"152 4 OFFCURVE",
"110 39 CURVE",
"89 -16 LINE",
"76 -16 LINE",
"63 223 LINE",
"72 225 LINE",
"92 135 OFFCURVE",
"110 90 OFFCURVE",
"143 53 CURVE SMOOTH",
"177 15 OFFCURVE",
"221 -4 OFFCURVE",
"278 -4 CURVE SMOOTH",
"375 -4 OFFCURVE",
"431 50 OFFCURVE",
"431 135 CURVE SMOOTH",
"431 230 OFFCURVE",
"359 266 OFFCURVE",
"247 315 CURVE SMOOTH",
"159 353 OFFCURVE",
"69 400 OFFCURVE",
"69 515 CURVE SMOOTH",
"69 626 OFFCURVE",
"155 706 OFFCURVE",
"274 706 CURVE SMOOTH",
"328 706 OFFCURVE",
"372 689 OFFCURVE",
"427 646 CURVE",
"451 694 LINE",
"464 694 LINE",
"474 476 LINE",
"464 473 LINE",
"452 522 OFFCURVE",
"437 562 OFFCURVE",
"423 591 CURVE SMOOTH",
"392 655 OFFCURVE",
"342 694 OFFCURVE",
"270 694 CURVE SMOOTH",
"187 694 OFFCURVE",
"134 643 OFFCURVE",
"134 562 CURVE SMOOTH",
"134 471 OFFCURVE",
"201 435 OFFCURVE",
"315 383 CURVE SMOOTH",
"414 338 OFFCURVE",
"493 295 OFFCURVE",
"493 185 CURVE SMOOTH",
"493 68 OFFCURVE",
"402 -16 OFFCURVE",
"276 -16 CURVE SMOOTH"
);
}
);
};
layerId = UUID0;
paths = (
{
closed = 1;
nodes = (
"214 -16 OFFCURVE",
"152 4 OFFCURVE",
"110 39 CURVE",
"89 -16 LINE",
"76 -16 LINE",
"63 223 LINE",
"72 225 LINE",
"92 135 OFFCURVE",
"110 90 OFFCURVE",
"143 53 CURVE SMOOTH",
"177 15 OFFCURVE",
"221 -4 OFFCURVE",
"278 -4 CURVE SMOOTH",
"375 -4 OFFCURVE",
"431 50 OFFCURVE",
"431 135 CURVE SMOOTH",
"431 230 OFFCURVE",
"359 266 OFFCURVE",
"247 315 CURVE SMOOTH",
"159 353 OFFCURVE",
"69 400 OFFCURVE",
"69 515 CURVE SMOOTH",
"69 626 OFFCURVE",
"155 706 OFFCURVE",
"274 706 CURVE SMOOTH",
"328 706 OFFCURVE",
"372 689 OFFCURVE",
"427 646 CURVE",
"451 694 LINE",
"464 694 LINE",
"474 476 LINE",
"464 473 LINE",
"452 522 OFFCURVE",
"437 562 OFFCURVE",
"423 591 CURVE SMOOTH",
"392 655 OFFCURVE",
"342 694 OFFCURVE",
"270 694 CURVE SMOOTH",
"187 694 OFFCURVE",
"134 643 OFFCURVE",
"134 562 CURVE SMOOTH",
"134 471 OFFCURVE",
"201 435 OFFCURVE",
"315 383 CURVE SMOOTH",
"414 338 OFFCURVE",
"493 295 OFFCURVE",
"493 185 CURVE SMOOTH",
"493 68 OFFCURVE",
"402 -16 OFFCURVE",
"276 -16 CURVE SMOOTH"
);
}
);
width = 551;
}
);
leftKerningGroup = S;
rightKerningGroup = S;
unicode = 0053;
},
{
glyphname = Schwa;
layers = (
{
background = {
paths = (
{
closed = 1;
nodes = (
"49 247 LINE",
"52 74 OFFCURVE",
"130 -16 OFFCURVE",
"274 -16 CURVE SMOOTH",
"468 -16 OFFCURVE",
"598 131 OFFCURVE",
"598 349 CURVE SMOOTH",
"598 561 OFFCURVE",
"481 706 OFFCURVE",
"310 706 CURVE SMOOTH",
"192 706 OFFCURVE",
"104 641 OFFCURVE",
"62 527 CURVE SMOOTH",
"55 509 LINE",
"60 507 LINE",
"74 526 LINE SMOOTH",
"132 604 OFFCURVE",
"201 645 OFFCURVE",
"271 645 CURVE SMOOTH",
"417 645 OFFCURVE",
"502 539 OFFCURVE",
"502 325 CURVE SMOOTH",
"502 127 OFFCURVE",
"420 -3 OFFCURVE",
"292 -3 CURVE SMOOTH",
"211 -3 OFFCURVE",
"150 32 OFFCURVE",
"150 166 CURVE SMOOTH",
"150 190 OFFCURVE",
"151 217 OFFCURVE",
"155 230 CURVE",
"512 242 LINE",
"512 255 LINE",
"59 255 LINE"
);
}
);
};
hints = (
{
place = "{45, 68}";
},
{
place = "{314, 78}";
},
{
horizontal = 1;
place = "{-10, 48}";
},
{
horizontal = 1;
place = "{267, 167}";
}
);
layerId = UUID0;
paths = (
{
closed = 1;
nodes = (
"49 247 LINE",
"52 74 OFFCURVE",
"130 -16 OFFCURVE",
"274 -16 CURVE SMOOTH",
"468 -16 OFFCURVE",
"598 131 OFFCURVE",
"598 349 CURVE SMOOTH",
"598 561 OFFCURVE",
"481 706 OFFCURVE",
"310 706 CURVE SMOOTH",
"192 706 OFFCURVE",
"104 641 OFFCURVE",
"62 527 CURVE SMOOTH",
"55 509 LINE",
"60 507 LINE",
"74 526 LINE SMOOTH",
"132 604 OFFCURVE",
"201 645 OFFCURVE",
"271 645 CURVE SMOOTH",
"417 645 OFFCURVE",
"502 539 OFFCURVE",
"502 325 CURVE SMOOTH",
"502 127 OFFCURVE",
"420 -3 OFFCURVE",
"292 -3 CURVE SMOOTH",
"211 -3 OFFCURVE",
"150 32 OFFCURVE",
"150 166 CURVE SMOOTH",
"150 190 OFFCURVE",
"151 217 OFFCURVE",
"155 230 CURVE",
"512 242 LINE",
"512 255 LINE",
"59 255 LINE"
);
}
);
width = 652;
}
);
rightKerningGroup = O;
unicode = 018F;
},
{
glyphname = T;
layers = (
{
anchors = (
{
name = bottom;
position = "{328, 0}";
},
{
name = top;
position = "{326, 800}";
}
);
background = {
paths = (
{
closed = 1;
nodes = (
"157 679 LINE SMOOTH",
"125 679 OFFCURVE",
"114 671 OFFCURVE",
"101 641 CURVE SMOOTH",
"32 487 LINE",
"24 489 LINE",
"63 706 LINE",
"69 706 LINE",
"99 693 OFFCURVE",
"114 690 OFFCURVE",
"146 690 CURVE SMOOTH",
"531 690 LINE SMOOTH",
"563 690 OFFCURVE",
"578 693 OFFCURVE",
"608 706 CURVE",
"614 706 LINE",
"636 489 LINE",
"628 487 LINE",
"566 641 LINE SMOOTH",
"554 671 OFFCURVE",
"544 679 OFFCURVE",
"512 679 CURVE SMOOTH",
"366 679 LINE",
"366 16 LINE",
"474 8 LINE",
"474 0 LINE",
"181 0 LINE",
"181 8 LINE",
"289 16 LINE",
"289 679 LINE"
);
}
);
};
layerId = UUID0;
paths = (
{
closed = 1;
nodes = (
"157 679 LINE SMOOTH",
"125 679 OFFCURVE",
"114 671 OFFCURVE",
"101 641 CURVE SMOOTH",
"32 487 LINE",
"24 489 LINE",
"63 706 LINE",
"69 706 LINE",
"99 693 OFFCURVE",
"114 690 OFFCURVE",
"146 690 CURVE SMOOTH",
"531 690 LINE SMOOTH",
"563 690 OFFCURVE",
"578 693 OFFCURVE",
"608 706 CURVE",
"614 706 LINE",
"636 489 LINE",
"628 487 LINE",
"566 641 LINE SMOOTH",
"554 671 OFFCURVE",
"544 679 OFFCURVE",
"512 679 CURVE SMOOTH",
"366 679 LINE",
"366 16 LINE",
"474 8 LINE",
"474 0 LINE",
"181 0 LINE",
"181 8 LINE",
"289 16 LINE",
"289 679 LINE"
);
}
);
width = 665;
}
);
leftKerningGroup = T;
rightKerningGroup = T;
unicode = 0054;
},
{
glyphname = Tbar;
layers = (
{
background = {
paths = (
{
closed = 1;
nodes = (
"152 418 LINE",
"502 418 LINE",
"502 401 LINE",
"152 401 LINE"
);
}
);
};
components = (
{
name = T;
}
);
layerId = UUID0;
paths = (
{
closed = 1;
nodes = (
"152 418 LINE",
"502 418 LINE",
"502 401 LINE",
"152 401 LINE"
);
}
);
width = 663;
}
);
leftKerningGroup = T;
rightKerningGroup = T;
unicode = 0166;
},
{
glyphname = U;
layers = (
{
anchors = (
{
name = top;
position = "{342, 800}";
}
);
background = {
paths = (
{
closed = 1;
nodes = (
"536 240 LINE",
"536 159 OFFCURVE",
"526 114 OFFCURVE",
"501 77 CURVE SMOOTH",
"467 28 OFFCURVE",
"409 0 OFFCURVE",
"342 0 CURVE SMOOTH",
"306 0 OFFCURVE",
"271 8 OFFCURVE",
"248 22 CURVE SMOOTH",
"206 47 OFFCURVE",
"189 95 OFFCURVE",
"189 192 CURVE SMOOTH",
"189 674 LINE",
"276 682 LINE",
"276 690 LINE",
"30 690 LINE",
"30 682 LINE",
"112 674 LINE",
"112 225 LINE SMOOTH",
"112 126 OFFCURVE",
"128 76 OFFCURVE",
"169 40 CURVE SMOOTH",
"209 5 OFFCURVE",
"274 -16 OFFCURVE",
"335 -16 CURVE SMOOTH",
"411 -16 OFFCURVE",
"477 16 OFFCURVE",
"513 68 CURVE SMOOTH",
"540 108 OFFCURVE",
"552 161 OFFCURVE",
"552 245 CURVE SMOOTH",
"552 629 LINE SMOOTH",
"552 661 OFFCURVE",
"558 670 OFFCURVE",
"582 674 CURVE SMOOTH",
"654 682 LINE",
"654 690 LINE",
"435 690 LINE",
"435 682 LINE",
"506 674 LINE SMOOTH",
"530 670 OFFCURVE",
"536 661 OFFCURVE",
"536 629 CURVE SMOOTH"
);
}
);
};
layerId = UUID0;
paths = (
{
closed = 1;
nodes = (
"536 240 LINE",
"536 159 OFFCURVE",
"526 114 OFFCURVE",
"501 77 CURVE SMOOTH",
"467 28 OFFCURVE",
"409 0 OFFCURVE",
"342 0 CURVE SMOOTH",
"306 0 OFFCURVE",
"271 8 OFFCURVE",
"248 22 CURVE SMOOTH",
"206 47 OFFCURVE",
"189 95 OFFCURVE",
"189 192 CURVE SMOOTH",
"189 674 LINE",
"276 682 LINE",
"276 690 LINE",
"30 690 LINE",
"30 682 LINE",
"112 674 LINE",
"112 225 LINE SMOOTH",
"112 126 OFFCURVE",
"128 76 OFFCURVE",
"169 40 CURVE SMOOTH",
"209 5 OFFCURVE",
"274 -16 OFFCURVE",
"335 -16 CURVE SMOOTH",
"411 -16 OFFCURVE",
"477 16 OFFCURVE",
"513 68 CURVE SMOOTH",
"540 108 OFFCURVE",
"552 161 OFFCURVE",
"552 245 CURVE SMOOTH",
"552 629 LINE SMOOTH",
"552 661 OFFCURVE",
"558 670 OFFCURVE",
"582 674 CURVE SMOOTH",
"654 682 LINE",
"654 690 LINE",
"435 690 LINE",
"435 682 LINE",
"506 674 LINE SMOOTH",
"530 670 OFFCURVE",
"536 661 OFFCURVE",
"536 629 CURVE SMOOTH"
);
}
);
width = 665;
}
);
leftKerningGroup = U;
rightKerningGroup = U;
unicode = 0055;
},
{
glyphname = V;
layers = (
{
background = {
paths = (
{
closed = 1;
nodes = (
"480 682 LINE",
"480 690 LINE",
"693 690 LINE",
"693 682 LINE",
"637 677 LINE SMOOTH",
"603 674 OFFCURVE",
"594 667 OFFCURVE",
"583 637 CURVE SMOOTH",
"338 -16 LINE",
"320 -16 LINE",
"67 674 LINE",
"-15 682 LINE",
"-15 690 LINE",
"235 690 LINE",
"235 682 LINE",
"148 674 LINE",
"360 95 LINE",
"364 95 LINE",
"567 637 LINE SMOOTH",
"571 647 OFFCURVE",
"571 651 OFFCURVE",
"571 656 CURVE SMOOTH",
"571 669 OFFCURVE",
"563 675 OFFCURVE",
"541 677 CURVE SMOOTH"
);
}
);
};
layerId = UUID0;
paths = (
{
closed = 1;
nodes = (
"480 682 LINE",
"480 690 LINE",
"693 690 LINE",
"693 682 LINE",
"637 677 LINE SMOOTH",
"603 674 OFFCURVE",
"594 667 OFFCURVE",
"583 637 CURVE SMOOTH",
"338 -16 LINE",
"320 -16 LINE",
"67 674 LINE",
"-15 682 LINE",
"-15 690 LINE",
"235 690 LINE",
"235 682 LINE",
"148 674 LINE",
"360 95 LINE",
"364 95 LINE",
"567 637 LINE SMOOTH",
"571 647 OFFCURVE",
"571 651 OFFCURVE",
"571 656 CURVE SMOOTH",
"571 669 OFFCURVE",
"563 675 OFFCURVE",
"541 677 CURVE SMOOTH"
);
}
);
width = 658;
}
);
unicode = 0056;
},
{
glyphname = W;
layers = (
{
anchors = (
{
name = top;
position = "{457, 800}";
}
);
background = {
paths = (
{
closed = 1;
nodes = (
"496 565 LINE",
"319 -16 LINE",
"303 -16 LINE",
"60 674 LINE",
"-22 682 LINE",
"-22 690 LINE",
"228 690 LINE",
"228 682 LINE",
"141 674 LINE",
"338 112 LINE",
"342 112 LINE",
"480 565 LINE"
);
},
{
closed = 1;
nodes = (
"758 682 LINE",
"758 690 LINE",
"971 690 LINE",
"971 682 LINE",
"915 677 LINE SMOOTH",
"879 674 OFFCURVE",
"870 667 OFFCURVE",
"861 637 CURVE SMOOTH",
"662 -16 LINE",
"646 -16 LINE",
"403 674 LINE",
"321 682 LINE",
"321 690 LINE",
"571 690 LINE",
"571 682 LINE",
"484 674 LINE",
"681 112 LINE",
"685 112 LINE",
"845 637 LINE SMOOTH",
"847 644 OFFCURVE",
"848 650 OFFCURVE",
"848 656 CURVE SMOOTH",
"848 670 OFFCURVE",
"842 675 OFFCURVE",
"819 677 CURVE SMOOTH"
);
}
);
};
layerId = UUID0;
paths = (
{
closed = 1;
nodes = (
"496 565 LINE",
"319 -16 LINE",
"303 -16 LINE",
"60 674 LINE",
"-22 682 LINE",
"-22 690 LINE",
"228 690 LINE",
"228 682 LINE",
"141 674 LINE",
"338 112 LINE",
"342 112 LINE",
"480 565 LINE"
);
},
{
closed = 1;
nodes = (
"758 682 LINE",
"758 690 LINE",
"971 690 LINE",
"971 682 LINE",
"915 677 LINE SMOOTH",
"879 674 OFFCURVE",
"870 667 OFFCURVE",
"861 637 CURVE SMOOTH",
"662 -16 LINE",
"646 -16 LINE",
"403 674 LINE",
"321 682 LINE",
"321 690 LINE",
"571 690 LINE",
"571 682 LINE",
"484 674 LINE",
"681 112 LINE",
"685 112 LINE",
"845 637 LINE SMOOTH",
"847 644 OFFCURVE",
"848 650 OFFCURVE",
"848 656 CURVE SMOOTH",
"848 670 OFFCURVE",
"842 675 OFFCURVE",
"819 677 CURVE SMOOTH"
);
}
);
width = 945;
}
);
leftKerningGroup = W;
rightKerningGroup = W;
unicode = 0057;
},
{
glyphname = X;
layers = (
{
background = {
paths = (
{
closed = 1;
nodes = (
"93 674 LINE",
"11 682 LINE",
"11 690 LINE",
"266 690 LINE",
"266 682 LINE",
"179 674 LINE",
"632 16 LINE",
"714 8 LINE",
"714 0 LINE",
"459 0 LINE",
"459 8 LINE",
"546 16 LINE"
);
},
{
closed = 1;
nodes = (
"205 8 LINE",
"205 0 LINE",
"1 0 LINE",
"1 8 LINE",
"52 12 LINE SMOOTH",
"84 15 OFFCURVE",
"97 22 OFFCURVE",
"116 48 CURVE SMOOTH",
"332 340 LINE",
"348 340 LINE",
"132 48 LINE SMOOTH",
"124 37 OFFCURVE",
"120 30 OFFCURVE",
"120 25 CURVE SMOOTH",
"120 18 OFFCURVE",
"129 15 OFFCURVE",
"148 13 CURVE"
);
},
{
closed = 1;
nodes = (
"500 682 LINE",
"500 690 LINE",
"704 690 LINE",
"704 682 LINE",
"653 678 LINE SMOOTH",
"621 675 OFFCURVE",
"608 668 OFFCURVE",
"589 642 CURVE SMOOTH",
"373 350 LINE",
"357 350 LINE",
"573 642 LINE SMOOTH",
"581 653 OFFCURVE",
"585 660 OFFCURVE",
"585 665 CURVE SMOOTH",
"585 672 OFFCURVE",
"576 675 OFFCURVE",
"557 677 CURVE"
);
}
);
};
layerId = UUID0;
paths = (
{
closed = 1;
nodes = (
"93 674 LINE",
"11 682 LINE",
"11 690 LINE",
"266 690 LINE",
"266 682 LINE",
"179 674 LINE",
"632 16 LINE",
"714 8 LINE",
"714 0 LINE",
"459 0 LINE",
"459 8 LINE",
"546 16 LINE"
);
},
{
closed = 1;
nodes = (
"205 8 LINE",
"205 0 LINE",
"1 0 LINE",
"1 8 LINE",
"52 12 LINE SMOOTH",
"84 15 OFFCURVE",
"97 22 OFFCURVE",
"116 48 CURVE SMOOTH",
"332 340 LINE",
"348 340 LINE",
"132 48 LINE SMOOTH",
"124 37 OFFCURVE",
"120 30 OFFCURVE",
"120 25 CURVE SMOOTH",
"120 18 OFFCURVE",
"129 15 OFFCURVE",
"148 13 CURVE"
);
},
{
closed = 1;
nodes = (
"500 682 LINE",
"500 690 LINE",
"704 690 LINE",
"704 682 LINE",
"653 678 LINE SMOOTH",
"621 675 OFFCURVE",
"608 668 OFFCURVE",
"589 642 CURVE SMOOTH",
"373 350 LINE",
"357 350 LINE",
"573 642 LINE SMOOTH",
"581 653 OFFCURVE",
"585 660 OFFCURVE",
"585 665 CURVE SMOOTH",
"585 672 OFFCURVE",
"576 675 OFFCURVE",
"557 677 CURVE"
);
}
);
width = 715;
}
);
unicode = 0058;
},
{
glyphname = Y;
layers = (
{
anchors = (
{
name = top;
position = "{313, 800}";
}
);
background = {
paths = (
{
closed = 1;
nodes = (
"421 682 LINE",
"421 690 LINE",
"634 690 LINE",
"634 682 LINE",
"578 677 LINE SMOOTH",
"544 674 OFFCURVE",
"538 666 OFFCURVE",
"524 637 CURVE SMOOTH",
"321 213 LINE",
"303 213 LINE",
"56 674 LINE",
"-26 682 LINE",
"-26 690 LINE",
"223 690 LINE",
"223 682 LINE",
"136 674 LINE",
"339 295 LINE",
"344 295 LINE",
"508 637 LINE SMOOTH",
"512 646 OFFCURVE",
"512 651 OFFCURVE",
"512 656 CURVE SMOOTH",
"512 669 OFFCURVE",
"504 675 OFFCURVE",
"482 677 CURVE SMOOTH"
);
},
{
closed = 1;
nodes = (
"350 280 LINE",
"350 16 LINE",
"437 8 LINE",
"437 0 LINE",
"186 0 LINE",
"186 8 LINE",
"273 16 LINE",
"273 280 LINE"
);
}
);
};
layerId = UUID0;
paths = (
{
closed = 1;
nodes = (
"421 682 LINE",
"421 690 LINE",
"634 690 LINE",
"634 682 LINE",
"578 677 LINE SMOOTH",
"544 674 OFFCURVE",
"538 666 OFFCURVE",
"524 637 CURVE SMOOTH",
"321 213 LINE",
"303 213 LINE",
"56 674 LINE",
"-26 682 LINE",
"-26 690 LINE",
"223 690 LINE",
"223 682 LINE",
"136 674 LINE",
"339 295 LINE",
"344 295 LINE",
"508 637 LINE SMOOTH",
"512 646 OFFCURVE",
"512 651 OFFCURVE",
"512 656 CURVE SMOOTH",
"512 669 OFFCURVE",
"504 675 OFFCURVE",
"482 677 CURVE SMOOTH"
);
},
{
closed = 1;
nodes = (
"350 280 LINE",
"350 16 LINE",
"437 8 LINE",
"437 0 LINE",
"186 0 LINE",
"186 8 LINE",
"273 16 LINE",
"273 280 LINE"
);
}
);
width = 612;
}
);
leftKerningGroup = Y;
rightKerningGroup = Y;
unicode = 0059;
},
{
glyphname = Z;
layers = (
{
anchors = (
{
name = bottom;
position = "{291, 0}";
},
{
name = top;
position = "{307, 800}";
}
);
background = {
paths = (
{
closed = 1;
nodes = (
"444 678 LINE",
"203 678 LINE SMOOTH",
"171 678 OFFCURVE",
"159 671 OFFCURVE",
"145 642 CURVE SMOOTH",
"69 491 LINE",
"55 493 LINE",
"96 690 LINE",
"534 690 LINE",
"534 682 LINE",
"125 16 LINE",
"125 12 LINE",
"399 12 LINE SMOOTH",
"431 12 OFFCURVE",
"442 19 OFFCURVE",
"455 49 CURVE SMOOTH",
"527 217 LINE",
"541 215 LINE",
"504 0 LINE",
"35 0 LINE",
"35 8 LINE",
"444 674 LINE"
);
}
);
};
layerId = UUID0;
paths = (
{
closed = 1;
nodes = (
"444 678 LINE",
"203 678 LINE SMOOTH",
"171 678 OFFCURVE",
"159 671 OFFCURVE",
"145 642 CURVE SMOOTH",
"69 491 LINE",
"55 493 LINE",
"96 690 LINE",
"534 690 LINE",
"534 682 LINE",
"125 16 LINE",
"125 12 LINE",
"399 12 LINE SMOOTH",
"431 12 OFFCURVE",
"442 19 OFFCURVE",
"455 49 CURVE SMOOTH",
"527 217 LINE",
"541 215 LINE",
"504 0 LINE",
"35 0 LINE",
"35 8 LINE",
"444 674 LINE"
);
}
);
width = 587;
}
);
leftKerningGroup = Z;
rightKerningGroup = Z;
unicode = 005A;
},
{
glyphname = L.short;
layers = (
{
background = {
paths = (
{
closed = 1;
nodes = (
"40 682 LINE",
"40 690 LINE",
"286 690 LINE",
"286 682 LINE",
"199 674 LINE",
"199 14 LINE",
"381 14 LINE SMOOTH",
"413 14 OFFCURVE",
"424 21 OFFCURVE",
"436 51 CURVE SMOOTH",
"502 220 LINE",
"513 218 LINE",
"485 0 LINE",
"40 0 LINE",
"40 8 LINE",
"122 16 LINE",
"122 674 LINE"
);
}
);
};
layerId = UUID0;
paths = (
{
closed = 1;
nodes = (
"40 682 LINE",
"40 690 LINE",
"286 690 LINE",
"286 682 LINE",
"199 674 LINE",
"199 14 LINE",
"381 14 LINE SMOOTH",
"413 14 OFFCURVE",
"424 21 OFFCURVE",
"436 51 CURVE SMOOTH",
"502 220 LINE",
"513 218 LINE",
"485 0 LINE",
"40 0 LINE",
"40 8 LINE",
"122 16 LINE",
"122 674 LINE"
);
}
);
width = 543;
}
);
},
{
glyphname = T.short;
layers = (
{
background = {
paths = (
{
closed = 1;
nodes = (
"161 679 LINE SMOOTH",
"129 679 OFFCURVE",
"119 671 OFFCURVE",
"105 641 CURVE SMOOTH",
"34 487 LINE",
"26 489 LINE",
"67 706 LINE",
"73 706 LINE",
"103 693 OFFCURVE",
"118 690 OFFCURVE",
"150 690 CURVE SMOOTH",
"472 690 LINE SMOOTH",
"504 690 OFFCURVE",
"519 693 OFFCURVE",
"549 706 CURVE",
"555 706 LINE",
"579 489 LINE",
"571 487 LINE",
"507 641 LINE SMOOTH",
"495 671 OFFCURVE",
"485 679 OFFCURVE",
"453 679 CURVE SMOOTH",
"354 679 LINE",
"354 16 LINE",
"462 8 LINE",
"462 0 LINE",
"169 0 LINE",
"169 8 LINE",
"277 16 LINE",
"277 679 LINE"
);
}
);
};
layerId = UUID0;
paths = (
{
closed = 1;
nodes = (
"161 679 LINE SMOOTH",
"129 679 OFFCURVE",
"119 671 OFFCURVE",
"105 641 CURVE SMOOTH",
"34 487 LINE",
"26 489 LINE",
"67 706 LINE",
"73 706 LINE",
"103 693 OFFCURVE",
"118 690 OFFCURVE",
"150 690 CURVE SMOOTH",
"472 690 LINE SMOOTH",
"504 690 OFFCURVE",
"519 693 OFFCURVE",
"549 706 CURVE",
"555 706 LINE",
"579 489 LINE",
"571 487 LINE",
"507 641 LINE SMOOTH",
"495 671 OFFCURVE",
"485 679 OFFCURVE",
"453 679 CURVE SMOOTH",
"354 679 LINE",
"354 16 LINE",
"462 8 LINE",
"462 0 LINE",
"169 0 LINE",
"169 8 LINE",
"277 16 LINE",
"277 679 LINE"
);
}
);
width = 611;
}
);
},
{
glyphname = A.ss01;
layers = (
{
background = {
paths = (
{
closed = 1;
nodes = (
"341 706 LINE",
"345 706 LINE",
"592 18 LINE",
"674 8 LINE",
"674 0 LINE",
"429 0 LINE",
"429 8 LINE",
"511 18 LINE",
"276 674 LINE"
);
},
{
closed = 1;
nodes = (
"304 656 LINE",
"92 53 LINE SMOOTH",
"89 45 OFFCURVE",
"88 40 OFFCURVE",
"88 35 CURVE SMOOTH",
"88 21 OFFCURVE",
"96 15 OFFCURVE",
"118 13 CURVE SMOOTH",
"179 8 LINE",
"179 0 LINE",
"-34 0 LINE",
"-34 8 LINE",
"22 13 LINE SMOOTH",
"56 16 OFFCURVE",
"65 22 OFFCURVE",
"76 53 CURVE SMOOTH",
"288 656 LINE"
);
},
{
closed = 1;
nodes = (
"169 290 LINE",
"436 290 LINE",
"436 274 LINE",
"169 274 LINE"
);
}
);
};
layerId = UUID0;
paths = (
{
closed = 1;
nodes = (
"341 706 LINE",
"345 706 LINE",
"592 18 LINE",
"674 8 LINE",
"674 0 LINE",
"429 0 LINE",
"429 8 LINE",
"511 18 LINE",
"276 674 LINE"
);
},
{
closed = 1;
nodes = (
"304 656 LINE",
"92 53 LINE SMOOTH",
"89 45 OFFCURVE",
"88 40 OFFCURVE",
"88 35 CURVE SMOOTH",
"88 21 OFFCURVE",
"96 15 OFFCURVE",
"118 13 CURVE SMOOTH",
"179 8 LINE",
"179 0 LINE",
"-34 0 LINE",
"-34 8 LINE",
"22 13 LINE SMOOTH",
"56 16 OFFCURVE",
"65 22 OFFCURVE",
"76 53 CURVE SMOOTH",
"288 656 LINE"
);
},
{
closed = 1;
nodes = (
"169 290 LINE",
"436 290 LINE",
"436 274 LINE",
"169 274 LINE"
);
}
);
width = 657;
}
);
},
{
glyphname = a;
layers = (
{
anchors = (
{
name = bottom;
position = "{309, 0}";
},
{
name = top;
position = "{190, 530}";
}
);
background = {
paths = (
{
closed = 1;
nodes = (
"171 -7 OFFCURVE",
"214 17 OFFCURVE",
"244 55 CURVE",
"247 54 LINE",
"249 20 OFFCURVE",
"274 -3 OFFCURVE",
"309 -3 CURVE SMOOTH",
"340 -3 OFFCURVE",
"368 16 OFFCURVE",
"384 49 CURVE",
"380 51 LINE",
"372 39 OFFCURVE",
"357 32 OFFCURVE",
"340 32 CURVE SMOOTH",
"316 32 OFFCURVE",
"308 47 OFFCURVE",
"308 95 CURVE SMOOTH",
"308 286 LINE SMOOTH",
"308 358 OFFCURVE",
"307 373 OFFCURVE",
"300 391 CURVE SMOOTH",
"288 418 OFFCURVE",
"261 433 OFFCURVE",
"224 433 CURVE SMOOTH",
"194 433 OFFCURVE",
"160 424 OFFCURVE",
"131 408 CURVE SMOOTH",
"82 382 OFFCURVE",
"47 340 OFFCURVE",
"47 308 CURVE SMOOTH",
"47 287 OFFCURVE",
"61 272 OFFCURVE",
"81 272 CURVE SMOOTH",
"103 272 OFFCURVE",
"117 292 OFFCURVE",
"117 326 CURVE SMOOTH",
"117 335 OFFCURVE",
"116 346 OFFCURVE",
"116 353 CURVE SMOOTH",
"116 390 OFFCURVE",
"144 414 OFFCURVE",
"185 414 CURVE SMOOTH",
"228 414 OFFCURVE",
"243 388 OFFCURVE",
"243 311 CURVE SMOOTH",
"243 220 LINE",
"97 191 OFFCURVE",
"43 155 OFFCURVE",
"43 88 CURVE SMOOTH",
"43 32 OFFCURVE",
"79 -7 OFFCURVE",
"130 -7 CURVE SMOOTH"
);
},
{
closed = 1;
nodes = (
"134 31 OFFCURVE",
"110 60 OFFCURVE",
"110 107 CURVE SMOOTH",
"110 161 OFFCURVE",
"141 184 OFFCURVE",
"243 209 CURVE",
"243 68 LINE",
"227 44 OFFCURVE",
"200 31 OFFCURVE",
"173 31 CURVE SMOOTH"
);
}
);
};
hints = (
{
place = "{43, 74}";
},
{
place = "{243, 65}";
},
{
horizontal = 1;
place = "{-3, 35}";
},
{
horizontal = 1;
place = "{-7, 21}";
target = up;
type = BottomGhost;
},
{
horizontal = 1;
place = "{433, -20}";
target = down;
type = TopGhost;
}
);
layerId = UUID0;
paths = (
{
closed = 1;
nodes = (
"171 -7 OFFCURVE",
"214 17 OFFCURVE",
"244 55 CURVE",
"247 54 LINE",
"249 20 OFFCURVE",
"274 -3 OFFCURVE",
"309 -3 CURVE SMOOTH",
"340 -3 OFFCURVE",
"368 16 OFFCURVE",
"384 49 CURVE",
"380 51 LINE",
"372 39 OFFCURVE",
"357 32 OFFCURVE",
"340 32 CURVE SMOOTH",
"316 32 OFFCURVE",
"308 47 OFFCURVE",
"308 95 CURVE SMOOTH",
"308 286 LINE SMOOTH",
"308 358 OFFCURVE",
"307 373 OFFCURVE",
"300 391 CURVE SMOOTH",
"288 418 OFFCURVE",
"261 433 OFFCURVE",
"224 433 CURVE SMOOTH",
"194 433 OFFCURVE",
"160 424 OFFCURVE",
"131 408 CURVE SMOOTH",
"82 382 OFFCURVE",
"47 340 OFFCURVE",
"47 308 CURVE SMOOTH",
"47 287 OFFCURVE",
"61 272 OFFCURVE",
"81 272 CURVE SMOOTH",
"103 272 OFFCURVE",
"117 292 OFFCURVE",
"117 326 CURVE SMOOTH",
"117 335 OFFCURVE",
"116 346 OFFCURVE",
"116 353 CURVE SMOOTH",
"116 390 OFFCURVE",
"144 414 OFFCURVE",
"185 414 CURVE SMOOTH",
"228 414 OFFCURVE",
"243 388 OFFCURVE",
"243 311 CURVE SMOOTH",
"243 220 LINE",
"97 191 OFFCURVE",
"43 155 OFFCURVE",
"43 88 CURVE SMOOTH",
"43 32 OFFCURVE",
"79 -7 OFFCURVE",
"130 -7 CURVE SMOOTH"
);
},
{
closed = 1;
nodes = (
"134 31 OFFCURVE",
"110 60 OFFCURVE",
"110 107 CURVE SMOOTH",
"110 161 OFFCURVE",
"141 184 OFFCURVE",
"243 209 CURVE",
"243 68 LINE",
"227 44 OFFCURVE",
"200 31 OFFCURVE",
"173 31 CURVE SMOOTH"
);
}
);
width = 391;
}
);
leftKerningGroup = a;
rightKerningGroup = a;
unicode = 0061;
},
{
glyphname = ae;
layers = (
{
background = {
paths = (
{
closed = 1;
nodes = (
"577 272 LINE",
"574 379 OFFCURVE",
"524 434 OFFCURVE",
"430 434 CURVE SMOOTH",
"313 434 OFFCURVE",
"244 352 OFFCURVE",
"244 211 CURVE",
"249 136 LINE SMOOTH",
"254 52 OFFCURVE",
"326 -10 OFFCURVE",
"417 -10 CURVE SMOOTH",
"487 -10 OFFCURVE",
"543 31 OFFCURVE",
"569 101 CURVE SMOOTH",
"573 112 LINE",
"569 114 LINE",
"560 102 LINE SMOOTH",
"530 63 OFFCURVE",
"485 40 OFFCURVE",
"437 40 CURVE SMOOTH",
"355 40 OFFCURVE",
"309 107 OFFCURVE",
"309 228 CURVE SMOOTH",
"309 349 OFFCURVE",
"353 423 OFFCURVE",
"425 423 CURVE SMOOTH",
"474 423 OFFCURVE",
"499 389 OFFCURVE",
"499 324 CURVE SMOOTH",
"499 308 OFFCURVE",
"498 292 OFFCURVE",
"496 285 CURVE",
"303 278 LINE",
"303 267 LINE",
"571 267 LINE"
);
},
{
closed = 1;
nodes = (
"179 -7 OFFCURVE",
"230 26 OFFCURVE",
"266 83 CURVE",
"268 134 LINE",
"308 286 LINE SMOOTH",
"320 330 OFFCURVE",
"318 358 OFFCURVE",
"300 391 CURVE SMOOTH",
"285 420 OFFCURVE",
"261 433 OFFCURVE",
"224 433 CURVE SMOOTH",
"193 433 OFFCURVE",
"161 424 OFFCURVE",
"131 408 CURVE SMOOTH",
"82 382 OFFCURVE",
"47 340 OFFCURVE",
"47 308 CURVE SMOOTH",
"47 287 OFFCURVE",
"61 272 OFFCURVE",
"81 272 CURVE SMOOTH",
"103 272 OFFCURVE",
"117 292 OFFCURVE",
"117 326 CURVE SMOOTH",
"117 335 OFFCURVE",
"116 346 OFFCURVE",
"116 353 CURVE SMOOTH",
"116 390 OFFCURVE",
"144 414 OFFCURVE",
"185 414 CURVE SMOOTH",
"228 414 OFFCURVE",
"243 388 OFFCURVE",
"243 311 CURVE SMOOTH",
"243 220 LINE",
"97 191 OFFCURVE",
"43 155 OFFCURVE",
"43 88 CURVE SMOOTH",
"43 32 OFFCURVE",
"79 -7 OFFCURVE",
"130 -7 CURVE SMOOTH"
);
},
{
closed = 1;
nodes = (
"134 31 OFFCURVE",
"110 60 OFFCURVE",
"110 107 CURVE SMOOTH",
"110 160 OFFCURVE",
"140 183 OFFCURVE",
"243 209 CURVE",
"265 209 LINE",
"260 95 LINE",
"239 53 OFFCURVE",
"209 31 OFFCURVE",
"173 31 CURVE SMOOTH"
);
}
);
};
hints = (
{
place = "{43, 74}";
},
{
place = "{244, 65}";
},
{
place = "{262, 47}";
},
{
place = "{499, 78}";
},
{
horizontal = 1;
place = "{-10, 50}";
},
{
horizontal = 1;
place = "{267, 167}";
},
{
horizontal = 1;
place = "{433, -20}";
target = down;
type = TopGhost;
}
);
layerId = UUID0;
paths = (
{
closed = 1;
nodes = (
"178 -7 OFFCURVE",
"228 24 OFFCURVE",
"264 79 CURVE",
"290 26 OFFCURVE",
"348 -10 OFFCURVE",
"417 -10 CURVE SMOOTH",
"487 -10 OFFCURVE",
"543 31 OFFCURVE",
"569 101 CURVE SMOOTH",
"573 112 LINE",
"569 114 LINE",
"560 102 LINE SMOOTH",
"530 63 OFFCURVE",
"485 40 OFFCURVE",
"437 40 CURVE SMOOTH",
"355 40 OFFCURVE",
"309 107 OFFCURVE",
"309 228 CURVE SMOOTH",
"309 241 OFFCURVE",
"309 254 OFFCURVE",
"310 267 CURVE",
"571 267 LINE",
"577 272 LINE",
"574 379 OFFCURVE",
"524 434 OFFCURVE",
"430 434 CURVE SMOOTH",
"377 434 OFFCURVE",
"328 415 OFFCURVE",
"303 384 CURVE",
"288 418 OFFCURVE",
"263 433 OFFCURVE",
"224 433 CURVE SMOOTH",
"193 433 OFFCURVE",
"161 424 OFFCURVE",
"131 408 CURVE SMOOTH",
"82 382 OFFCURVE",
"47 340 OFFCURVE",
"47 308 CURVE SMOOTH",
"47 287 OFFCURVE",
"61 272 OFFCURVE",
"81 272 CURVE SMOOTH",
"103 272 OFFCURVE",
"117 292 OFFCURVE",
"117 326 CURVE SMOOTH",
"117 335 OFFCURVE",
"116 346 OFFCURVE",
"116 353 CURVE SMOOTH",
"116 390 OFFCURVE",
"144 414 OFFCURVE",
"185 414 CURVE SMOOTH",
"228 414 OFFCURVE",
"243 388 OFFCURVE",
"243 311 CURVE SMOOTH",
"243 220 LINE",
"97 191 OFFCURVE",
"43 155 OFFCURVE",
"43 88 CURVE SMOOTH",
"43 32 OFFCURVE",
"79 -7 OFFCURVE",
"130 -7 CURVE SMOOTH"
);
},
{
closed = 1;
nodes = (
"474 423 OFFCURVE",
"499 389 OFFCURVE",
"499 324 CURVE SMOOTH",
"499 308 OFFCURVE",
"498 292 OFFCURVE",
"496 285 CURVE",
"312 278 LINE",
"322 369 OFFCURVE",
"363 423 OFFCURVE",
"425 423 CURVE SMOOTH"
);
},
{
closed = 1;
nodes = (
"134 31 OFFCURVE",
"110 60 OFFCURVE",
"110 107 CURVE SMOOTH",
"110 160 OFFCURVE",
"141 183 OFFCURVE",
"244 209 CURVE",
"248 120 OFFCURVE",
"253 105 OFFCURVE",
"258 91 CURVE",
"237 52 OFFCURVE",
"208 31 OFFCURVE",
"173 31 CURVE SMOOTH"
);
}
);
width = 613;
}
);
leftKerningGroup = a;
rightKerningGroup = e;
unicode = 00E6;
},
{
glyphname = b;
layers = (
{
background = {
paths = (
{
closed = 1;
nodes = (
"185 -10 OFFCURVE",
"146 3 OFFCURVE",
"114 27 CURVE",
"110 27 LINE",
"80 0 LINE",
"72 0 LINE",
"72 653 LINE",
"13 675 LINE",
"13 682 LINE",
"129 721 LINE",
"137 721 LINE",
"137 377 LINE",
"172 415 OFFCURVE",
"213 434 OFFCURVE",
"260 434 CURVE SMOOTH",
"360 434 OFFCURVE",
"427 351 OFFCURVE",
"427 228 CURVE SMOOTH",
"427 91 OFFCURVE",
"342 -10 OFFCURVE",
"226 -10 CURVE SMOOTH"
);
},
{
closed = 1;
nodes = (
"302 0 OFFCURVE",
"352 82 OFFCURVE",
"352 207 CURVE SMOOTH",
"352 329 OFFCURVE",
"304 404 OFFCURVE",
"226 404 CURVE SMOOTH",
"190 404 OFFCURVE",
"157 388 OFFCURVE",
"137 362 CURVE",
"137 101 LINE SMOOTH",
"137 40 OFFCURVE",
"172 0 OFFCURVE",
"225 0 CURVE SMOOTH"
);
}
);
};
hints = (
{
place = "{72, 65}";
},
{
place = "{352, 75}";
},
{
horizontal = 1;
place = "{404, 30}";
},
{
horizontal = 1;
place = "{-10, 21}";
target = up;
type = BottomGhost;
},
{
horizontal = 1;
place = "{721, -20}";
target = down;
type = TopGhost;
}
);
layerId = UUID0;
paths = (
{
closed = 1;
nodes = (
"185 -10 OFFCURVE",
"146 3 OFFCURVE",
"114 27 CURVE",
"110 27 LINE",
"80 0 LINE",
"72 0 LINE",
"72 653 LINE",
"13 675 LINE",
"13 682 LINE",
"129 721 LINE",
"137 721 LINE",
"137 377 LINE",
"172 415 OFFCURVE",
"213 434 OFFCURVE",
"260 434 CURVE SMOOTH",
"360 434 OFFCURVE",
"427 351 OFFCURVE",
"427 228 CURVE SMOOTH",
"427 91 OFFCURVE",
"342 -10 OFFCURVE",
"226 -10 CURVE SMOOTH"
);
},
{
closed = 1;
nodes = (
"302 0 OFFCURVE",
"352 82 OFFCURVE",
"352 207 CURVE SMOOTH",
"352 329 OFFCURVE",
"304 404 OFFCURVE",
"226 404 CURVE SMOOTH",
"190 404 OFFCURVE",
"157 388 OFFCURVE",
"137 362 CURVE",
"137 101 LINE SMOOTH",
"137 40 OFFCURVE",
"172 0 OFFCURVE",
"225 0 CURVE SMOOTH"
);
}
);
width = 467;
}
);
leftKerningGroup = b;
rightKerningGroup = b;
unicode = 0062;
},
{
glyphname = c;
layers = (
{
anchors = (
{
name = bottom;
position = "{224, 0}";
},
{
name = top;
position = "{231, 530}";
}
);
background = {
paths = (
{
closed = 1;
nodes = (
"312 434 OFFCURVE",
"371 396 OFFCURVE",
"371 347 CURVE SMOOTH",
"371 324 OFFCURVE",
"357 309 OFFCURVE",
"334 309 CURVE SMOOTH",
"270 309 OFFCURVE",
"318 424 OFFCURVE",
"234 424 CURVE SMOOTH",
"161 424 OFFCURVE",
"107 339 OFFCURVE",
"107 222 CURVE SMOOTH",
"107 106 OFFCURVE",
"159 39 OFFCURVE",
"249 39 CURVE SMOOTH",
"299 39 OFFCURVE",
"337 59 OFFCURVE",
"370 102 CURVE SMOOTH",
"379 114 LINE",
"383 112 LINE",
"379 101 LINE SMOOTH",
"353 31 OFFCURVE",
"296 -10 OFFCURVE",
"223 -10 CURVE SMOOTH",
"116 -10 OFFCURVE",
"40 80 OFFCURVE",
"40 207 CURVE SMOOTH",
"40 339 OFFCURVE",
"122 434 OFFCURVE",
"238 434 CURVE SMOOTH"
);
}
);
};
hints = (
{
place = "{40, 67}";
},
{
horizontal = 1;
place = "{-10, 48}";
},
{
horizontal = 1;
place = "{309, 125}";
}
);
layerId = UUID0;
paths = (
{
closed = 1;
nodes = (
"312 434 OFFCURVE",
"371 396 OFFCURVE",
"371 347 CURVE SMOOTH",
"371 324 OFFCURVE",
"357 309 OFFCURVE",
"334 309 CURVE SMOOTH",
"270 309 OFFCURVE",
"318 424 OFFCURVE",
"234 424 CURVE SMOOTH",
"161 424 OFFCURVE",
"107 339 OFFCURVE",
"107 222 CURVE SMOOTH",
"107 106 OFFCURVE",
"159 39 OFFCURVE",
"249 39 CURVE SMOOTH",
"299 39 OFFCURVE",
"337 59 OFFCURVE",
"370 102 CURVE SMOOTH",
"379 114 LINE",
"383 112 LINE",
"379 101 LINE SMOOTH",
"353 31 OFFCURVE",
"296 -10 OFFCURVE",
"223 -10 CURVE SMOOTH",
"116 -10 OFFCURVE",
"40 80 OFFCURVE",
"40 207 CURVE SMOOTH",
"40 339 OFFCURVE",
"122 434 OFFCURVE",
"238 434 CURVE SMOOTH"
);
}
);
width = 406;
}
);
leftKerningGroup = o;
rightKerningGroup = c;
unicode = 0063;
},
{
glyphname = d;
layers = (
{
anchors = (
{
name = bottom;
position = "{206, 0}";
}
);
background = {
paths = (
{
closed = 1;
nodes = (
"111 -10 OFFCURVE",
"40 81 OFFCURVE",
"40 204 CURVE SMOOTH",
"40 340 OFFCURVE",
"126 434 OFFCURVE",
"252 434 CURVE SMOOTH",
"278 434 OFFCURVE",
"304 430 OFFCURVE",
"330 422 CURVE",
"330 653 LINE",
"271 675 LINE",
"271 682 LINE",
"387 721 LINE",
"395 721 LINE",
"395 62 LINE",
"450 50 LINE",
"450 45 LINE",
"341 -5 LINE",
"335 -5 LINE",
"335 63 LINE",
"332 64 LINE",
"301 16 OFFCURVE",
"257 -10 OFFCURVE",
"206 -10 CURVE SMOOTH"
);
},
{
closed = 1;
nodes = (
"279 30 OFFCURVE",
"313 47 OFFCURVE",
"330 77 CURVE",
"330 333 LINE SMOOTH",
"330 392 OFFCURVE",
"302 424 OFFCURVE",
"251 424 CURVE SMOOTH",
"166 424 OFFCURVE",
"111 341 OFFCURVE",
"111 218 CURVE SMOOTH",
"111 102 OFFCURVE",
"159 30 OFFCURVE",
"241 30 CURVE SMOOTH"
);
}
);
};
hints = (
{
place = "{40, 71}";
},
{
place = "{330, 65}";
},
{
horizontal = 1;
place = "{-10, 40}";
},
{
horizontal = 1;
place = "{721, -20}";
target = down;
type = TopGhost;
}
);
layerId = UUID0;
paths = (
{
closed = 1;
nodes = (
"111 -10 OFFCURVE",
"40 81 OFFCURVE",
"40 204 CURVE SMOOTH",
"40 340 OFFCURVE",
"126 434 OFFCURVE",
"252 434 CURVE SMOOTH",
"278 434 OFFCURVE",
"304 430 OFFCURVE",
"330 422 CURVE",
"330 653 LINE",
"271 675 LINE",
"271 682 LINE",
"387 721 LINE",
"395 721 LINE",
"395 62 LINE",
"450 50 LINE",
"450 45 LINE",
"341 -5 LINE",
"335 -5 LINE",
"335 63 LINE",
"332 64 LINE",
"301 16 OFFCURVE",
"257 -10 OFFCURVE",
"206 -10 CURVE SMOOTH"
);
},
{
closed = 1;
nodes = (
"279 30 OFFCURVE",
"313 47 OFFCURVE",
"330 77 CURVE",
"330 333 LINE SMOOTH",
"330 392 OFFCURVE",
"302 424 OFFCURVE",
"251 424 CURVE SMOOTH",
"166 424 OFFCURVE",
"111 341 OFFCURVE",
"111 218 CURVE SMOOTH",
"111 102 OFFCURVE",
"159 30 OFFCURVE",
"241 30 CURVE SMOOTH"
);
}
);
width = 472;
}
);
leftKerningGroup = d;
rightKerningGroup = d;
unicode = 0064;
},
{
glyphname = eth;
layers = (
{
background = {
paths = (
{
closed = 1;
nodes = (
"123 -16 OFFCURVE",
"41 71 OFFCURVE",
"41 202 CURVE SMOOTH",
"41 330 OFFCURVE",
"118 413 OFFCURVE",
"238 413 CURVE SMOOTH",
"286 413 OFFCURVE",
"320 400 OFFCURVE",
"354 370 CURVE",
"334 527 OFFCURVE",
"278 611 OFFCURVE",
"122 706 CURVE",
"126 714 LINE",
"322 632 OFFCURVE",
"459 451 OFFCURVE",
"459 245 CURVE SMOOTH",
"459 82 OFFCURVE",
"380 -16 OFFCURVE",
"248 -16 CURVE SMOOTH"
);
},
{
closed = 1;
nodes = (
"326 -4 OFFCURVE",
"367 73 OFFCURVE",
"367 213 CURVE SMOOTH",
"367 258 OFFCURVE",
"363 311 OFFCURVE",
"356 352 CURVE",
"333 375 OFFCURVE",
"297 389 OFFCURVE",
"261 389 CURVE SMOOTH",
"179 389 OFFCURVE",
"134 319 OFFCURVE",
"134 194 CURVE SMOOTH",
"134 70 OFFCURVE",
"178 -4 OFFCURVE",
"252 -4 CURVE SMOOTH"
);
},
{
closed = 1;
nodes = (
"417 666 LINE",
"141 507 LINE",
"141 525 LINE",
"417 685 LINE"
);
}
);
};
layerId = UUID0;
paths = (
{
closed = 1;
nodes = (
"123 -16 OFFCURVE",
"41 71 OFFCURVE",
"41 202 CURVE SMOOTH",
"41 330 OFFCURVE",
"118 413 OFFCURVE",
"238 413 CURVE SMOOTH",
"286 413 OFFCURVE",
"320 400 OFFCURVE",
"354 370 CURVE",
"334 527 OFFCURVE",
"278 611 OFFCURVE",
"122 706 CURVE",
"126 714 LINE",
"322 632 OFFCURVE",
"459 451 OFFCURVE",
"459 245 CURVE SMOOTH",
"459 82 OFFCURVE",
"380 -16 OFFCURVE",
"248 -16 CURVE SMOOTH"
);
},
{
closed = 1;
nodes = (
"326 -4 OFFCURVE",
"367 73 OFFCURVE",
"367 213 CURVE SMOOTH",
"367 258 OFFCURVE",
"363 311 OFFCURVE",
"356 352 CURVE",
"333 375 OFFCURVE",
"297 389 OFFCURVE",
"261 389 CURVE SMOOTH",
"179 389 OFFCURVE",
"134 319 OFFCURVE",
"134 194 CURVE SMOOTH",
"134 70 OFFCURVE",
"178 -4 OFFCURVE",
"252 -4 CURVE SMOOTH"
);
},
{
closed = 1;
nodes = (
"417 666 LINE",
"141 507 LINE",
"141 525 LINE",
"417 685 LINE"
);
}
);
width = 511;
}
);
leftKerningGroup = o;
unicode = 00F0;
},
{
glyphname = dcroat;
layers = (
{
background = {
paths = (
{
closed = 1;
nodes = (
"234 553 LINE",
"448 553 LINE",
"448 531 LINE",
"234 531 LINE"
);
}
);
};
components = (
{
name = d;
}
);
layerId = UUID0;
paths = (
{
closed = 1;
nodes = (
"234 553 LINE",
"448 553 LINE",
"448 531 LINE",
"234 531 LINE"
);
}
);
width = 472;
}
);
leftKerningGroup = d;
rightKerningGroup = d;
unicode = 0111;
},
{
glyphname = e;
layers = (
{
anchors = (
{
name = bottom;
position = "{226, 0}";
},
{
name = top;
position = "{232, 530}";
}
);
background = {
paths = (
{
closed = 1;
nodes = (
"387 272 LINE",
"385 378 OFFCURVE",
"334 434 OFFCURVE",
"241 434 CURVE SMOOTH",
"121 434 OFFCURVE",
"40 343 OFFCURVE",
"40 211 CURVE SMOOTH",
"40 80 OFFCURVE",
"115 -10 OFFCURVE",
"225 -10 CURVE SMOOTH",
"298 -10 OFFCURVE",
"353 30 OFFCURVE",
"379 101 CURVE SMOOTH",
"383 112 LINE",
"379 114 LINE",
"370 102 LINE SMOOTH",
"337 60 OFFCURVE",
"293 40 OFFCURVE",
"249 40 CURVE SMOOTH",
"162 40 OFFCURVE",
"109 102 OFFCURVE",
"109 226 CURVE SMOOTH",
"109 342 OFFCURVE",
"155 423 OFFCURVE",
"230 423 CURVE SMOOTH",
"276 423 OFFCURVE",
"309 401 OFFCURVE",
"309 325 CURVE SMOOTH",
"309 310 OFFCURVE",
"308 293 OFFCURVE",
"306 285 CURVE",
"103 278 LINE",
"103 267 LINE",
"381 267 LINE"
);
}
);
};
hints = (
{
place = "{40, 68}";
},
{
place = "{309, 78}";
},
{
horizontal = 1;
place = "{-10, 48}";
},
{
horizontal = 1;
place = "{267, 167}";
}
);
layerId = UUID0;
paths = (
{
closed = 1;
nodes = (
"387 272 LINE",
"385 378 OFFCURVE",
"334 434 OFFCURVE",
"241 434 CURVE SMOOTH",
"121 434 OFFCURVE",
"40 343 OFFCURVE",
"40 211 CURVE SMOOTH",
"40 80 OFFCURVE",
"115 -10 OFFCURVE",
"225 -10 CURVE SMOOTH",
"298 -10 OFFCURVE",
"353 30 OFFCURVE",
"379 101 CURVE SMOOTH",
"383 112 LINE",
"379 114 LINE",
"370 102 LINE SMOOTH",
"337 60 OFFCURVE",
"293 40 OFFCURVE",
"249 40 CURVE SMOOTH",
"162 40 OFFCURVE",
"109 102 OFFCURVE",
"109 226 CURVE SMOOTH",
"109 342 OFFCURVE",
"155 423 OFFCURVE",
"230 423 CURVE SMOOTH",
"276 423 OFFCURVE",
"309 401 OFFCURVE",
"309 325 CURVE SMOOTH",
"309 310 OFFCURVE",
"308 293 OFFCURVE",
"306 285 CURVE",
"103 278 LINE",
"103 267 LINE",
"381 267 LINE"
);
}
);
width = 423;
}
);
leftKerningGroup = o;
rightKerningGroup = e;
unicode = 0065;
},
{
glyphname = eogonek;
layers = (
{
background = {
paths = (
{
closed = 1;
nodes = (
"347 -173 LINE",
"328 -191 OFFCURVE",
"308 -198 OFFCURVE",
"285 -198 CURVE SMOOTH",
"247 -198 OFFCURVE",
"223 -175 OFFCURVE",
"223 -132 CURVE SMOOTH",
"223 -81 OFFCURVE",
"257 -29 OFFCURVE",
"295 0 CURVE SMOOTH",
"334 26 OFFCURVE",
"362 53 OFFCURVE",
"379 101 CURVE SMOOTH",
"383 112 LINE",
"379 114 LINE",
"370 102 LINE SMOOTH",
"337 60 OFFCURVE",
"293 40 OFFCURVE",
"249 40 CURVE SMOOTH",
"162 40 OFFCURVE",
"109 102 OFFCURVE",
"109 226 CURVE SMOOTH",
"109 240 OFFCURVE",
"109 254 OFFCURVE",
"111 267 CURVE",
"381 267 LINE",
"387 272 LINE",
"385 378 OFFCURVE",
"334 434 OFFCURVE",
"241 434 CURVE SMOOTH",
"121 434 OFFCURVE",
"40 343 OFFCURVE",
"40 211 CURVE SMOOTH",
"40 80 OFFCURVE",
"115 -10 OFFCURVE",
"225 -10 CURVE SMOOTH",
"241 -10 OFFCURVE",
"256 -8 OFFCURVE",
"271 -4 CURVE",
"202 -51 OFFCURVE",
"162 -103 OFFCURVE",
"162 -149 CURVE SMOOTH",
"162 -196 OFFCURVE",
"197 -226 OFFCURVE",
"252 -226 CURVE SMOOTH",
"291 -226 OFFCURVE",
"322 -211 OFFCURVE",
"350 -178 CURVE"
);
},
{
closed = 1;
nodes = (
"276 423 OFFCURVE",
"309 401 OFFCURVE",
"309 325 CURVE SMOOTH",
"309 310 OFFCURVE",
"308 293 OFFCURVE",
"306 285 CURVE",
"112 278 LINE",
"124 365 OFFCURVE",
"167 423 OFFCURVE",
"230 423 CURVE SMOOTH"
);
}
);
};
hints = (
{
place = "{40, 68}";
},
{
place = "{309, 78}";
},
{
horizontal = 1;
place = "{-10, 48}";
},
{
horizontal = 1;
place = "{267, 167}";
}
);
layerId = UUID0;
paths = (
{
closed = 1;
nodes = (
"347 -173 LINE",
"328 -191 OFFCURVE",
"308 -198 OFFCURVE",
"285 -198 CURVE SMOOTH",
"247 -198 OFFCURVE",
"223 -175 OFFCURVE",
"223 -132 CURVE SMOOTH",
"223 -81 OFFCURVE",
"257 -29 OFFCURVE",
"295 0 CURVE SMOOTH",
"334 26 OFFCURVE",
"362 53 OFFCURVE",
"379 101 CURVE SMOOTH",
"383 112 LINE",
"379 114 LINE",
"370 102 LINE SMOOTH",
"337 60 OFFCURVE",
"293 40 OFFCURVE",
"249 40 CURVE SMOOTH",
"162 40 OFFCURVE",
"109 102 OFFCURVE",
"109 226 CURVE SMOOTH",
"109 240 OFFCURVE",
"109 254 OFFCURVE",
"111 267 CURVE",
"381 267 LINE",
"387 272 LINE",
"385 378 OFFCURVE",
"334 434 OFFCURVE",
"241 434 CURVE SMOOTH",
"121 434 OFFCURVE",
"40 343 OFFCURVE",
"40 211 CURVE SMOOTH",
"40 80 OFFCURVE",
"115 -10 OFFCURVE",
"225 -10 CURVE SMOOTH",
"241 -10 OFFCURVE",
"256 -8 OFFCURVE",
"271 -4 CURVE",
"202 -51 OFFCURVE",
"162 -103 OFFCURVE",
"162 -149 CURVE SMOOTH",
"162 -196 OFFCURVE",
"197 -226 OFFCURVE",
"252 -226 CURVE SMOOTH",
"291 -226 OFFCURVE",
"322 -211 OFFCURVE",
"350 -178 CURVE"
);
},
{
closed = 1;
nodes = (
"276 423 OFFCURVE",
"309 401 OFFCURVE",
"309 325 CURVE SMOOTH",
"309 310 OFFCURVE",
"308 293 OFFCURVE",
"306 285 CURVE",
"112 278 LINE",
"124 365 OFFCURVE",
"167 423 OFFCURVE",
"230 423 CURVE SMOOTH"
);
}
);
width = 423;
}
);
leftKerningGroup = o;
rightKerningGroup = e;
unicode = 0119;
},
{
glyphname = schwa;
layers = (
{
background = {
paths = (
{
closed = 1;
nodes = (
"37 152 LINE",
"39 46 OFFCURVE",
"90 -10 OFFCURVE",
"183 -10 CURVE SMOOTH",
"303 -10 OFFCURVE",
"384 81 OFFCURVE",
"384 213 CURVE SMOOTH",
"384 344 OFFCURVE",
"309 434 OFFCURVE",
"199 434 CURVE SMOOTH",
"126 434 OFFCURVE",
"71 394 OFFCURVE",
"45 323 CURVE SMOOTH",
"41 312 LINE",
"45 310 LINE",
"54 322 LINE SMOOTH",
"87 364 OFFCURVE",
"131 384 OFFCURVE",
"175 384 CURVE SMOOTH",
"262 384 OFFCURVE",
"315 322 OFFCURVE",
"315 198 CURVE SMOOTH",
"315 82 OFFCURVE",
"269 1 OFFCURVE",
"194 1 CURVE SMOOTH",
"148 1 OFFCURVE",
"115 23 OFFCURVE",
"115 99 CURVE SMOOTH",
"115 114 OFFCURVE",
"116 131 OFFCURVE",
"118 139 CURVE",
"321 146 LINE",
"321 157 LINE",
"43 157 LINE"
);
}
);
};
hints = (
{
place = "{34, 68}";
},
{
place = "{303, 78}";
},
{
horizontal = 1;
place = "{-10, 48}";
},
{
horizontal = 1;
place = "{267, 167}";
}
);
layerId = UUID0;
paths = (
{
closed = 1;
nodes = (
"37 152 LINE",
"39 46 OFFCURVE",
"90 -10 OFFCURVE",
"183 -10 CURVE SMOOTH",
"303 -10 OFFCURVE",
"384 81 OFFCURVE",
"384 213 CURVE SMOOTH",
"384 344 OFFCURVE",
"309 434 OFFCURVE",
"199 434 CURVE SMOOTH",
"126 434 OFFCURVE",
"71 394 OFFCURVE",
"45 323 CURVE SMOOTH",
"41 312 LINE",
"45 310 LINE",
"54 322 LINE SMOOTH",
"87 364 OFFCURVE",
"131 384 OFFCURVE",
"175 384 CURVE SMOOTH",
"262 384 OFFCURVE",
"315 322 OFFCURVE",
"315 198 CURVE SMOOTH",
"315 82 OFFCURVE",
"269 1 OFFCURVE",
"194 1 CURVE SMOOTH",
"148 1 OFFCURVE",
"115 23 OFFCURVE",
"115 99 CURVE SMOOTH",
"115 114 OFFCURVE",
"116 131 OFFCURVE",
"118 139 CURVE",
"321 146 LINE",
"321 157 LINE",
"43 157 LINE"
);
}
);
width = 424;
}
);
rightKerningGroup = o;
unicode = 0259;
},
{
glyphname = f;
layers = (
{
background = {
paths = (
{
closed = 1;
nodes = (
"150 18 LINE",
"237 8 LINE",
"237 0 LINE",
"24 0 LINE",
"24 8 LINE",
"85 16 LINE",
"85 482 LINE SMOOTH",
"85 578 OFFCURVE",
"87 606 OFFCURVE",
"97 632 CURVE SMOOTH",
"120 691 OFFCURVE",
"182 733 OFFCURVE",
"247 733 CURVE SMOOTH",
"299 733 OFFCURVE",
"344 706 OFFCURVE",
"344 674 CURVE SMOOTH",
"344 654 OFFCURVE",
"327 638 OFFCURVE",
"307 638 CURVE SMOOTH",
"285 638 OFFCURVE",
"273 651 OFFCURVE",
"268 679 CURVE SMOOTH",
"260 712 OFFCURVE",
"252 720 OFFCURVE",
"230 720 CURVE SMOOTH",
"201 720 OFFCURVE",
"178 702 OFFCURVE",
"164 668 CURVE SMOOTH",
"153 640 OFFCURVE",
"150 610 OFFCURVE",
"150 537 CURVE SMOOTH"
);
},
{
closed = 1;
nodes = (
"23 424 LINE",
"243 424 LINE",
"238 408 LINE",
"18 408 LINE"
);
}
);
};
hints = (
{
place = "{85, 65}";
},
{
horizontal = 1;
place = "{638, 95}";
},
{
horizontal = 1;
place = "{0, 21}";
target = up;
type = BottomGhost;
}
);
layerId = UUID0;
paths = (
{
closed = 1;
nodes = (
"150 18 LINE",
"237 8 LINE",
"237 0 LINE",
"24 0 LINE",
"24 8 LINE",
"85 16 LINE",
"85 482 LINE SMOOTH",
"85 578 OFFCURVE",
"87 606 OFFCURVE",
"97 632 CURVE SMOOTH",
"120 691 OFFCURVE",
"182 733 OFFCURVE",
"247 733 CURVE SMOOTH",
"299 733 OFFCURVE",
"344 706 OFFCURVE",
"344 674 CURVE SMOOTH",
"344 654 OFFCURVE",
"327 638 OFFCURVE",
"307 638 CURVE SMOOTH",
"285 638 OFFCURVE",
"273 651 OFFCURVE",
"268 679 CURVE SMOOTH",
"260 712 OFFCURVE",
"252 720 OFFCURVE",
"230 720 CURVE SMOOTH",
"201 720 OFFCURVE",
"178 702 OFFCURVE",
"164 668 CURVE SMOOTH",
"153 640 OFFCURVE",
"150 610 OFFCURVE",
"150 537 CURVE SMOOTH"
);
},
{
closed = 1;
nodes = (
"23 424 LINE",
"243 424 LINE",
"238 408 LINE",
"18 408 LINE"
);
}
);
width = 263;
}
);
leftKerningGroup = f;
rightKerningGroup = f;
unicode = 0066;
},
{
glyphname = g;
layers = (
{
anchors = (
{
name = top;
position = "{204, 530}";
}
);
background = {
paths = (
{
closed = 1;
nodes = (
"297 142 OFFCURVE",
"363 203 OFFCURVE",
"363 288 CURVE SMOOTH",
"363 373 OFFCURVE",
"297 434 OFFCURVE",
"204 434 CURVE SMOOTH",
"111 434 OFFCURVE",
"45 374 OFFCURVE",
"45 289 CURVE SMOOTH",
"45 203 OFFCURVE",
"111 142 OFFCURVE",
"204 142 CURVE SMOOTH"
);
},
{
closed = 1;
nodes = (
"154 152 OFFCURVE",
"119 208 OFFCURVE",
"119 288 CURVE SMOOTH",
"119 368 OFFCURVE",
"154 424 OFFCURVE",
"204 424 CURVE SMOOTH",
"254 424 OFFCURVE",
"289 368 OFFCURVE",
"289 288 CURVE SMOOTH",
"289 208 OFFCURVE",
"254 152 OFFCURVE",
"204 152 CURVE SMOOTH"
);
},
{
closed = 1;
nodes = (
"308 393 LINE",
"314 426 OFFCURVE",
"323 441 OFFCURVE",
"338 441 CURVE SMOOTH",
"355 441 OFFCURVE",
"365 421 OFFCURVE",
"385 421 CURVE SMOOTH",
"404 421 OFFCURVE",
"419 436 OFFCURVE",
"419 455 CURVE SMOOTH",
"419 478 OFFCURVE",
"403 493 OFFCURVE",
"378 493 CURVE SMOOTH",
"342 493 OFFCURVE",
"315 461 OFFCURVE",
"299 400 CURVE"
);
},
{
closed = 1;
nodes = (
"300 -246 OFFCURVE",
"386 -185 OFFCURVE",
"386 -104 CURVE SMOOTH",
"386 -34 OFFCURVE",
"343 2 OFFCURVE",
"229 23 CURVE SMOOTH",
"128 42 OFFCURVE",
"111 55 OFFCURVE",
"111 82 CURVE SMOOTH",
"111 112 OFFCURVE",
"159 136 OFFCURVE",
"244 146 CURVE",
"199 146 LINE",
"104 128 OFFCURVE",
"54 94 OFFCURVE",
"54 55 CURVE SMOOTH",
"54 13 OFFCURVE",
"87 -18 OFFCURVE",
"199 -40 CURVE SMOOTH",
"301 -60 OFFCURVE",
"328 -84 OFFCURVE",
"328 -134 CURVE SMOOTH",
"328 -196 OFFCURVE",
"275 -236 OFFCURVE",
"191 -236 CURVE SMOOTH",
"107 -236 OFFCURVE",
"59 -196 OFFCURVE",
"59 -125 CURVE SMOOTH",
"59 -70 OFFCURVE",
"85 -35 OFFCURVE",
"139 -19 CURVE",
"139 -13 LINE",
"61 -32 OFFCURVE",
"11 -80 OFFCURVE",
"11 -134 CURVE SMOOTH",
"11 -205 OFFCURVE",
"75 -246 OFFCURVE",
"185 -246 CURVE SMOOTH"
);
}
);
};
hints = (
{
place = "{11, 48}";
},
{
place = "{45, 74}";
},
{
place = "{289, 74}";
},
{
place = "{328, 58}";
},
{
place = "{289, 130}";
},
{
horizontal = 1;
place = "{424, 69}";
},
{
horizontal = 1;
place = "{441, 52}";
},
{
horizontal = 1;
place = "{-246, 21}";
target = up;
type = BottomGhost;
}
);
layerId = UUID0;
paths = (
{
closed = 1;
nodes = (
"297 142 OFFCURVE",
"363 203 OFFCURVE",
"363 288 CURVE SMOOTH",
"363 373 OFFCURVE",
"297 434 OFFCURVE",
"204 434 CURVE SMOOTH",
"111 434 OFFCURVE",
"45 374 OFFCURVE",
"45 289 CURVE SMOOTH",
"45 203 OFFCURVE",
"111 142 OFFCURVE",
"204 142 CURVE SMOOTH"
);
},
{
closed = 1;
nodes = (
"154 152 OFFCURVE",
"119 208 OFFCURVE",
"119 288 CURVE SMOOTH",
"119 368 OFFCURVE",
"154 424 OFFCURVE",
"204 424 CURVE SMOOTH",
"254 424 OFFCURVE",
"289 368 OFFCURVE",
"289 288 CURVE SMOOTH",
"289 208 OFFCURVE",
"254 152 OFFCURVE",
"204 152 CURVE SMOOTH"
);
},
{
closed = 1;
nodes = (
"308 393 LINE",
"314 426 OFFCURVE",
"323 441 OFFCURVE",
"338 441 CURVE SMOOTH",
"355 441 OFFCURVE",
"365 421 OFFCURVE",
"385 421 CURVE SMOOTH",
"404 421 OFFCURVE",
"419 436 OFFCURVE",
"419 455 CURVE SMOOTH",
"419 478 OFFCURVE",
"403 493 OFFCURVE",
"378 493 CURVE SMOOTH",
"342 493 OFFCURVE",
"315 461 OFFCURVE",
"299 400 CURVE"
);
},
{
closed = 1;
nodes = (
"300 -246 OFFCURVE",
"386 -185 OFFCURVE",
"386 -104 CURVE SMOOTH",
"386 -34 OFFCURVE",
"343 2 OFFCURVE",
"229 23 CURVE SMOOTH",
"128 42 OFFCURVE",
"111 55 OFFCURVE",
"111 82 CURVE SMOOTH",
"111 112 OFFCURVE",
"159 136 OFFCURVE",
"244 146 CURVE",
"199 146 LINE",
"104 128 OFFCURVE",
"54 94 OFFCURVE",
"54 55 CURVE SMOOTH",
"54 13 OFFCURVE",
"87 -18 OFFCURVE",
"199 -40 CURVE SMOOTH",
"301 -60 OFFCURVE",
"328 -84 OFFCURVE",
"328 -134 CURVE SMOOTH",
"328 -196 OFFCURVE",
"275 -236 OFFCURVE",
"191 -236 CURVE SMOOTH",
"107 -236 OFFCURVE",
"59 -196 OFFCURVE",
"59 -125 CURVE SMOOTH",
"59 -70 OFFCURVE",
"85 -35 OFFCURVE",
"139 -19 CURVE",
"139 -13 LINE",
"61 -32 OFFCURVE",
"11 -80 OFFCURVE",
"11 -134 CURVE SMOOTH",
"11 -205 OFFCURVE",
"75 -246 OFFCURVE",
"185 -246 CURVE SMOOTH"
);
}
);
width = 403;
}
);
leftKerningGroup = g;
rightKerningGroup = g;
unicode = 0067;
},
{
glyphname = gcommaaccent;
layers = (
{
background = {
paths = (
{
closed = 1;
nodes = (
"239 703 LINE",
"197 673 OFFCURVE",
"174 633 OFFCURVE",
"174 591 CURVE SMOOTH",
"174 555 OFFCURVE",
"191 531 OFFCURVE",
"216 531 CURVE SMOOTH",
"235 531 OFFCURVE",
"248 545 OFFCURVE",
"248 565 CURVE SMOOTH",
"248 599 OFFCURVE",
"210 599 OFFCURVE",
"210 636 CURVE SMOOTH",
"210 657 OFFCURVE",
"223 683 OFFCURVE",
"243 698 CURVE"
);
}
);
};
components = (
{
name = g;
}
);
layerId = UUID0;
paths = (
{
closed = 1;
nodes = (
"239 703 LINE",
"197 673 OFFCURVE",
"174 633 OFFCURVE",
"174 591 CURVE SMOOTH",
"174 555 OFFCURVE",
"191 531 OFFCURVE",
"216 531 CURVE SMOOTH",
"235 531 OFFCURVE",
"248 545 OFFCURVE",
"248 565 CURVE SMOOTH",
"248 599 OFFCURVE",
"210 599 OFFCURVE",
"210 636 CURVE SMOOTH",
"210 657 OFFCURVE",
"223 683 OFFCURVE",
"243 698 CURVE"
);
}
);
width = 403;
}
);
leftKerningGroup = g;
rightKerningGroup = g;
unicode = 0123;
},
{
glyphname = h;
layers = (
{
anchors = (
{
name = bottom;
position = "{229, 0}";
}
);
background = {
paths = (
{
closed = 1;
nodes = (
"205 8 LINE",
"205 0 LINE",
"18 0 LINE",
"18 8 LINE",
"79 16 LINE",
"79 653 LINE",
"20 675 LINE",
"20 682 LINE",
"136 721 LINE",
"144 721 LINE",
"144 16 LINE"
);
},
{
closed = 1;
nodes = (
"136 361 LINE",
"179 408 OFFCURVE",
"228 434 OFFCURVE",
"275 434 CURVE SMOOTH",
"315 434 OFFCURVE",
"350 415 OFFCURVE",
"366 385 CURVE SMOOTH",
"375 367 OFFCURVE",
"377 346 OFFCURVE",
"377 271 CURVE SMOOTH",
"377 16 LINE",
"438 8 LINE",
"438 0 LINE",
"251 0 LINE",
"251 8 LINE",
"312 16 LINE",
"312 271 LINE SMOOTH",
"312 326 OFFCURVE",
"310 345 OFFCURVE",
"302 361 CURVE SMOOTH",
"291 384 OFFCURVE",
"266 397 OFFCURVE",
"234 397 CURVE SMOOTH",
"196 397 OFFCURVE",
"163 379 OFFCURVE",
"136 345 CURVE"
);
}
);
};
hints = (
{
place = "{79, 65}";
},
{
place = "{312, 65}";
},
{
horizontal = 1;
place = "{397, 37}";
},
{
horizontal = 1;
place = "{0, 21}";
target = up;
type = BottomGhost;
},
{
horizontal = 1;
place = "{721, -20}";
target = down;
type = TopGhost;
}
);
layerId = UUID0;
paths = (
{
closed = 1;
nodes = (
"205 8 LINE",
"205 0 LINE",
"18 0 LINE",
"18 8 LINE",
"79 16 LINE",
"79 653 LINE",
"20 675 LINE",
"20 682 LINE",
"136 721 LINE",
"144 721 LINE",
"144 16 LINE"
);
},
{
closed = 1;
nodes = (
"136 361 LINE",
"179 408 OFFCURVE",
"228 434 OFFCURVE",
"275 434 CURVE SMOOTH",
"315 434 OFFCURVE",
"350 415 OFFCURVE",
"366 385 CURVE SMOOTH",
"375 367 OFFCURVE",
"377 346 OFFCURVE",
"377 271 CURVE SMOOTH",
"377 16 LINE",
"438 8 LINE",
"438 0 LINE",
"251 0 LINE",
"251 8 LINE",
"312 16 LINE",
"312 271 LINE SMOOTH",
"312 326 OFFCURVE",
"310 345 OFFCURVE",
"302 361 CURVE SMOOTH",
"291 384 OFFCURVE",
"266 397 OFFCURVE",
"234 397 CURVE SMOOTH",
"196 397 OFFCURVE",
"163 379 OFFCURVE",
"136 345 CURVE"
);
}
);
width = 453;
}
);
leftKerningGroup = h;
rightKerningGroup = n;
unicode = 0068;
},
{
glyphname = hbar;
layers = (
{
background = {
paths = (
{
closed = 1;
nodes = (
"21 553 LINE",
"235 553 LINE",
"235 531 LINE",
"21 531 LINE"
);
}
);
};
components = (
{
name = h;
}
);
layerId = UUID0;
paths = (
{
closed = 1;
nodes = (
"21 553 LINE",
"235 553 LINE",
"235 531 LINE",
"21 531 LINE"
);
}
);
width = 453;
}
);
leftKerningGroup = h;
rightKerningGroup = n;
unicode = 0127;
},
{
glyphname = i;
layers = (
{
background = {
paths = (
{
closed = 1;
nodes = (
"65 551 OFFCURVE",
"84 530 OFFCURVE",
"113 530 CURVE SMOOTH",
"142 530 OFFCURVE",
"161 551 OFFCURVE",
"161 578 CURVE SMOOTH",
"161 605 OFFCURVE",
"142 626 OFFCURVE",
"113 626 CURVE SMOOTH",
"84 626 OFFCURVE",
"65 605 OFFCURVE",
"65 578 CURVE SMOOTH"
);
},
{
closed = 1;
nodes = (
"212 8 LINE",
"212 0 LINE",
"25 0 LINE",
"25 8 LINE",
"86 16 LINE",
"86 366 LINE",
"27 388 LINE",
"27 395 LINE",
"143 434 LINE",
"151 434 LINE",
"151 16 LINE"
);
}
);
};
hints = (
{
place = "{65, 96}";
},
{
horizontal = 1;
place = "{520, 96}";
},
{
horizontal = 1;
place = "{0, 21}";
target = up;
type = BottomGhost;
}
);
layerId = UUID0;
paths = (
{
closed = 1;
nodes = (
"65 551 OFFCURVE",
"84 530 OFFCURVE",
"113 530 CURVE SMOOTH",
"142 530 OFFCURVE",
"161 551 OFFCURVE",
"161 578 CURVE SMOOTH",
"161 605 OFFCURVE",
"142 626 OFFCURVE",
"113 626 CURVE SMOOTH",
"84 626 OFFCURVE",
"65 605 OFFCURVE",
"65 578 CURVE SMOOTH"
);
},
{
closed = 1;
nodes = (
"212 8 LINE",
"212 0 LINE",
"25 0 LINE",
"25 8 LINE",
"86 16 LINE",
"86 366 LINE",
"27 388 LINE",
"27 395 LINE",
"143 434 LINE",
"151 434 LINE",
"151 16 LINE"
);
}
);
width = 229;
}
);
leftKerningGroup = i;
rightKerningGroup = i;
unicode = 0069;
},
{
glyphname = dotlessi;
layers = (
{
anchors = (
{
name = bottom;
position = "{117, 0}";
},
{
name = top;
position = "{117, 530}";
}
);
background = {
paths = (
{
closed = 1;
nodes = (
"212 8 LINE",
"212 0 LINE",
"25 0 LINE",
"25 8 LINE",
"86 16 LINE",
"86 366 LINE",
"27 388 LINE",
"27 395 LINE",
"143 434 LINE",
"151 434 LINE",
"151 16 LINE"
);
}
);
};
hints = (
{
place = "{65, 96}";
},
{
horizontal = 1;
place = "{520, 96}";
},
{
horizontal = 1;
place = "{0, 21}";
target = up;
type = BottomGhost;
}
);
layerId = UUID0;
paths = (
{
closed = 1;
nodes = (
"212 8 LINE",
"212 0 LINE",
"25 0 LINE",
"25 8 LINE",
"86 16 LINE",
"86 366 LINE",
"27 388 LINE",
"27 395 LINE",
"143 434 LINE",
"151 434 LINE",
"151 16 LINE"
);
}
);
width = 229;
}
);
leftKerningGroup = i;
rightKerningGroup = i;
unicode = 0131;
},
{
glyphname = iogonek;
layers = (
{
background = {
paths = (
{
closed = 1;
nodes = (
"203 -178 LINE",
"175 -211 OFFCURVE",
"144 -226 OFFCURVE",
"105 -226 CURVE SMOOTH",
"50 -226 OFFCURVE",
"15 -196 OFFCURVE",
"15 -149 CURVE SMOOTH",
"15 -99 OFFCURVE",
"57 -40 OFFCURVE",
"129 11 CURVE",
"141 11 LINE",
"108 -21 OFFCURVE",
"76 -87 OFFCURVE",
"76 -132 CURVE SMOOTH",
"76 -175 OFFCURVE",
"100 -198 OFFCURVE",
"138 -198 CURVE SMOOTH",
"161 -198 OFFCURVE",
"181 -191 OFFCURVE",
"200 -173 CURVE"
);
}
);
};
components = (
{
name = i;
}
);
layerId = UUID0;
paths = (
{
closed = 1;
nodes = (
"203 -178 LINE",
"175 -211 OFFCURVE",
"144 -226 OFFCURVE",
"105 -226 CURVE SMOOTH",
"50 -226 OFFCURVE",
"15 -196 OFFCURVE",
"15 -149 CURVE SMOOTH",
"15 -99 OFFCURVE",
"57 -40 OFFCURVE",
"129 11 CURVE",
"141 11 LINE",
"108 -21 OFFCURVE",
"76 -87 OFFCURVE",
"76 -132 CURVE SMOOTH",
"76 -175 OFFCURVE",
"100 -198 OFFCURVE",
"138 -198 CURVE SMOOTH",
"161 -198 OFFCURVE",
"181 -191 OFFCURVE",
"200 -173 CURVE"
);
}
);
width = 226;
}
);
leftKerningGroup = i;
rightKerningGroup = i;
unicode = 012F;
},
{
glyphname = j;
layers = (
{
background = {
paths = (
{
closed = 1;
nodes = (
"60 550 OFFCURVE",
"80 530 OFFCURVE",
"108 530 CURVE SMOOTH",
"136 530 OFFCURVE",
"156 550 OFFCURVE",
"156 578 CURVE SMOOTH",
"156 606 OFFCURVE",
"136 626 OFFCURVE",
"108 626 CURVE SMOOTH",
"80 626 OFFCURVE",
"60 606 OFFCURVE",
"60 578 CURVE SMOOTH"
);
},
{
closed = 1;
nodes = (
"81 366 LINE",
"22 388 LINE",
"22 395 LINE",
"138 434 LINE",
"146 434 LINE",
"146 40 LINE SMOOTH",
"146 -91 OFFCURVE",
"142 -123 OFFCURVE",
"123 -158 CURVE SMOOTH",
"93 -214 OFFCURVE",
"43 -247 OFFCURVE",
"-13 -247 CURVE SMOOTH",
"-59 -247 OFFCURVE",
"-90 -223 OFFCURVE",
"-90 -189 CURVE SMOOTH",
"-90 -165 OFFCURVE",
"-74 -149 OFFCURVE",
"-52 -149 CURVE SMOOTH",
"-32 -149 OFFCURVE",
"-20 -161 OFFCURVE",
"-13 -188 CURVE SMOOTH",
"-6 -218 OFFCURVE",
"3 -228 OFFCURVE",
"24 -228 CURVE SMOOTH",
"63 -228 OFFCURVE",
"81 -188 OFFCURVE",
"81 -102 CURVE SMOOTH"
);
}
);
};
hints = (
{
place = "{60, 96}";
},
{
horizontal = 1;
place = "{-247, 98}";
},
{
horizontal = 1;
place = "{520, 96}";
}
);
layerId = UUID0;
paths = (
{
closed = 1;
nodes = (
"60 550 OFFCURVE",
"80 530 OFFCURVE",
"108 530 CURVE SMOOTH",
"136 530 OFFCURVE",
"156 550 OFFCURVE",
"156 578 CURVE SMOOTH",
"156 606 OFFCURVE",
"136 626 OFFCURVE",
"108 626 CURVE SMOOTH",
"80 626 OFFCURVE",
"60 606 OFFCURVE",
"60 578 CURVE SMOOTH"
);
},
{
closed = 1;
nodes = (
"81 366 LINE",
"22 388 LINE",
"22 395 LINE",
"138 434 LINE",
"146 434 LINE",
"146 40 LINE SMOOTH",
"146 -91 OFFCURVE",
"142 -123 OFFCURVE",
"123 -158 CURVE SMOOTH",
"93 -214 OFFCURVE",
"43 -247 OFFCURVE",
"-13 -247 CURVE SMOOTH",
"-59 -247 OFFCURVE",
"-90 -223 OFFCURVE",
"-90 -189 CURVE SMOOTH",
"-90 -165 OFFCURVE",
"-74 -149 OFFCURVE",
"-52 -149 CURVE SMOOTH",
"-32 -149 OFFCURVE",
"-20 -161 OFFCURVE",
"-13 -188 CURVE SMOOTH",
"-6 -218 OFFCURVE",
"3 -228 OFFCURVE",
"24 -228 CURVE SMOOTH",
"63 -228 OFFCURVE",
"81 -188 OFFCURVE",
"81 -102 CURVE SMOOTH"
);
}
);
width = 218;
}
);
leftKerningGroup = j;
rightKerningGroup = j;
unicode = 006A;
},
{
glyphname = dotlessj;
layers = (
{
anchors = (
{
name = top;
position = "{113, 530}";
}
);
background = {
paths = (
{
closed = 1;
nodes = (
"81 366 LINE",
"22 388 LINE",
"22 395 LINE",
"138 434 LINE",
"146 434 LINE",
"146 40 LINE SMOOTH",
"146 -91 OFFCURVE",
"142 -123 OFFCURVE",
"123 -158 CURVE SMOOTH",
"93 -214 OFFCURVE",
"43 -247 OFFCURVE",
"-13 -247 CURVE SMOOTH",
"-59 -247 OFFCURVE",
"-90 -223 OFFCURVE",
"-90 -189 CURVE SMOOTH",
"-90 -165 OFFCURVE",
"-74 -149 OFFCURVE",
"-52 -149 CURVE SMOOTH",
"-32 -149 OFFCURVE",
"-20 -161 OFFCURVE",
"-13 -188 CURVE SMOOTH",
"-6 -218 OFFCURVE",
"3 -228 OFFCURVE",
"24 -228 CURVE SMOOTH",
"63 -228 OFFCURVE",
"81 -188 OFFCURVE",
"81 -102 CURVE SMOOTH"
);
}
);
};
hints = (
{
place = "{60, 96}";
},
{
horizontal = 1;
place = "{-247, 98}";
},
{
horizontal = 1;
place = "{520, 96}";
}
);
layerId = UUID0;
paths = (
{
closed = 1;
nodes = (
"81 366 LINE",
"22 388 LINE",
"22 395 LINE",
"138 434 LINE",
"146 434 LINE",
"146 40 LINE SMOOTH",
"146 -91 OFFCURVE",
"142 -123 OFFCURVE",
"123 -158 CURVE SMOOTH",
"93 -214 OFFCURVE",
"43 -247 OFFCURVE",
"-13 -247 CURVE SMOOTH",
"-59 -247 OFFCURVE",
"-90 -223 OFFCURVE",
"-90 -189 CURVE SMOOTH",
"-90 -165 OFFCURVE",
"-74 -149 OFFCURVE",
"-52 -149 CURVE SMOOTH",
"-32 -149 OFFCURVE",
"-20 -161 OFFCURVE",
"-13 -188 CURVE SMOOTH",
"-6 -218 OFFCURVE",
"3 -228 OFFCURVE",
"24 -228 CURVE SMOOTH",
"63 -228 OFFCURVE",
"81 -188 OFFCURVE",
"81 -102 CURVE SMOOTH"
);
}
);
width = 218;
}
);
leftKerningGroup = j;
rightKerningGroup = j;
unicode = 0237;
},
{
glyphname = k;
layers = (
{
anchors = (
{
name = bottom;
position = "{227, 0}";
}
);
background = {
paths = (
{
closed = 1;
nodes = (
"211 262 LINE",
"414 16 LINE",
"469 8 LINE",
"469 0 LINE",
"341 0 LINE",
"168 210 LINE"
);
},
{
closed = 1;
nodes = (
"204 8 LINE",
"204 0 LINE",
"18 0 LINE",
"18 8 LINE",
"79 16 LINE",
"79 653 LINE",
"20 675 LINE",
"20 682 LINE",
"136 721 LINE",
"144 721 LINE",
"144 16 LINE"
);
},
{
closed = 1;
nodes = (
"242 424 LINE",
"411 424 LINE",
"411 416 LINE",
"357 407 OFFCURVE",
"333 394 OFFCURVE",
"306 362 CURVE SMOOTH",
"122 145 LINE",
"122 163 LINE",
"286 360 LINE SMOOTH",
"298 375 OFFCURVE",
"304 385 OFFCURVE",
"304 392 CURVE SMOOTH",
"304 404 OFFCURVE",
"290 409 OFFCURVE",
"242 416 CURVE"
);
}
);
};
hints = (
{
place = "{79, 65}";
},
{
horizontal = 1;
place = "{721, -20}";
target = down;
type = TopGhost;
},
{
horizontal = 1;
place = "{0, 21}";
target = up;
type = BottomGhost;
}
);
layerId = UUID0;
paths = (
{
closed = 1;
nodes = (
"211 262 LINE",
"414 16 LINE",
"469 8 LINE",
"469 0 LINE",
"341 0 LINE",
"168 210 LINE"
);
},
{
closed = 1;
nodes = (
"204 8 LINE",
"204 0 LINE",
"18 0 LINE",
"18 8 LINE",
"79 16 LINE",
"79 653 LINE",
"20 675 LINE",
"20 682 LINE",
"136 721 LINE",
"144 721 LINE",
"144 16 LINE"
);
},
{
closed = 1;
nodes = (
"242 424 LINE",
"411 424 LINE",
"411 416 LINE",
"357 407 OFFCURVE",
"333 394 OFFCURVE",
"306 362 CURVE SMOOTH",
"122 145 LINE",
"122 163 LINE",
"286 360 LINE SMOOTH",
"298 375 OFFCURVE",
"304 385 OFFCURVE",
"304 392 CURVE SMOOTH",
"304 404 OFFCURVE",
"290 409 OFFCURVE",
"242 416 CURVE"
);
}
);
width = 457;
}
);
leftKerningGroup = h;
rightKerningGroup = k;
unicode = 006B;
},
{
glyphname = kgreenlandic;
layers = (
{
background = {
paths = (
{
closed = 1;
nodes = (
"218 262 LINE",
"421 16 LINE",
"476 8 LINE",
"476 0 LINE",
"348 0 LINE",
"175 210 LINE"
);
},
{
closed = 1;
nodes = (
"211 8 LINE",
"211 0 LINE",
"25 0 LINE",
"25 8 LINE",
"86 16 LINE",
"86 361 LINE",
"27 383 LINE",
"27 390 LINE",
"143 429 LINE",
"151 429 LINE",
"151 16 LINE"
);
},
{
closed = 1;
nodes = (
"249 424 LINE",
"418 424 LINE",
"418 416 LINE",
"364 407 OFFCURVE",
"340 394 OFFCURVE",
"313 362 CURVE SMOOTH",
"129 145 LINE",
"129 163 LINE",
"293 360 LINE SMOOTH",
"305 375 OFFCURVE",
"311 385 OFFCURVE",
"311 392 CURVE SMOOTH",
"311 404 OFFCURVE",
"297 409 OFFCURVE",
"249 416 CURVE"
);
}
);
};
hints = (
{
place = "{86, 65}";
},
{
horizontal = 1;
place = "{721, -20}";
target = down;
type = TopGhost;
},
{
horizontal = 1;
place = "{0, 21}";
target = up;
type = BottomGhost;
}
);
layerId = UUID0;
paths = (
{
closed = 1;
nodes = (
"218 262 LINE",
"421 16 LINE",
"476 8 LINE",
"476 0 LINE",
"348 0 LINE",
"175 210 LINE"
);
},
{
closed = 1;
nodes = (
"211 8 LINE",
"211 0 LINE",
"25 0 LINE",
"25 8 LINE",
"86 16 LINE",
"86 361 LINE",
"27 383 LINE",
"27 390 LINE",
"143 429 LINE",
"151 429 LINE",
"151 16 LINE"
);
},
{
closed = 1;
nodes = (
"249 424 LINE",
"418 424 LINE",
"418 416 LINE",
"364 407 OFFCURVE",
"340 394 OFFCURVE",
"313 362 CURVE SMOOTH",
"129 145 LINE",
"129 163 LINE",
"293 360 LINE SMOOTH",
"305 375 OFFCURVE",
"311 385 OFFCURVE",
"311 392 CURVE SMOOTH",
"311 404 OFFCURVE",
"297 409 OFFCURVE",
"249 416 CURVE"
);
}
);
width = 464;
}
);
unicode = 0138;
},
{
glyphname = l;
layers = (
{
anchors = (
{
name = bottom;
position = "{111, 0}";
}
);
background = {
paths = (
{
closed = 1;
nodes = (
"205 8 LINE",
"205 0 LINE",
"18 0 LINE",
"18 8 LINE",
"79 16 LINE",
"79 653 LINE",
"20 675 LINE",
"20 682 LINE",
"136 721 LINE",
"144 721 LINE",
"144 16 LINE"
);
}
);
};
hints = (
{
place = "{79, 65}";
},
{
horizontal = 1;
place = "{721, -20}";
target = down;
type = TopGhost;
},
{
horizontal = 1;
place = "{0, 21}";
target = up;
type = BottomGhost;
}
);
layerId = UUID0;
paths = (
{
closed = 1;
nodes = (
"205 8 LINE",
"205 0 LINE",
"18 0 LINE",
"18 8 LINE",
"79 16 LINE",
"79 653 LINE",
"20 675 LINE",
"20 682 LINE",
"136 721 LINE",
"144 721 LINE",
"144 16 LINE"
);
}
);
width = 223;
}
);
leftKerningGroup = l;
rightKerningGroup = l;
unicode = 006C;
},
{
glyphname = lslash;
layers = (
{
background = {
paths = (
{
closed = 1;
nodes = (
"287 412 LINE",
"11 253 LINE",
"11 271 LINE",
"287 431 LINE"
);
}
);
};
components = (
{
name = l;
transform = "{1, 0, 0, 1, 36, 0}";
}
);
layerId = UUID0;
paths = (
{
closed = 1;
nodes = (
"287 412 LINE",
"11 253 LINE",
"11 271 LINE",
"287 431 LINE"
);
}
);
width = 279;
}
);
leftKerningGroup = l;
rightKerningGroup = l;
unicode = 0142;
},
{
glyphname = m;
layers = (
{
background = {
paths = (
{
closed = 1;
nodes = (
"212 8 LINE",
"212 0 LINE",
"26 0 LINE",
"26 8 LINE",
"86 16 LINE",
"86 366 LINE",
"27 388 LINE",
"27 395 LINE",
"140 434 LINE",
"148 434 LINE",
"148 362 LINE",
"151 358 LINE",
"151 16 LINE"
);
},
{
closed = 1;
nodes = (
"143 361 LINE",
"184 409 OFFCURVE",
"227 434 OFFCURVE",
"271 434 CURVE SMOOTH",
"309 434 OFFCURVE",
"337 417 OFFCURVE",
"353 385 CURVE SMOOTH",
"362 367 OFFCURVE",
"364 346 OFFCURVE",
"364 271 CURVE SMOOTH",
"364 16 LINE",
"426 8 LINE",
"426 0 LINE",
"237 0 LINE",
"237 8 LINE",
"299 16 LINE",
"299 271 LINE SMOOTH",
"299 323 OFFCURVE",
"297 344 OFFCURVE",
"290 361 CURVE SMOOTH",
"280 385 OFFCURVE",
"259 397 OFFCURVE",
"230 397 CURVE SMOOTH",
"195 397 OFFCURVE",
"167 380 OFFCURVE",
"143 345 CURVE"
);
},
{
closed = 1;
nodes = (
"356 361 LINE",
"397 409 OFFCURVE",
"440 434 OFFCURVE",
"484 434 CURVE SMOOTH",
"522 434 OFFCURVE",
"550 417 OFFCURVE",
"566 385 CURVE SMOOTH",
"575 367 OFFCURVE",
"577 342 OFFCURVE",
"577 271 CURVE SMOOTH",
"577 16 LINE",
"639 8 LINE",
"639 0 LINE",
"451 0 LINE",
"451 8 LINE",
"512 16 LINE",
"512 271 LINE SMOOTH",
"512 323 OFFCURVE",
"510 344 OFFCURVE",
"503 361 CURVE SMOOTH",
"493 385 OFFCURVE",
"472 397 OFFCURVE",
"443 397 CURVE SMOOTH",
"408 397 OFFCURVE",
"380 380 OFFCURVE",
"356 345 CURVE"
);
}
);
};
hints = (
{
place = "{86, 65}";
},
{
place = "{299, 65}";
},
{
place = "{512, 65}";
},
{
horizontal = 1;
place = "{397, 37}";
},
{
horizontal = 1;
place = "{0, 21}";
target = up;
type = BottomGhost;
}
);
layerId = UUID0;
paths = (
{
closed = 1;
nodes = (
"212 8 LINE",
"212 0 LINE",
"26 0 LINE",
"26 8 LINE",
"86 16 LINE",
"86 366 LINE",
"27 388 LINE",
"27 395 LINE",
"140 434 LINE",
"148 434 LINE",
"148 362 LINE",
"151 358 LINE",
"151 16 LINE"
);
},
{
closed = 1;
nodes = (
"143 361 LINE",
"184 409 OFFCURVE",
"227 434 OFFCURVE",
"271 434 CURVE SMOOTH",
"309 434 OFFCURVE",
"337 417 OFFCURVE",
"353 385 CURVE SMOOTH",
"362 367 OFFCURVE",
"364 346 OFFCURVE",
"364 271 CURVE SMOOTH",
"364 16 LINE",
"426 8 LINE",
"426 0 LINE",
"237 0 LINE",
"237 8 LINE",
"299 16 LINE",
"299 271 LINE SMOOTH",
"299 323 OFFCURVE",
"297 344 OFFCURVE",
"290 361 CURVE SMOOTH",
"280 385 OFFCURVE",
"259 397 OFFCURVE",
"230 397 CURVE SMOOTH",
"195 397 OFFCURVE",
"167 380 OFFCURVE",
"143 345 CURVE"
);
},
{
closed = 1;
nodes = (
"356 361 LINE",
"397 409 OFFCURVE",
"440 434 OFFCURVE",
"484 434 CURVE SMOOTH",
"522 434 OFFCURVE",
"550 417 OFFCURVE",
"566 385 CURVE SMOOTH",
"575 367 OFFCURVE",
"577 342 OFFCURVE",
"577 271 CURVE SMOOTH",
"577 16 LINE",
"639 8 LINE",
"639 0 LINE",
"451 0 LINE",
"451 8 LINE",
"512 16 LINE",
"512 271 LINE SMOOTH",
"512 323 OFFCURVE",
"510 344 OFFCURVE",
"503 361 CURVE SMOOTH",
"493 385 OFFCURVE",
"472 397 OFFCURVE",
"443 397 CURVE SMOOTH",
"408 397 OFFCURVE",
"380 380 OFFCURVE",
"356 345 CURVE"
);
}
);
width = 652;
}
);
leftKerningGroup = n;
rightKerningGroup = n;
unicode = 006D;
},
{
glyphname = n;
layers = (
{
anchors = (
{
name = bottom;
position = "{237, 0}";
},
{
name = top;
position = "{234, 530}";
}
);
background = {
paths = (
{
closed = 1;
nodes = (
"212 8 LINE",
"212 0 LINE",
"25 0 LINE",
"25 8 LINE",
"86 16 LINE",
"86 361 LINE",
"27 383 LINE",
"27 390 LINE",
"140 429 LINE",
"148 429 LINE",
"148 362 LINE",
"151 358 LINE",
"151 16 LINE"
);
},
{
closed = 1;
nodes = (
"143 361 LINE",
"188 410 OFFCURVE",
"235 434 OFFCURVE",
"282 434 CURVE SMOOTH",
"323 434 OFFCURVE",
"360 415 OFFCURVE",
"375 385 CURVE SMOOTH",
"384 367 OFFCURVE",
"386 346 OFFCURVE",
"386 271 CURVE SMOOTH",
"386 16 LINE",
"446 8 LINE",
"446 0 LINE",
"260 0 LINE",
"260 8 LINE",
"321 16 LINE",
"321 271 LINE SMOOTH",
"321 322 OFFCURVE",
"319 344 OFFCURVE",
"311 361 CURVE SMOOTH",
"300 384 OFFCURVE",
"274 397 OFFCURVE",
"242 397 CURVE SMOOTH",
"205 397 OFFCURVE",
"172 380 OFFCURVE",
"143 345 CURVE"
);
}
);
};
hints = (
{
place = "{86, 65}";
},
{
place = "{321, 65}";
},
{
horizontal = 1;
place = "{397, 37}";
},
{
horizontal = 1;
place = "{0, 21}";
target = up;
type = BottomGhost;
}
);
layerId = UUID0;
paths = (
{
closed = 1;
nodes = (
"212 8 LINE",
"212 0 LINE",
"25 0 LINE",
"25 8 LINE",
"86 16 LINE",
"86 361 LINE",
"27 383 LINE",
"27 390 LINE",
"140 429 LINE",
"148 429 LINE",
"148 362 LINE",
"151 358 LINE",
"151 16 LINE"
);
},
{
closed = 1;
nodes = (
"143 361 LINE",
"188 410 OFFCURVE",
"235 434 OFFCURVE",
"282 434 CURVE SMOOTH",
"323 434 OFFCURVE",
"360 415 OFFCURVE",
"375 385 CURVE SMOOTH",
"384 367 OFFCURVE",
"386 346 OFFCURVE",
"386 271 CURVE SMOOTH",
"386 16 LINE",
"446 8 LINE",
"446 0 LINE",
"260 0 LINE",
"260 8 LINE",
"321 16 LINE",
"321 271 LINE SMOOTH",
"321 322 OFFCURVE",
"319 344 OFFCURVE",
"311 361 CURVE SMOOTH",
"300 384 OFFCURVE",
"274 397 OFFCURVE",
"242 397 CURVE SMOOTH",
"205 397 OFFCURVE",
"172 380 OFFCURVE",
"143 345 CURVE"
);
}
);
width = 462;
}
);
leftKerningGroup = n;
rightKerningGroup = n;
unicode = 006E;
},
{
glyphname = eng;
layers = (
{
background = {
paths = (
{
closed = 1;
nodes = (
"211 8 LINE",
"211 0 LINE",
"24 0 LINE",
"24 8 LINE",
"85 16 LINE",
"85 361 LINE",
"26 383 LINE",
"26 390 LINE",
"139 429 LINE",
"147 429 LINE",
"147 366 LINE",
"190 411 OFFCURVE",
"235 434 OFFCURVE",
"281 434 CURVE SMOOTH",
"322 434 OFFCURVE",
"359 415 OFFCURVE",
"374 385 CURVE SMOOTH",
"383 367 OFFCURVE",
"385 346 OFFCURVE",
"385 271 CURVE SMOOTH",
"385 40 LINE SMOOTH",
"385 -91 OFFCURVE",
"381 -123 OFFCURVE",
"362 -158 CURVE SMOOTH",
"332 -214 OFFCURVE",
"282 -247 OFFCURVE",
"226 -247 CURVE SMOOTH",
"180 -247 OFFCURVE",
"149 -223 OFFCURVE",
"149 -189 CURVE SMOOTH",
"149 -165 OFFCURVE",
"165 -149 OFFCURVE",
"187 -149 CURVE SMOOTH",
"207 -149 OFFCURVE",
"219 -161 OFFCURVE",
"226 -188 CURVE SMOOTH",
"233 -218 OFFCURVE",
"242 -228 OFFCURVE",
"263 -228 CURVE SMOOTH",
"302 -228 OFFCURVE",
"320 -188 OFFCURVE",
"320 -102 CURVE SMOOTH",
"320 271 LINE SMOOTH",
"320 322 OFFCURVE",
"318 344 OFFCURVE",
"310 361 CURVE SMOOTH",
"299 384 OFFCURVE",
"273 397 OFFCURVE",
"241 397 CURVE SMOOTH",
"207 397 OFFCURVE",
"177 383 OFFCURVE",
"150 354 CURVE",
"150 16 LINE"
);
}
);
};
hints = (
{
place = "{85, 65}";
},
{
place = "{320, 65}";
},
{
horizontal = 1;
place = "{-247, 98}";
},
{
horizontal = 1;
place = "{397, 37}";
}
);
layerId = UUID0;
paths = (
{
closed = 1;
nodes = (
"211 8 LINE",
"211 0 LINE",
"24 0 LINE",
"24 8 LINE",
"85 16 LINE",
"85 361 LINE",
"26 383 LINE",
"26 390 LINE",
"139 429 LINE",
"147 429 LINE",
"147 366 LINE",
"190 411 OFFCURVE",
"235 434 OFFCURVE",
"281 434 CURVE SMOOTH",
"322 434 OFFCURVE",
"359 415 OFFCURVE",
"374 385 CURVE SMOOTH",
"383 367 OFFCURVE",
"385 346 OFFCURVE",
"385 271 CURVE SMOOTH",
"385 40 LINE SMOOTH",
"385 -91 OFFCURVE",
"381 -123 OFFCURVE",
"362 -158 CURVE SMOOTH",
"332 -214 OFFCURVE",
"282 -247 OFFCURVE",
"226 -247 CURVE SMOOTH",
"180 -247 OFFCURVE",
"149 -223 OFFCURVE",
"149 -189 CURVE SMOOTH",
"149 -165 OFFCURVE",
"165 -149 OFFCURVE",
"187 -149 CURVE SMOOTH",
"207 -149 OFFCURVE",
"219 -161 OFFCURVE",
"226 -188 CURVE SMOOTH",
"233 -218 OFFCURVE",
"242 -228 OFFCURVE",
"263 -228 CURVE SMOOTH",
"302 -228 OFFCURVE",
"320 -188 OFFCURVE",
"320 -102 CURVE SMOOTH",
"320 271 LINE SMOOTH",
"320 322 OFFCURVE",
"318 344 OFFCURVE",
"310 361 CURVE SMOOTH",
"299 384 OFFCURVE",
"273 397 OFFCURVE",
"241 397 CURVE SMOOTH",
"207 397 OFFCURVE",
"177 383 OFFCURVE",
"150 354 CURVE",
"150 16 LINE"
);
}
);
width = 447;
}
);
leftKerningGroup = n;
rightKerningGroup = n;
unicode = 014B;
},
{
glyphname = o;
layers = (
{
anchors = (
{
name = bottom;
position = "{238, 0}";
},
{
name = top;
position = "{238, 530}";
}
);
background = {
paths = (
{
closed = 1;
nodes = (
"121 434 OFFCURVE",
"40 344 OFFCURVE",
"40 212 CURVE SMOOTH",
"40 80 OFFCURVE",
"121 -10 OFFCURVE",
"238 -10 CURVE SMOOTH",
"355 -10 OFFCURVE",
"436 80 OFFCURVE",
"436 212 CURVE SMOOTH",
"436 344 OFFCURVE",
"355 434 OFFCURVE",
"238 434 CURVE SMOOTH"
);
},
{
closed = 1;
nodes = (
"114 345 OFFCURVE",
"160 424 OFFCURVE",
"238 424 CURVE SMOOTH",
"315 424 OFFCURVE",
"362 345 OFFCURVE",
"362 212 CURVE SMOOTH",
"362 79 OFFCURVE",
"315 0 OFFCURVE",
"238 0 CURVE SMOOTH",
"160 0 OFFCURVE",
"114 79 OFFCURVE",
"114 212 CURVE SMOOTH"
);
}
);
};
hints = (
{
place = "{40, 74}";
},
{
place = "{362, 74}";
},
{
horizontal = 1;
place = "{434, -20}";
target = down;
type = TopGhost;
},
{
horizontal = 1;
place = "{-10, 21}";
target = up;
type = BottomGhost;
}
);
layerId = UUID0;
paths = (
{
closed = 1;
nodes = (
"121 434 OFFCURVE",
"40 344 OFFCURVE",
"40 212 CURVE SMOOTH",
"40 80 OFFCURVE",
"121 -10 OFFCURVE",
"238 -10 CURVE SMOOTH",
"355 -10 OFFCURVE",
"436 80 OFFCURVE",
"436 212 CURVE SMOOTH",
"436 344 OFFCURVE",
"355 434 OFFCURVE",
"238 434 CURVE SMOOTH"
);
},
{
closed = 1;
nodes = (
"114 345 OFFCURVE",
"160 424 OFFCURVE",
"238 424 CURVE SMOOTH",
"315 424 OFFCURVE",
"362 345 OFFCURVE",
"362 212 CURVE SMOOTH",
"362 79 OFFCURVE",
"315 0 OFFCURVE",
"238 0 CURVE SMOOTH",
"160 0 OFFCURVE",
"114 79 OFFCURVE",
"114 212 CURVE SMOOTH"
);
}
);
width = 476;
}
);
leftKerningGroup = o;
rightKerningGroup = o;
unicode = 006F;
},
{
glyphname = oslash;
layers = (
{
background = {
paths = (
{
closed = 1;
nodes = (
"391 490 LINE",
"81 -65 LINE",
"104 -65 LINE",
"414 490 LINE"
);
},
{
closed = 1;
nodes = (
"121 434 OFFCURVE",
"40 344 OFFCURVE",
"40 212 CURVE SMOOTH",
"40 80 OFFCURVE",
"121 -10 OFFCURVE",
"238 -10 CURVE SMOOTH",
"355 -10 OFFCURVE",
"436 80 OFFCURVE",
"436 212 CURVE SMOOTH",
"436 344 OFFCURVE",
"355 434 OFFCURVE",
"238 434 CURVE SMOOTH"
);
},
{
closed = 1;
nodes = (
"114 345 OFFCURVE",
"160 424 OFFCURVE",
"238 424 CURVE SMOOTH",
"315 424 OFFCURVE",
"362 345 OFFCURVE",
"362 212 CURVE SMOOTH",
"362 79 OFFCURVE",
"315 0 OFFCURVE",
"238 0 CURVE SMOOTH",
"160 0 OFFCURVE",
"114 79 OFFCURVE",
"114 212 CURVE SMOOTH"
);
}
);
};
hints = (
{
place = "{40, 74}";
},
{
place = "{362, 74}";
},
{
horizontal = 1;
place = "{434, -20}";
target = down;
type = TopGhost;
},
{
horizontal = 1;
place = "{-10, 21}";
target = up;
type = BottomGhost;
}
);
layerId = UUID0;
paths = (
{
closed = 1;
nodes = (
"391 490 LINE",
"81 -65 LINE",
"104 -65 LINE",
"414 490 LINE"
);
},
{
closed = 1;
nodes = (
"121 434 OFFCURVE",
"40 344 OFFCURVE",
"40 212 CURVE SMOOTH",
"40 80 OFFCURVE",
"121 -10 OFFCURVE",
"238 -10 CURVE SMOOTH",
"355 -10 OFFCURVE",
"436 80 OFFCURVE",
"436 212 CURVE SMOOTH",
"436 344 OFFCURVE",
"355 434 OFFCURVE",
"238 434 CURVE SMOOTH"
);
},
{
closed = 1;
nodes = (
"114 345 OFFCURVE",
"160 424 OFFCURVE",
"238 424 CURVE SMOOTH",
"315 424 OFFCURVE",
"362 345 OFFCURVE",
"362 212 CURVE SMOOTH",
"362 79 OFFCURVE",
"315 0 OFFCURVE",
"238 0 CURVE SMOOTH",
"160 0 OFFCURVE",
"114 79 OFFCURVE",
"114 212 CURVE SMOOTH"
);
}
);
width = 476;
}
);
leftKerningGroup = o;
rightKerningGroup = o;
unicode = 00F8;
},
{
glyphname = oslashacute;
layers = (
{
background = {
paths = (
{
closed = 1;
nodes = (
"391 490 LINE",
"81 -65 LINE",
"104 -65 LINE",
"414 490 LINE"
);
},
{
closed = 1;
nodes = (
"121 434 OFFCURVE",
"40 344 OFFCURVE",
"40 212 CURVE SMOOTH",
"40 80 OFFCURVE",
"121 -10 OFFCURVE",
"238 -10 CURVE SMOOTH",
"355 -10 OFFCURVE",
"436 80 OFFCURVE",
"436 212 CURVE SMOOTH",
"436 344 OFFCURVE",
"355 434 OFFCURVE",
"238 434 CURVE SMOOTH"
);
},
{
closed = 1;
nodes = (
"114 345 OFFCURVE",
"160 424 OFFCURVE",
"238 424 CURVE SMOOTH",
"315 424 OFFCURVE",
"362 345 OFFCURVE",
"362 212 CURVE SMOOTH",
"362 79 OFFCURVE",
"315 0 OFFCURVE",
"238 0 CURVE SMOOTH",
"160 0 OFFCURVE",
"114 79 OFFCURVE",
"114 212 CURVE SMOOTH"
);
}
);
};
components = (
{
name = acute;
transform = "{1, 0, 0, 1, 185, 0}";
}
);
layerId = UUID0;
paths = (
{
closed = 1;
nodes = (
"391 490 LINE",
"81 -65 LINE",
"104 -65 LINE",
"414 490 LINE"
);
},
{
closed = 1;
nodes = (
"121 434 OFFCURVE",
"40 344 OFFCURVE",
"40 212 CURVE SMOOTH",
"40 80 OFFCURVE",
"121 -10 OFFCURVE",
"238 -10 CURVE SMOOTH",
"355 -10 OFFCURVE",
"436 80 OFFCURVE",
"436 212 CURVE SMOOTH",
"436 344 OFFCURVE",
"355 434 OFFCURVE",
"238 434 CURVE SMOOTH"
);
},
{
closed = 1;
nodes = (
"114 345 OFFCURVE",
"160 424 OFFCURVE",
"238 424 CURVE SMOOTH",
"315 424 OFFCURVE",
"362 345 OFFCURVE",
"362 212 CURVE SMOOTH",
"362 79 OFFCURVE",
"315 0 OFFCURVE",
"238 0 CURVE SMOOTH",
"160 0 OFFCURVE",
"114 79 OFFCURVE",
"114 212 CURVE SMOOTH"
);
}
);
width = 476;
}
);
leftKerningGroup = o;
rightKerningGroup = o;
unicode = 01FF;
},
{
glyphname = oe;
layers = (
{
background = {
paths = (
{
closed = 1;
nodes = (
"121 434 OFFCURVE",
"40 344 OFFCURVE",
"40 212 CURVE SMOOTH",
"40 80 OFFCURVE",
"121 -10 OFFCURVE",
"238 -10 CURVE SMOOTH",
"347 -10 OFFCURVE",
"428 80 OFFCURVE",
"428 212 CURVE SMOOTH",
"428 344 OFFCURVE",
"347 434 OFFCURVE",
"238 434 CURVE SMOOTH"
);
},
{
closed = 1;
nodes = (
"114 345 OFFCURVE",
"160 424 OFFCURVE",
"238 424 CURVE SMOOTH",
"315 424 OFFCURVE",
"362 345 OFFCURVE",
"362 212 CURVE SMOOTH",
"362 79 OFFCURVE",
"315 0 OFFCURVE",
"238 0 CURVE SMOOTH",
"160 0 OFFCURVE",
"114 79 OFFCURVE",
"114 212 CURVE SMOOTH"
);
}
);
};
components = (
{
name = e;
transform = "{1, 0, 0, 1, 322, 0}";
}
);
hints = (
{
place = "{40, 74}";
},
{
place = "{362, 74}";
},
{
horizontal = 1;
place = "{434, -20}";
target = down;
type = TopGhost;
},
{
horizontal = 1;
place = "{-10, 21}";
target = up;
type = BottomGhost;
}
);
layerId = UUID0;
paths = (
{
closed = 1;
nodes = (
"121 434 OFFCURVE",
"40 344 OFFCURVE",
"40 212 CURVE SMOOTH",
"40 80 OFFCURVE",
"121 -10 OFFCURVE",
"238 -10 CURVE SMOOTH",
"347 -10 OFFCURVE",
"428 80 OFFCURVE",
"428 212 CURVE SMOOTH",
"428 344 OFFCURVE",
"347 434 OFFCURVE",
"238 434 CURVE SMOOTH"
);
},
{
closed = 1;
nodes = (
"114 345 OFFCURVE",
"160 424 OFFCURVE",
"238 424 CURVE SMOOTH",
"315 424 OFFCURVE",
"362 345 OFFCURVE",
"362 212 CURVE SMOOTH",
"362 79 OFFCURVE",
"315 0 OFFCURVE",
"238 0 CURVE SMOOTH",
"160 0 OFFCURVE",
"114 79 OFFCURVE",
"114 212 CURVE SMOOTH"
);
}
);
width = 745;
}
);
leftKerningGroup = o;
rightKerningGroup = e;
unicode = 0153;
},
{
glyphname = p;
layers = (
{
background = {
paths = (
{
closed = 1;
nodes = (
"144 -216 LINE",
"234 -227 LINE",
"234 -234 LINE",
"18 -234 LINE",
"18 -226 LINE",
"79 -218 LINE",
"79 366 LINE",
"20 388 LINE",
"20 395 LINE",
"133 434 LINE",
"141 434 LINE",
"141 363 LINE",
"145 363 LINE",
"174 407 OFFCURVE",
"223 434 OFFCURVE",
"275 434 CURVE SMOOTH",
"365 434 OFFCURVE",
"431 346 OFFCURVE",
"431 224 CURVE SMOOTH",
"431 87 OFFCURVE",
"346 -10 OFFCURVE",
"226 -10 CURVE SMOOTH",
"197 -10 OFFCURVE",
"171 -4 OFFCURVE",
"144 8 CURVE"
);
},
{
closed = 1;
nodes = (
"305 0 OFFCURVE",
"358 88 OFFCURVE",
"358 210 CURVE SMOOTH",
"358 328 OFFCURVE",
"310 404 OFFCURVE",
"237 404 CURVE SMOOTH",
"196 404 OFFCURVE",
"160 381 OFFCURVE",
"144 344 CURVE",
"144 71 LINE SMOOTH",
"144 33 OFFCURVE",
"185 0 OFFCURVE",
"233 0 CURVE SMOOTH"
);
}
);
};
hints = (
{
place = "{79, 65}";
},
{
place = "{358, 73}";
},
{
horizontal = 1;
place = "{404, 30}";
},
{
horizontal = 1;
place = "{-266, 21}";
target = up;
type = BottomGhost;
}
);
layerId = UUID0;
paths = (
{
closed = 1;
nodes = (
"144 -216 LINE",
"234 -227 LINE",
"234 -234 LINE",
"18 -234 LINE",
"18 -226 LINE",
"79 -218 LINE",
"79 366 LINE",
"20 388 LINE",
"20 395 LINE",
"133 434 LINE",
"141 434 LINE",
"141 363 LINE",
"145 363 LINE",
"174 407 OFFCURVE",
"223 434 OFFCURVE",
"275 434 CURVE SMOOTH",
"365 434 OFFCURVE",
"431 346 OFFCURVE",
"431 224 CURVE SMOOTH",
"431 87 OFFCURVE",
"346 -10 OFFCURVE",
"226 -10 CURVE SMOOTH",
"197 -10 OFFCURVE",
"171 -4 OFFCURVE",
"144 8 CURVE"
);
},
{
closed = 1;
nodes = (
"305 0 OFFCURVE",
"358 88 OFFCURVE",
"358 210 CURVE SMOOTH",
"358 328 OFFCURVE",
"310 404 OFFCURVE",
"237 404 CURVE SMOOTH",
"196 404 OFFCURVE",
"160 381 OFFCURVE",
"144 344 CURVE",
"144 71 LINE SMOOTH",
"144 33 OFFCURVE",
"185 0 OFFCURVE",
"233 0 CURVE SMOOTH"
);
}
);
width = 472;
}
);
rightKerningGroup = b;
unicode = 0070;
},
{
glyphname = thorn;
layers = (
{
background = {
paths = (
{
closed = 1;
nodes = (
"425 87 OFFCURVE",
"340 -10 OFFCURVE",
"220 -10 CURVE SMOOTH",
"191 -10 OFFCURVE",
"165 -4 OFFCURVE",
"138 8 CURVE",
"138 -216 LINE",
"228 -227 LINE",
"228 -234 LINE",
"12 -234 LINE",
"12 -226 LINE",
"73 -218 LINE",
"73 653 LINE",
"14 675 LINE",
"14 682 LINE",
"130 721 LINE",
"138 721 LINE",
"138 377 LINE",
"173 415 OFFCURVE",
"214 434 OFFCURVE",
"261 434 CURVE SMOOTH",
"361 434 OFFCURVE",
"425 347 OFFCURVE",
"425 224 CURVE SMOOTH"
);
},
{
closed = 1;
nodes = (
"299 0 OFFCURVE",
"353 85 OFFCURVE",
"353 207 CURVE SMOOTH",
"353 329 OFFCURVE",
"305 404 OFFCURVE",
"227 404 CURVE SMOOTH",
"191 404 OFFCURVE",
"158 388 OFFCURVE",
"138 362 CURVE",
"138 71 LINE SMOOTH",
"138 33 OFFCURVE",
"179 0 OFFCURVE",
"227 0 CURVE SMOOTH"
);
}
);
};
hints = (
{
place = "{73, 65}";
},
{
place = "{353, 72}";
},
{
horizontal = 1;
place = "{404, 30}";
},
{
horizontal = 1;
place = "{721, -20}";
target = down;
type = TopGhost;
},
{
horizontal = 1;
place = "{-266, 21}";
target = up;
type = BottomGhost;
}
);
layerId = UUID0;
paths = (
{
closed = 1;
nodes = (
"425 87 OFFCURVE",
"340 -10 OFFCURVE",
"220 -10 CURVE SMOOTH",
"191 -10 OFFCURVE",
"165 -4 OFFCURVE",
"138 8 CURVE",
"138 -216 LINE",
"228 -227 LINE",
"228 -234 LINE",
"12 -234 LINE",
"12 -226 LINE",
"73 -218 LINE",
"73 653 LINE",
"14 675 LINE",
"14 682 LINE",
"130 721 LINE",
"138 721 LINE",
"138 377 LINE",
"173 415 OFFCURVE",
"214 434 OFFCURVE",
"261 434 CURVE SMOOTH",
"361 434 OFFCURVE",
"425 347 OFFCURVE",
"425 224 CURVE SMOOTH"
);
},
{
closed = 1;
nodes = (
"299 0 OFFCURVE",
"353 85 OFFCURVE",
"353 207 CURVE SMOOTH",
"353 329 OFFCURVE",
"305 404 OFFCURVE",
"227 404 CURVE SMOOTH",
"191 404 OFFCURVE",
"158 388 OFFCURVE",
"138 362 CURVE",
"138 71 LINE SMOOTH",
"138 33 OFFCURVE",
"179 0 OFFCURVE",
"227 0 CURVE SMOOTH"
);
}
);
width = 466;
}
);
leftKerningGroup = b;
rightKerningGroup = b;
unicode = 00FE;
},
{
glyphname = q;
layers = (
{
background = {
paths = (
{
closed = 1;
nodes = (
"330 -216 LINE",
"330 49 LINE",
"297 10 OFFCURVE",
"254 -10 OFFCURVE",
"207 -10 CURVE SMOOTH",
"109 -10 OFFCURVE",
"40 76 OFFCURVE",
"40 198 CURVE SMOOTH",
"40 333 OFFCURVE",
"127 434 OFFCURVE",
"243 434 CURVE SMOOTH",
"283 434 OFFCURVE",
"319 422 OFFCURVE",
"353 397 CURVE",
"357 397 LINE",
"384 424 LINE",
"395 424 LINE",
"395 -218 LINE",
"456 -226 LINE",
"456 -234 LINE",
"240 -234 LINE",
"240 -227 LINE"
);
},
{
closed = 1;
nodes = (
"166 424 OFFCURVE",
"114 342 OFFCURVE",
"114 216 CURVE SMOOTH",
"114 95 OFFCURVE",
"162 20 OFFCURVE",
"240 20 CURVE SMOOTH",
"275 20 OFFCURVE",
"309 36 OFFCURVE",
"330 62 CURVE",
"330 323 LINE SMOOTH",
"330 387 OFFCURVE",
"299 424 OFFCURVE",
"246 424 CURVE SMOOTH"
);
}
);
};
hints = (
{
place = "{40, 74}";
},
{
place = "{330, 65}";
},
{
horizontal = 1;
place = "{-10, 30}";
},
{
horizontal = 1;
place = "{-266, 21}";
target = up;
type = BottomGhost;
},
{
horizontal = 1;
place = "{434, -20}";
target = down;
type = TopGhost;
}
);
layerId = UUID0;
paths = (
{
closed = 1;
nodes = (
"330 -216 LINE",
"330 49 LINE",
"297 10 OFFCURVE",
"254 -10 OFFCURVE",
"207 -10 CURVE SMOOTH",
"109 -10 OFFCURVE",
"40 76 OFFCURVE",
"40 198 CURVE SMOOTH",
"40 333 OFFCURVE",
"127 434 OFFCURVE",
"243 434 CURVE SMOOTH",
"283 434 OFFCURVE",
"319 422 OFFCURVE",
"353 397 CURVE",
"357 397 LINE",
"384 424 LINE",
"395 424 LINE",
"395 -218 LINE",
"456 -226 LINE",
"456 -234 LINE",
"240 -234 LINE",
"240 -227 LINE"
);
},
{
closed = 1;
nodes = (
"166 424 OFFCURVE",
"114 342 OFFCURVE",
"114 216 CURVE SMOOTH",
"114 95 OFFCURVE",
"162 20 OFFCURVE",
"240 20 CURVE SMOOTH",
"275 20 OFFCURVE",
"309 36 OFFCURVE",
"330 62 CURVE",
"330 323 LINE SMOOTH",
"330 387 OFFCURVE",
"299 424 OFFCURVE",
"246 424 CURVE SMOOTH"
);
}
);
width = 467;
}
);
leftKerningGroup = d;
unicode = 0071;
},
{
glyphname = r;
layers = (
{
anchors = (
{
name = bottom;
position = "{117, 0}";
},
{
name = top;
position = "{169, 530}";
}
);
background = {
paths = (
{
closed = 1;
nodes = (
"144 340 LINE",
"182 402 OFFCURVE",
"219 434 OFFCURVE",
"253 434 CURVE SMOOTH",
"280 434 OFFCURVE",
"301 413 OFFCURVE",
"301 388 CURVE SMOOTH",
"301 366 OFFCURVE",
"284 350 OFFCURVE",
"263 350 CURVE SMOOTH",
"234 350 OFFCURVE",
"232 384 OFFCURVE",
"207 384 CURVE SMOOTH",
"186 384 OFFCURVE",
"160 355 OFFCURVE",
"151 321 CURVE"
);
},
{
closed = 1;
nodes = (
"231 8 LINE",
"231 0 LINE",
"25 0 LINE",
"25 8 LINE",
"86 16 LINE",
"86 366 LINE",
"27 388 LINE",
"27 395 LINE",
"140 434 LINE",
"148 434 LINE",
"148 344 LINE",
"151 340 LINE",
"151 16 LINE"
);
}
);
};
hints = (
{
place = "{86, 65}";
},
{
place = "{86, 215}";
},
{
horizontal = 1;
place = "{350, 84}";
},
{
horizontal = 1;
place = "{384, 50}";
},
{
horizontal = 1;
place = "{0, 21}";
target = up;
type = BottomGhost;
}
);
layerId = UUID0;
paths = (
{
closed = 1;
nodes = (
"144 340 LINE",
"182 402 OFFCURVE",
"219 434 OFFCURVE",
"253 434 CURVE SMOOTH",
"280 434 OFFCURVE",
"301 413 OFFCURVE",
"301 388 CURVE SMOOTH",
"301 366 OFFCURVE",
"284 350 OFFCURVE",
"263 350 CURVE SMOOTH",
"234 350 OFFCURVE",
"232 384 OFFCURVE",
"207 384 CURVE SMOOTH",
"186 384 OFFCURVE",
"160 355 OFFCURVE",
"151 321 CURVE"
);
},
{
closed = 1;
nodes = (
"231 8 LINE",
"231 0 LINE",
"25 0 LINE",
"25 8 LINE",
"86 16 LINE",
"86 366 LINE",
"27 388 LINE",
"27 395 LINE",
"140 434 LINE",
"148 434 LINE",
"148 344 LINE",
"151 340 LINE",
"151 16 LINE"
);
}
);
width = 315;
}
);
leftKerningGroup = n;
rightKerningGroup = r;
unicode = 0072;
},
{
glyphname = s;
layers = (
{
anchors = (
{
name = bottom;
position = "{165, 0}";
},
{
name = top;
position = "{170, 530}";
}
);
background = {
paths = (
{
closed = 1;
nodes = (
"228 434 OFFCURVE",
"264 428 OFFCURVE",
"285 420 CURVE",
"285 309 LINE",
"274 309 LINE",
"256 389 OFFCURVE",
"229 423 OFFCURVE",
"181 423 CURVE SMOOTH",
"137 423 OFFCURVE",
"108 394 OFFCURVE",
"108 348 CURVE SMOOTH",
"108 228 OFFCURVE",
"302 272 OFFCURVE",
"302 122 CURVE SMOOTH",
"302 41 OFFCURVE",
"246 -10 OFFCURVE",
"158 -10 CURVE SMOOTH",
"125 -10 OFFCURVE",
"81 -2 OFFCURVE",
"53 8 CURVE",
"48 138 LINE",
"60 138 LINE",
"74 45 OFFCURVE",
"107 1 OFFCURVE",
"162 1 CURVE SMOOTH",
"211 1 OFFCURVE",
"243 35 OFFCURVE",
"243 86 CURVE SMOOTH",
"243 212 OFFCURVE",
"48 171 OFFCURVE",
"48 316 CURVE SMOOTH",
"48 391 OFFCURVE",
"101 434 OFFCURVE",
"195 434 CURVE SMOOTH"
);
}
);
};
hints = (
{
place = "{48, 60}";
},
{
place = "{243, 42}";
},
{
place = "{243, 59}";
},
{
horizontal = 1;
place = "{434, -20}";
target = down;
type = TopGhost;
},
{
horizontal = 1;
place = "{-10, 21}";
target = up;
type = BottomGhost;
}
);
layerId = UUID0;
paths = (
{
closed = 1;
nodes = (
"228 434 OFFCURVE",
"264 428 OFFCURVE",
"285 420 CURVE",
"285 309 LINE",
"274 309 LINE",
"256 389 OFFCURVE",
"229 423 OFFCURVE",
"181 423 CURVE SMOOTH",
"137 423 OFFCURVE",
"108 394 OFFCURVE",
"108 348 CURVE SMOOTH",
"108 228 OFFCURVE",
"302 272 OFFCURVE",
"302 122 CURVE SMOOTH",
"302 41 OFFCURVE",
"246 -10 OFFCURVE",
"158 -10 CURVE SMOOTH",
"125 -10 OFFCURVE",
"81 -2 OFFCURVE",
"53 8 CURVE",
"48 138 LINE",
"60 138 LINE",
"74 45 OFFCURVE",
"107 1 OFFCURVE",
"162 1 CURVE SMOOTH",
"211 1 OFFCURVE",
"243 35 OFFCURVE",
"243 86 CURVE SMOOTH",
"243 212 OFFCURVE",
"48 171 OFFCURVE",
"48 316 CURVE SMOOTH",
"48 391 OFFCURVE",
"101 434 OFFCURVE",
"195 434 CURVE SMOOTH"
);
}
);
width = 344;
}
);
leftKerningGroup = s;
rightKerningGroup = s;
unicode = 0073;
},
{
glyphname = germandbls;
layers = (
{
background = {
paths = (
{
closed = 1;
nodes = (
"182 733 OFFCURVE",
"130 705 OFFCURVE",
"101 656 CURVE SMOOTH",
"81 621 OFFCURVE",
"77 590 OFFCURVE",
"77 455 CURVE SMOOTH",
"77 16 LINE",
"16 8 LINE",
"16 0 LINE",
"142 0 LINE",
"142 560 LINE SMOOTH",
"142 668 OFFCURVE",
"172 721 OFFCURVE",
"234 721 CURVE SMOOTH",
"286 721 OFFCURVE",
"317 684 OFFCURVE",
"317 620 CURVE SMOOTH",
"317 502 OFFCURVE",
"221 502 OFFCURVE",
"221 392 CURVE SMOOTH",
"221 235 OFFCURVE",
"417 246 OFFCURVE",
"417 96 CURVE SMOOTH",
"417 37 OFFCURVE",
"383 1 OFFCURVE",
"327 1 CURVE SMOOTH",
"265 1 OFFCURVE",
"226 47 OFFCURVE",
"213 138 CURVE",
"201 138 LINE",
"206 9 LINE",
"241 -2 OFFCURVE",
"292 -10 OFFCURVE",
"327 -10 CURVE SMOOTH",
"418 -10 OFFCURVE",
"475 46 OFFCURVE",
"475 134 CURVE SMOOTH",
"475 320 OFFCURVE",
"239 292 OFFCURVE",
"239 416 CURVE SMOOTH",
"239 511 OFFCURVE",
"381 518 OFFCURVE",
"381 625 CURVE SMOOTH",
"381 690 OFFCURVE",
"327 733 OFFCURVE",
"246 733 CURVE SMOOTH"
);
}
);
};
hints = (
{
place = "{77, 65}";
},
{
place = "{211, 23}";
},
{
place = "{317, 64}";
},
{
place = "{427, 58}";
},
{
horizontal = 1;
place = "{733, -20}";
target = down;
type = TopGhost;
},
{
horizontal = 1;
place = "{-10, 21}";
target = up;
type = BottomGhost;
}
);
layerId = UUID0;
paths = (
{
closed = 1;
nodes = (
"182 733 OFFCURVE",
"130 705 OFFCURVE",
"101 656 CURVE SMOOTH",
"81 621 OFFCURVE",
"77 590 OFFCURVE",
"77 455 CURVE SMOOTH",
"77 16 LINE",
"16 8 LINE",
"16 0 LINE",
"142 0 LINE",
"142 560 LINE SMOOTH",
"142 668 OFFCURVE",
"172 721 OFFCURVE",
"234 721 CURVE SMOOTH",
"286 721 OFFCURVE",
"317 684 OFFCURVE",
"317 620 CURVE SMOOTH",
"317 502 OFFCURVE",
"221 502 OFFCURVE",
"221 392 CURVE SMOOTH",
"221 235 OFFCURVE",
"417 246 OFFCURVE",
"417 96 CURVE SMOOTH",
"417 37 OFFCURVE",
"383 1 OFFCURVE",
"327 1 CURVE SMOOTH",
"265 1 OFFCURVE",
"226 47 OFFCURVE",
"213 138 CURVE",
"201 138 LINE",
"206 9 LINE",
"241 -2 OFFCURVE",
"292 -10 OFFCURVE",
"327 -10 CURVE SMOOTH",
"418 -10 OFFCURVE",
"475 46 OFFCURVE",
"475 134 CURVE SMOOTH",
"475 320 OFFCURVE",
"239 292 OFFCURVE",
"239 416 CURVE SMOOTH",
"239 511 OFFCURVE",
"381 518 OFFCURVE",
"381 625 CURVE SMOOTH",
"381 690 OFFCURVE",
"327 733 OFFCURVE",
"246 733 CURVE SMOOTH"
);
}
);
width = 504;
}
);
leftKerningGroup = h;
unicode = 00DF;
},
{
glyphname = t;
layers = (
{
anchors = (
{
name = bottom;
position = "{156, 0}";
}
);
background = {
paths = (
{
closed = 1;
nodes = (
"138 519 LINE",
"138 424 LINE",
"252 424 LINE",
"246 408 LINE",
"138 408 LINE",
"138 102 LINE SMOOTH",
"138 79 OFFCURVE",
"142 61 OFFCURVE",
"149 50 CURVE SMOOTH",
"157 34 OFFCURVE",
"173 26 OFFCURVE",
"194 26 CURVE SMOOTH",
"216 26 OFFCURVE",
"234 36 OFFCURVE",
"258 60 CURVE",
"262 57 LINE",
"242 16 OFFCURVE",
"203 -10 OFFCURVE",
"161 -10 CURVE SMOOTH",
"140 -10 OFFCURVE",
"119 -3 OFFCURVE",
"104 8 CURVE SMOOTH",
"82 24 OFFCURVE",
"73 47 OFFCURVE",
"73 89 CURVE SMOOTH",
"73 409 LINE",
"26 409 LINE",
"24 414 LINE",
"134 520 LINE"
);
}
);
};
hints = (
{
place = "{73, 65}";
},
{
horizontal = 1;
place = "{-10, 36}";
},
{
horizontal = 1;
place = "{520, -20}";
target = down;
type = TopGhost;
}
);
layerId = UUID0;
paths = (
{
closed = 1;
nodes = (
"138 519 LINE",
"138 424 LINE",
"252 424 LINE",
"246 408 LINE",
"138 408 LINE",
"138 102 LINE SMOOTH",
"138 79 OFFCURVE",
"142 61 OFFCURVE",
"149 50 CURVE SMOOTH",
"157 34 OFFCURVE",
"173 26 OFFCURVE",
"194 26 CURVE SMOOTH",
"216 26 OFFCURVE",
"234 36 OFFCURVE",
"258 60 CURVE",
"262 57 LINE",
"242 16 OFFCURVE",
"203 -10 OFFCURVE",
"161 -10 CURVE SMOOTH",
"140 -10 OFFCURVE",
"119 -3 OFFCURVE",
"104 8 CURVE SMOOTH",
"82 24 OFFCURVE",
"73 47 OFFCURVE",
"73 89 CURVE SMOOTH",
"73 409 LINE",
"26 409 LINE",
"24 414 LINE",
"134 520 LINE"
);
}
);
width = 268;
}
);
leftKerningGroup = t;
rightKerningGroup = t;
unicode = 0074;
},
{
glyphname = tbar;
layers = (
{
background = {
paths = (
{
closed = 1;
nodes = (
"29 327 LINE",
"256 327 LINE",
"256 310 LINE",
"29 310 LINE"
);
}
);
};
components = (
{
name = t;
transform = "{1, 0, 0, 1, 4, 0}";
}
);
layerId = UUID0;
paths = (
{
closed = 1;
nodes = (
"29 327 LINE",
"256 327 LINE",
"256 310 LINE",
"29 310 LINE"
);
}
);
width = 284;
}
);
leftKerningGroup = t;
rightKerningGroup = t;
unicode = 0167;
},
{
glyphname = u;
layers = (
{
anchors = (
{
name = bottom;
position = "{210, 0}";
},
{
name = top;
position = "{220, 530}";
}
);
background = {
paths = (
{
closed = 1;
nodes = (
"303 80 LINE",
"278 46 OFFCURVE",
"245 28 OFFCURVE",
"211 28 CURVE SMOOTH",
"183 28 OFFCURVE",
"160 41 OFFCURVE",
"150 63 CURVE SMOOTH",
"142 80 OFFCURVE",
"140 101 OFFCURVE",
"140 153 CURVE SMOOTH",
"140 424 LINE",
"15 424 LINE",
"15 416 LINE",
"75 408 LINE",
"75 153 LINE SMOOTH",
"75 78 OFFCURVE",
"77 57 OFFCURVE",
"86 39 CURVE SMOOTH",
"101 9 OFFCURVE",
"135 -10 OFFCURVE",
"176 -10 CURVE SMOOTH",
"222 -10 OFFCURVE",
"263 14 OFFCURVE",
"303 64 CURVE"
);
},
{
closed = 1;
nodes = (
"301 408 LINE",
"301 70 LINE",
"303 64 LINE",
"306 63 LINE",
"306 -5 LINE",
"312 -5 LINE",
"421 45 LINE",
"421 50 LINE",
"366 62 LINE",
"366 424 LINE",
"241 424 LINE",
"241 416 LINE"
);
}
);
};
hints = (
{
place = "{75, 65}";
},
{
place = "{301, 65}";
},
{
horizontal = 1;
place = "{-10, 38}";
},
{
horizontal = 1;
place = "{424, -20}";
target = down;
type = TopGhost;
}
);
layerId = UUID0;
paths = (
{
closed = 1;
nodes = (
"303 80 LINE",
"278 46 OFFCURVE",
"245 28 OFFCURVE",
"211 28 CURVE SMOOTH",
"183 28 OFFCURVE",
"160 41 OFFCURVE",
"150 63 CURVE SMOOTH",
"142 80 OFFCURVE",
"140 101 OFFCURVE",
"140 153 CURVE SMOOTH",
"140 424 LINE",
"15 424 LINE",
"15 416 LINE",
"75 408 LINE",
"75 153 LINE SMOOTH",
"75 78 OFFCURVE",
"77 57 OFFCURVE",
"86 39 CURVE SMOOTH",
"101 9 OFFCURVE",
"135 -10 OFFCURVE",
"176 -10 CURVE SMOOTH",
"222 -10 OFFCURVE",
"263 14 OFFCURVE",
"303 64 CURVE"
);
},
{
closed = 1;
nodes = (
"301 408 LINE",
"301 70 LINE",
"303 64 LINE",
"306 63 LINE",
"306 -5 LINE",
"312 -5 LINE",
"421 45 LINE",
"421 50 LINE",
"366 62 LINE",
"366 424 LINE",
"241 424 LINE",
"241 416 LINE"
);
}
);
width = 443;
}
);
leftKerningGroup = u;
rightKerningGroup = u;
unicode = 0075;
},
{
glyphname = v;
layers = (
{
background = {
paths = (
{
closed = 1;
nodes = (
"219 -3 LINE",
"72 374 LINE SMOOTH",
"60 405 OFFCURVE",
"48 413 OFFCURVE",
"2 416 CURVE",
"2 424 LINE",
"195 424 LINE",
"195 416 LINE",
"147 413 OFFCURVE",
"138 410 OFFCURVE",
"138 399 CURVE SMOOTH",
"138 394 OFFCURVE",
"140 387 OFFCURVE",
"145 373 CURVE SMOOTH",
"249 78 LINE",
"253 78 LINE",
"343 348 LINE SMOOTH",
"347 361 OFFCURVE",
"349 371 OFFCURVE",
"349 379 CURVE SMOOTH",
"349 400 OFFCURVE",
"332 408 OFFCURVE",
"279 416 CURVE",
"279 424 LINE",
"458 424 LINE",
"458 416 LINE",
"397 409 OFFCURVE",
"375 397 OFFCURVE",
"364 363 CURVE SMOOTH",
"239 -3 LINE"
);
}
);
};
hints = (
{
horizontal = 1;
place = "{-3, 21}";
target = up;
type = BottomGhost;
},
{
horizontal = 1;
place = "{424, -20}";
target = down;
type = TopGhost;
}
);
layerId = UUID0;
paths = (
{
closed = 1;
nodes = (
"219 -3 LINE",
"72 374 LINE SMOOTH",
"60 405 OFFCURVE",
"48 413 OFFCURVE",
"2 416 CURVE",
"2 424 LINE",
"195 424 LINE",
"195 416 LINE",
"147 413 OFFCURVE",
"138 410 OFFCURVE",
"138 399 CURVE SMOOTH",
"138 394 OFFCURVE",
"140 387 OFFCURVE",
"145 373 CURVE SMOOTH",
"249 78 LINE",
"253 78 LINE",
"343 348 LINE SMOOTH",
"347 361 OFFCURVE",
"349 371 OFFCURVE",
"349 379 CURVE SMOOTH",
"349 400 OFFCURVE",
"332 408 OFFCURVE",
"279 416 CURVE",
"279 424 LINE",
"458 424 LINE",
"458 416 LINE",
"397 409 OFFCURVE",
"375 397 OFFCURVE",
"364 363 CURVE SMOOTH",
"239 -3 LINE"
);
}
);
width = 446;
}
);
unicode = 0076;
},
{
glyphname = w;
layers = (
{
anchors = (
{
name = top;
position = "{325, 530}";
}
);
background = {
paths = (
{
closed = 1;
nodes = (
"321 333 LINE",
"211 -3 LINE",
"200 -3 LINE",
"65 382 LINE SMOOTH",
"57 406 OFFCURVE",
"53 410 OFFCURVE",
"5 416 CURVE",
"5 424 LINE",
"184 424 LINE",
"184 416 LINE",
"141 413 OFFCURVE",
"135 407 OFFCURVE",
"135 396 CURVE SMOOTH",
"135 390 OFFCURVE",
"137 383 OFFCURVE",
"141 372 CURVE SMOOTH",
"228 106 LINE",
"232 106 LINE",
"308 339 LINE"
);
},
{
closed = 1;
nodes = (
"415 -3 LINE",
"285 377 LINE SMOOTH",
"277 400 OFFCURVE",
"268 412 OFFCURVE",
"230 416 CURVE",
"230 424 LINE",
"399 424 LINE",
"399 416 LINE",
"356 413 OFFCURVE",
"350 407 OFFCURVE",
"350 396 CURVE SMOOTH",
"350 390 OFFCURVE",
"352 383 OFFCURVE",
"356 372 CURVE SMOOTH",
"444 106 LINE",
"448 106 LINE",
"525 348 LINE SMOOTH",
"529 361 OFFCURVE",
"531 371 OFFCURVE",
"531 379 CURVE SMOOTH",
"531 400 OFFCURVE",
"517 408 OFFCURVE",
"470 416 CURVE",
"470 424 LINE",
"631 424 LINE",
"631 416 LINE",
"572 406 OFFCURVE",
"555 393 OFFCURVE",
"540 347 CURVE SMOOTH",
"426 -3 LINE"
);
}
);
};
hints = (
{
horizontal = 1;
place = "{-3, 21}";
target = up;
type = BottomGhost;
},
{
horizontal = 1;
place = "{424, -20}";
target = down;
type = TopGhost;
}
);
layerId = UUID0;
paths = (
{
closed = 1;
nodes = (
"321 333 LINE",
"211 -3 LINE",
"200 -3 LINE",
"65 382 LINE SMOOTH",
"57 406 OFFCURVE",
"53 410 OFFCURVE",
"5 416 CURVE",
"5 424 LINE",
"184 424 LINE",
"184 416 LINE",
"141 413 OFFCURVE",
"135 407 OFFCURVE",
"135 396 CURVE SMOOTH",
"135 390 OFFCURVE",
"137 383 OFFCURVE",
"141 372 CURVE SMOOTH",
"228 106 LINE",
"232 106 LINE",
"308 339 LINE"
);
},
{
closed = 1;
nodes = (
"415 -3 LINE",
"285 377 LINE SMOOTH",
"277 400 OFFCURVE",
"268 412 OFFCURVE",
"230 416 CURVE",
"230 424 LINE",
"399 424 LINE",
"399 416 LINE",
"356 413 OFFCURVE",
"350 407 OFFCURVE",
"350 396 CURVE SMOOTH",
"350 390 OFFCURVE",
"352 383 OFFCURVE",
"356 372 CURVE SMOOTH",
"444 106 LINE",
"448 106 LINE",
"525 348 LINE SMOOTH",
"529 361 OFFCURVE",
"531 371 OFFCURVE",
"531 379 CURVE SMOOTH",
"531 400 OFFCURVE",
"517 408 OFFCURVE",
"470 416 CURVE",
"470 424 LINE",
"631 424 LINE",
"631 416 LINE",
"572 406 OFFCURVE",
"555 393 OFFCURVE",
"540 347 CURVE SMOOTH",
"426 -3 LINE"
);
}
);
width = 619;
}
);
leftKerningGroup = w;
rightKerningGroup = w;
unicode = 0077;
},
{
glyphname = x;
layers = (
{
background = {
paths = (
{
closed = 1;
nodes = (
"389 42 LINE SMOOTH",
"404 20 OFFCURVE",
"416 13 OFFCURVE",
"458 8 CURVE",
"458 0 LINE",
"273 0 LINE",
"273 8 LINE",
"309 12 OFFCURVE",
"320 14 OFFCURVE",
"320 24 CURVE SMOOTH",
"320 31 OFFCURVE",
"315 40 OFFCURVE",
"308 51 CURVE SMOOTH",
"89 382 LINE SMOOTH",
"74 404 OFFCURVE",
"61 411 OFFCURVE",
"19 416 CURVE",
"19 424 LINE",
"204 424 LINE",
"204 416 LINE",
"168 412 OFFCURVE",
"157 410 OFFCURVE",
"157 400 CURVE SMOOTH",
"157 393 OFFCURVE",
"162 384 OFFCURVE",
"169 373 CURVE SMOOTH"
);
},
{
closed = 1;
nodes = (
"228 207 LINE",
"122 65 LINE SMOOTH",
"113 53 OFFCURVE",
"108 44 OFFCURVE",
"108 36 CURVE SMOOTH",
"108 23 OFFCURVE",
"121 16 OFFCURVE",
"166 8 CURVE",
"166 0 LINE",
"1 0 LINE",
"1 8 LINE",
"55 17 OFFCURVE",
"77 29 OFFCURVE",
"102 62 CURVE SMOOTH",
"219 217 LINE"
);
},
{
closed = 1;
nodes = (
"224 230 LINE",
"322 359 LINE SMOOTH",
"331 371 OFFCURVE",
"336 380 OFFCURVE",
"336 388 CURVE SMOOTH",
"336 401 OFFCURVE",
"323 408 OFFCURVE",
"278 416 CURVE",
"278 424 LINE",
"443 424 LINE",
"443 416 LINE",
"389 407 OFFCURVE",
"367 395 OFFCURVE",
"342 362 CURVE SMOOTH",
"233 220 LINE"
);
}
);
};
hints = (
{
horizontal = 1;
place = "{424, -20}";
target = down;
type = TopGhost;
},
{
horizontal = 1;
place = "{0, 21}";
target = up;
type = BottomGhost;
}
);
layerId = UUID0;
paths = (
{
closed = 1;
nodes = (
"389 42 LINE SMOOTH",
"404 20 OFFCURVE",
"416 13 OFFCURVE",
"458 8 CURVE",
"458 0 LINE",
"273 0 LINE",
"273 8 LINE",
"309 12 OFFCURVE",
"320 14 OFFCURVE",
"320 24 CURVE SMOOTH",
"320 31 OFFCURVE",
"315 40 OFFCURVE",
"308 51 CURVE SMOOTH",
"89 382 LINE SMOOTH",
"74 404 OFFCURVE",
"61 411 OFFCURVE",
"19 416 CURVE",
"19 424 LINE",
"204 424 LINE",
"204 416 LINE",
"168 412 OFFCURVE",
"157 410 OFFCURVE",
"157 400 CURVE SMOOTH",
"157 393 OFFCURVE",
"162 384 OFFCURVE",
"169 373 CURVE SMOOTH"
);
},
{
closed = 1;
nodes = (
"228 207 LINE",
"122 65 LINE SMOOTH",
"113 53 OFFCURVE",
"108 44 OFFCURVE",
"108 36 CURVE SMOOTH",
"108 23 OFFCURVE",
"121 16 OFFCURVE",
"166 8 CURVE",
"166 0 LINE",
"1 0 LINE",
"1 8 LINE",
"55 17 OFFCURVE",
"77 29 OFFCURVE",
"102 62 CURVE SMOOTH",
"219 217 LINE"
);
},
{
closed = 1;
nodes = (
"224 230 LINE",
"322 359 LINE SMOOTH",
"331 371 OFFCURVE",
"336 380 OFFCURVE",
"336 388 CURVE SMOOTH",
"336 401 OFFCURVE",
"323 408 OFFCURVE",
"278 416 CURVE",
"278 424 LINE",
"443 424 LINE",
"443 416 LINE",
"389 407 OFFCURVE",
"367 395 OFFCURVE",
"342 362 CURVE SMOOTH",
"233 220 LINE"
);
}
);
width = 460;
}
);
unicode = 0078;
},
{
glyphname = y;
layers = (
{
anchors = (
{
name = top;
position = "{238, 530}";
}
);
background = {
paths = (
{
closed = 1;
nodes = (
"251 73 LINE",
"342 348 LINE SMOOTH",
"346 361 OFFCURVE",
"348 371 OFFCURVE",
"348 379 CURVE SMOOTH",
"348 400 OFFCURVE",
"331 408 OFFCURVE",
"278 416 CURVE",
"278 424 LINE",
"457 424 LINE",
"457 416 LINE",
"393 406 OFFCURVE",
"373 392 OFFCURVE",
"358 347 CURVE SMOOTH",
"191 -144 LINE SMOOTH",
"179 -180 OFFCURVE",
"168 -202 OFFCURVE",
"153 -217 CURVE SMOOTH",
"136 -236 OFFCURVE",
"116 -246 OFFCURVE",
"93 -246 CURVE SMOOTH",
"55 -246 OFFCURVE",
"27 -221 OFFCURVE",
"27 -188 CURVE SMOOTH",
"27 -161 OFFCURVE",
"44 -144 OFFCURVE",
"70 -144 CURVE SMOOTH",
"122 -144 OFFCURVE",
"100 -209 OFFCURVE",
"132 -209 CURVE SMOOTH",
"150 -209 OFFCURVE",
"163 -187 OFFCURVE",
"180 -137 CURVE SMOOTH",
"219 -18 LINE",
"65 382 LINE SMOOTH",
"55 407 OFFCURVE",
"44 413 OFFCURVE",
"-2 416 CURVE",
"-2 424 LINE",
"191 424 LINE",
"191 416 LINE",
"143 413 OFFCURVE",
"134 410 OFFCURVE",
"134 399 CURVE SMOOTH",
"134 394 OFFCURVE",
"136 387 OFFCURVE",
"141 373 CURVE SMOOTH",
"247 73 LINE"
);
}
);
};
hints = (
{
horizontal = 1;
place = "{-255, 37}";
},
{
horizontal = 1;
place = "{-255, 102}";
},
{
horizontal = 1;
place = "{424, -20}";
target = down;
type = TopGhost;
}
);
layerId = UUID0;
paths = (
{
closed = 1;
nodes = (
"251 73 LINE",
"342 348 LINE SMOOTH",
"346 361 OFFCURVE",
"348 371 OFFCURVE",
"348 379 CURVE SMOOTH",
"348 400 OFFCURVE",
"331 408 OFFCURVE",
"278 416 CURVE",
"278 424 LINE",
"457 424 LINE",
"457 416 LINE",
"393 406 OFFCURVE",
"373 392 OFFCURVE",
"358 347 CURVE SMOOTH",
"191 -144 LINE SMOOTH",
"179 -180 OFFCURVE",
"168 -202 OFFCURVE",
"153 -217 CURVE SMOOTH",
"136 -236 OFFCURVE",
"116 -246 OFFCURVE",
"93 -246 CURVE SMOOTH",
"55 -246 OFFCURVE",
"27 -221 OFFCURVE",
"27 -188 CURVE SMOOTH",
"27 -161 OFFCURVE",
"44 -144 OFFCURVE",
"70 -144 CURVE SMOOTH",
"122 -144 OFFCURVE",
"100 -209 OFFCURVE",
"132 -209 CURVE SMOOTH",
"150 -209 OFFCURVE",
"163 -187 OFFCURVE",
"180 -137 CURVE SMOOTH",
"219 -18 LINE",
"65 382 LINE SMOOTH",
"55 407 OFFCURVE",
"44 413 OFFCURVE",
"-2 416 CURVE",
"-2 424 LINE",
"191 424 LINE",
"191 416 LINE",
"143 413 OFFCURVE",
"134 410 OFFCURVE",
"134 399 CURVE SMOOTH",
"134 394 OFFCURVE",
"136 387 OFFCURVE",
"141 373 CURVE SMOOTH",
"247 73 LINE"
);
}
);
width = 452;
}
);
leftKerningGroup = y;
rightKerningGroup = y;
unicode = 0079;
},
{
glyphname = z;
layers = (
{
anchors = (
{
name = bottom;
position = "{196, 0}";
},
{
name = top;
position = "{195, 530}";
}
);
background = {
paths = (
{
closed = 1;
nodes = (
"349 424 LINE",
"349 402 LINE",
"99 15 LINE",
"285 15 LINE",
"292 33 LINE SMOOTH",
"306 71 OFFCURVE",
"319 113 OFFCURVE",
"330 155 CURVE",
"344 154 LINE",
"338 0 LINE",
"31 0 LINE",
"31 22 LINE",
"279 410 LINE",
"103 410 LINE",
"97 394 LINE SMOOTH",
"84 359 OFFCURVE",
"69 309 OFFCURVE",
"63 277 CURVE",
"48 278 LINE",
"57 424 LINE"
);
}
);
};
layerId = UUID0;
paths = (
{
closed = 1;
nodes = (
"349 424 LINE",
"349 402 LINE",
"99 15 LINE",
"285 15 LINE",
"292 33 LINE SMOOTH",
"306 71 OFFCURVE",
"319 113 OFFCURVE",
"330 155 CURVE",
"344 154 LINE",
"338 0 LINE",
"31 0 LINE",
"31 22 LINE",
"279 410 LINE",
"103 410 LINE",
"97 394 LINE SMOOTH",
"84 359 OFFCURVE",
"69 309 OFFCURVE",
"63 277 CURVE",
"48 278 LINE",
"57 424 LINE"
);
}
);
width = 388;
}
);
leftKerningGroup = z;
rightKerningGroup = z;
unicode = 007A;
},
{
glyphname = c_p;
layers = (
{
background = {
paths = (
{
closed = 1;
nodes = (
"242 434 LINE",
"217 450 OFFCURVE",
"203 477 OFFCURVE",
"203 512 CURVE SMOOTH",
"203 581 OFFCURVE",
"276 637 OFFCURVE",
"367 637 CURVE SMOOTH",
"477 637 OFFCURVE",
"538 559 OFFCURVE",
"538 419 CURVE SMOOTH",
"538 363 LINE",
"542 363 LINE",
"570 407 OFFCURVE",
"619 434 OFFCURVE",
"671 434 CURVE SMOOTH",
"762 434 OFFCURVE",
"828 346 OFFCURVE",
"828 225 CURVE SMOOTH",
"828 87 OFFCURVE",
"743 -10 OFFCURVE",
"623 -10 CURVE SMOOTH",
"594 -10 OFFCURVE",
"568 -4 OFFCURVE",
"541 8 CURVE",
"541 -216 LINE",
"631 -227 LINE",
"631 -234 LINE",
"415 -234 LINE",
"415 -226 LINE",
"476 -218 LINE",
"476 487 LINE SMOOTH",
"476 581 OFFCURVE",
"439 627 OFFCURVE",
"364 627 CURVE SMOOTH",
"287 627 OFFCURVE",
"233 579 OFFCURVE",
"233 509 CURVE SMOOTH",
"233 467 OFFCURVE",
"248 437 OFFCURVE",
"274 431 CURVE SMOOTH",
"330 418 OFFCURVE",
"371 387 OFFCURVE",
"371 347 CURVE SMOOTH",
"371 324 OFFCURVE",
"357 309 OFFCURVE",
"334 309 CURVE SMOOTH",
"270 309 OFFCURVE",
"318 424 OFFCURVE",
"234 424 CURVE SMOOTH",
"161 424 OFFCURVE",
"107 339 OFFCURVE",
"107 222 CURVE SMOOTH",
"107 106 OFFCURVE",
"159 39 OFFCURVE",
"249 39 CURVE SMOOTH",
"298 39 OFFCURVE",
"338 60 OFFCURVE",
"370 102 CURVE SMOOTH",
"379 114 LINE",
"383 112 LINE",
"379 101 LINE SMOOTH",
"353 31 OFFCURVE",
"295 -10 OFFCURVE",
"223 -10 CURVE SMOOTH",
"116 -10 OFFCURVE",
"40 80 OFFCURVE",
"40 207 CURVE SMOOTH",
"40 339 OFFCURVE",
"122 434 OFFCURVE",
"238 434 CURVE"
);
},
{
closed = 1;
nodes = (
"703 0 OFFCURVE",
"755 86 OFFCURVE",
"755 210 CURVE SMOOTH",
"755 328 OFFCURVE",
"707 404 OFFCURVE",
"633 404 CURVE SMOOTH",
"591 404 OFFCURVE",
"556 381 OFFCURVE",
"541 344 CURVE",
"541 71 LINE SMOOTH",
"541 33 OFFCURVE",
"582 0 OFFCURVE",
"628 0 CURVE SMOOTH"
);
}
);
};
hints = (
{
place = "{40, 67}";
},
{
place = "{203, 30}";
},
{
place = "{476, 65}";
},
{
place = "{755, 73}";
},
{
place = "{203, 168}";
},
{
horizontal = 1;
place = "{-234, 234}";
},
{
horizontal = 1;
place = "{-10, 49}";
},
{
horizontal = 1;
place = "{309, 125}";
},
{
horizontal = 1;
place = "{404, 30}";
},
{
horizontal = 1;
place = "{424, 213}";
}
);
layerId = UUID0;
paths = (
{
closed = 1;
nodes = (
"242 434 LINE",
"217 450 OFFCURVE",
"203 477 OFFCURVE",
"203 512 CURVE SMOOTH",
"203 581 OFFCURVE",
"276 637 OFFCURVE",
"367 637 CURVE SMOOTH",
"477 637 OFFCURVE",
"538 559 OFFCURVE",
"538 419 CURVE SMOOTH",
"538 363 LINE",
"542 363 LINE",
"570 407 OFFCURVE",
"619 434 OFFCURVE",
"671 434 CURVE SMOOTH",
"762 434 OFFCURVE",
"828 346 OFFCURVE",
"828 225 CURVE SMOOTH",
"828 87 OFFCURVE",
"743 -10 OFFCURVE",
"623 -10 CURVE SMOOTH",
"594 -10 OFFCURVE",
"568 -4 OFFCURVE",
"541 8 CURVE",
"541 -216 LINE",
"631 -227 LINE",
"631 -234 LINE",
"415 -234 LINE",
"415 -226 LINE",
"476 -218 LINE",
"476 487 LINE SMOOTH",
"476 581 OFFCURVE",
"439 627 OFFCURVE",
"364 627 CURVE SMOOTH",
"287 627 OFFCURVE",
"233 579 OFFCURVE",
"233 509 CURVE SMOOTH",
"233 467 OFFCURVE",
"248 437 OFFCURVE",
"274 431 CURVE SMOOTH",
"330 418 OFFCURVE",
"371 387 OFFCURVE",
"371 347 CURVE SMOOTH",
"371 324 OFFCURVE",
"357 309 OFFCURVE",
"334 309 CURVE SMOOTH",
"270 309 OFFCURVE",
"318 424 OFFCURVE",
"234 424 CURVE SMOOTH",
"161 424 OFFCURVE",
"107 339 OFFCURVE",
"107 222 CURVE SMOOTH",
"107 106 OFFCURVE",
"159 39 OFFCURVE",
"249 39 CURVE SMOOTH",
"298 39 OFFCURVE",
"338 60 OFFCURVE",
"370 102 CURVE SMOOTH",
"379 114 LINE",
"383 112 LINE",
"379 101 LINE SMOOTH",
"353 31 OFFCURVE",
"295 -10 OFFCURVE",
"223 -10 CURVE SMOOTH",
"116 -10 OFFCURVE",
"40 80 OFFCURVE",
"40 207 CURVE SMOOTH",
"40 339 OFFCURVE",
"122 434 OFFCURVE",
"238 434 CURVE"
);
},
{
closed = 1;
nodes = (
"703 0 OFFCURVE",
"755 86 OFFCURVE",
"755 210 CURVE SMOOTH",
"755 328 OFFCURVE",
"707 404 OFFCURVE",
"633 404 CURVE SMOOTH",
"591 404 OFFCURVE",
"556 381 OFFCURVE",
"541 344 CURVE",
"541 71 LINE SMOOTH",
"541 33 OFFCURVE",
"582 0 OFFCURVE",
"628 0 CURVE SMOOTH"
);
}
);
width = 869;
}
);
leftKerningGroup = o;
rightKerningGroup = b;
},
{
glyphname = c_t;
layers = (
{
background = {
paths = (
{
closed = 1;
nodes = (
"242 434 LINE",
"217 450 OFFCURVE",
"203 477 OFFCURVE",
"203 512 CURVE SMOOTH",
"203 581 OFFCURVE",
"276 637 OFFCURVE",
"367 637 CURVE SMOOTH",
"475 637 OFFCURVE",
"536 561 OFFCURVE",
"538 424 CURVE",
"652 424 LINE",
"646 408 LINE",
"538 408 LINE",
"538 102 LINE SMOOTH",
"538 79 OFFCURVE",
"542 61 OFFCURVE",
"549 50 CURVE",
"557 34 OFFCURVE",
"573 26 OFFCURVE",
"594 26 CURVE SMOOTH",
"616 26 OFFCURVE",
"634 36 OFFCURVE",
"658 60 CURVE",
"662 57 LINE",
"642 16 OFFCURVE",
"603 -10 OFFCURVE",
"561 -10 CURVE SMOOTH",
"540 -10 OFFCURVE",
"519 -3 OFFCURVE",
"504 8 CURVE SMOOTH",
"482 24 OFFCURVE",
"473 47 OFFCURVE",
"473 89 CURVE SMOOTH",
"473 408 LINE",
"420 408 LINE",
"426 424 LINE",
"473 424 LINE",
"473 487 LINE SMOOTH",
"473 581 OFFCURVE",
"439 627 OFFCURVE",
"364 627 CURVE SMOOTH",
"287 627 OFFCURVE",
"233 579 OFFCURVE",
"233 509 CURVE SMOOTH",
"233 467 OFFCURVE",
"248 437 OFFCURVE",
"274 431 CURVE SMOOTH",
"330 418 OFFCURVE",
"371 387 OFFCURVE",
"371 347 CURVE SMOOTH",
"371 324 OFFCURVE",
"357 309 OFFCURVE",
"334 309 CURVE SMOOTH",
"270 309 OFFCURVE",
"318 424 OFFCURVE",
"234 424 CURVE SMOOTH",
"161 424 OFFCURVE",
"107 339 OFFCURVE",
"107 222 CURVE SMOOTH",
"107 106 OFFCURVE",
"159 39 OFFCURVE",
"249 39 CURVE SMOOTH",
"299 39 OFFCURVE",
"337 59 OFFCURVE",
"370 102 CURVE SMOOTH",
"379 114 LINE",
"383 112 LINE",
"379 101 LINE SMOOTH",
"353 31 OFFCURVE",
"296 -10 OFFCURVE",
"223 -10 CURVE SMOOTH",
"116 -10 OFFCURVE",
"40 80 OFFCURVE",
"40 207 CURVE SMOOTH",
"40 339 OFFCURVE",
"122 434 OFFCURVE",
"238 434 CURVE"
);
}
);
};
hints = (
{
place = "{40, 67}";
},
{
place = "{203, 30}";
},
{
place = "{473, 65}";
},
{
place = "{203, 168}";
},
{
horizontal = 1;
place = "{-10, 36}";
},
{
horizontal = 1;
place = "{309, 125}";
},
{
horizontal = 1;
place = "{408, 26}";
},
{
horizontal = 1;
place = "{424, 213}";
},
{
horizontal = 1;
place = "{-10, 49}";
}
);
layerId = UUID0;
paths = (
{
closed = 1;
nodes = (
"242 434 LINE",
"217 450 OFFCURVE",
"203 477 OFFCURVE",
"203 512 CURVE SMOOTH",
"203 581 OFFCURVE",
"276 637 OFFCURVE",
"367 637 CURVE SMOOTH",
"475 637 OFFCURVE",
"536 561 OFFCURVE",
"538 424 CURVE",
"652 424 LINE",
"646 408 LINE",
"538 408 LINE",
"538 102 LINE SMOOTH",
"538 79 OFFCURVE",
"542 61 OFFCURVE",
"549 50 CURVE",
"557 34 OFFCURVE",
"573 26 OFFCURVE",
"594 26 CURVE SMOOTH",
"616 26 OFFCURVE",
"634 36 OFFCURVE",
"658 60 CURVE",
"662 57 LINE",
"642 16 OFFCURVE",
"603 -10 OFFCURVE",
"561 -10 CURVE SMOOTH",
"540 -10 OFFCURVE",
"519 -3 OFFCURVE",
"504 8 CURVE SMOOTH",
"482 24 OFFCURVE",
"473 47 OFFCURVE",
"473 89 CURVE SMOOTH",
"473 408 LINE",
"420 408 LINE",
"426 424 LINE",
"473 424 LINE",
"473 487 LINE SMOOTH",
"473 581 OFFCURVE",
"439 627 OFFCURVE",
"364 627 CURVE SMOOTH",
"287 627 OFFCURVE",
"233 579 OFFCURVE",
"233 509 CURVE SMOOTH",
"233 467 OFFCURVE",
"248 437 OFFCURVE",
"274 431 CURVE SMOOTH",
"330 418 OFFCURVE",
"371 387 OFFCURVE",
"371 347 CURVE SMOOTH",
"371 324 OFFCURVE",
"357 309 OFFCURVE",
"334 309 CURVE SMOOTH",
"270 309 OFFCURVE",
"318 424 OFFCURVE",
"234 424 CURVE SMOOTH",
"161 424 OFFCURVE",
"107 339 OFFCURVE",
"107 222 CURVE SMOOTH",
"107 106 OFFCURVE",
"159 39 OFFCURVE",
"249 39 CURVE SMOOTH",
"299 39 OFFCURVE",
"337 59 OFFCURVE",
"370 102 CURVE SMOOTH",
"379 114 LINE",
"383 112 LINE",
"379 101 LINE SMOOTH",
"353 31 OFFCURVE",
"296 -10 OFFCURVE",
"223 -10 CURVE SMOOTH",
"116 -10 OFFCURVE",
"40 80 OFFCURVE",
"40 207 CURVE SMOOTH",
"40 339 OFFCURVE",
"122 434 OFFCURVE",
"238 434 CURVE"
);
}
);
width = 668;
}
);
leftKerningGroup = o;
rightKerningGroup = t;
},
{
glyphname = e_t;
layers = (
{
background = {
paths = (
{
closed = 1;
nodes = (
"476 424 LINE",
"432 424 LINE",
"426 409 LINE",
"473 409 LINE",
"473 89 LINE SMOOTH",
"473 47 OFFCURVE",
"482 24 OFFCURVE",
"504 8 CURVE SMOOTH",
"519 -3 OFFCURVE",
"540 -10 OFFCURVE",
"561 -10 CURVE SMOOTH",
"603 -10 OFFCURVE",
"642 16 OFFCURVE",
"662 57 CURVE",
"658 60 LINE",
"634 36 OFFCURVE",
"616 26 OFFCURVE",
"594 26 CURVE SMOOTH",
"573 26 OFFCURVE",
"557 34 OFFCURVE",
"549 50 CURVE",
"542 61 OFFCURVE",
"538 79 OFFCURVE",
"538 102 CURVE SMOOTH",
"538 408 LINE",
"646 408 LINE",
"652 424 LINE",
"538 424 LINE",
"536 561 OFFCURVE",
"475 637 OFFCURVE",
"367 637 CURVE SMOOTH",
"276 637 OFFCURVE",
"203 581 OFFCURVE",
"203 512 CURVE SMOOTH",
"203 477 OFFCURVE",
"217 450 OFFCURVE",
"241 434 CURVE",
"121 434 OFFCURVE",
"40 343 OFFCURVE",
"40 211 CURVE SMOOTH",
"40 80 OFFCURVE",
"115 -10 OFFCURVE",
"225 -10 CURVE SMOOTH",
"298 -10 OFFCURVE",
"353 30 OFFCURVE",
"379 101 CURVE SMOOTH",
"383 112 LINE",
"379 114 LINE",
"370 102 LINE SMOOTH",
"337 60 OFFCURVE",
"293 40 OFFCURVE",
"249 40 CURVE SMOOTH",
"162 40 OFFCURVE",
"109 102 OFFCURVE",
"109 226 CURVE SMOOTH",
"109 240 OFFCURVE",
"109 254 OFFCURVE",
"111 267 CURVE",
"381 267 LINE",
"387 272 LINE",
"385 366 OFFCURVE",
"342 413 OFFCURVE",
"269 432 CURVE SMOOTH",
"245 438 OFFCURVE",
"233 469 OFFCURVE",
"233 509 CURVE SMOOTH",
"233 579 OFFCURVE",
"287 627 OFFCURVE",
"364 627 CURVE SMOOTH",
"439 627 OFFCURVE",
"476 581 OFFCURVE",
"476 487 CURVE"
);
},
{
closed = 1;
nodes = (
"276 423 OFFCURVE",
"309 401 OFFCURVE",
"309 325 CURVE SMOOTH",
"309 310 OFFCURVE",
"308 293 OFFCURVE",
"306 285 CURVE",
"112 278 LINE",
"124 365 OFFCURVE",
"167 423 OFFCURVE",
"230 423 CURVE SMOOTH"
);
}
);
};
hints = (
{
place = "{40, 69}";
},
{
place = "{203, 30}";
},
{
place = "{309, 78}";
},
{
place = "{473, 65}";
},
{
horizontal = 1;
place = "{-10, 36}";
},
{
horizontal = 1;
place = "{267, 157}";
},
{
horizontal = 1;
place = "{408, 229}";
},
{
horizontal = 1;
place = "{423, 214}";
},
{
horizontal = 1;
place = "{-10, 50}";
}
);
layerId = UUID0;
paths = (
{
closed = 1;
nodes = (
"476 424 LINE",
"432 424 LINE",
"426 409 LINE",
"473 409 LINE",
"473 89 LINE SMOOTH",
"473 47 OFFCURVE",
"482 24 OFFCURVE",
"504 8 CURVE SMOOTH",
"519 -3 OFFCURVE",
"540 -10 OFFCURVE",
"561 -10 CURVE SMOOTH",
"603 -10 OFFCURVE",
"642 16 OFFCURVE",
"662 57 CURVE",
"658 60 LINE",
"634 36 OFFCURVE",
"616 26 OFFCURVE",
"594 26 CURVE SMOOTH",
"573 26 OFFCURVE",
"557 34 OFFCURVE",
"549 50 CURVE",
"542 61 OFFCURVE",
"538 79 OFFCURVE",
"538 102 CURVE SMOOTH",
"538 408 LINE",
"646 408 LINE",
"652 424 LINE",
"538 424 LINE",
"536 561 OFFCURVE",
"475 637 OFFCURVE",
"367 637 CURVE SMOOTH",
"276 637 OFFCURVE",
"203 581 OFFCURVE",
"203 512 CURVE SMOOTH",
"203 477 OFFCURVE",
"217 450 OFFCURVE",
"241 434 CURVE",
"121 434 OFFCURVE",
"40 343 OFFCURVE",
"40 211 CURVE SMOOTH",
"40 80 OFFCURVE",
"115 -10 OFFCURVE",
"225 -10 CURVE SMOOTH",
"298 -10 OFFCURVE",
"353 30 OFFCURVE",
"379 101 CURVE SMOOTH",
"383 112 LINE",
"379 114 LINE",
"370 102 LINE SMOOTH",
"337 60 OFFCURVE",
"293 40 OFFCURVE",
"249 40 CURVE SMOOTH",
"162 40 OFFCURVE",
"109 102 OFFCURVE",
"109 226 CURVE SMOOTH",
"109 240 OFFCURVE",
"109 254 OFFCURVE",
"111 267 CURVE",
"381 267 LINE",
"387 272 LINE",
"385 366 OFFCURVE",
"342 413 OFFCURVE",
"269 432 CURVE SMOOTH",
"245 438 OFFCURVE",
"233 469 OFFCURVE",
"233 509 CURVE SMOOTH",
"233 579 OFFCURVE",
"287 627 OFFCURVE",
"364 627 CURVE SMOOTH",
"439 627 OFFCURVE",
"476 581 OFFCURVE",
"476 487 CURVE"
);
},
{
closed = 1;
nodes = (
"276 423 OFFCURVE",
"309 401 OFFCURVE",
"309 325 CURVE SMOOTH",
"309 310 OFFCURVE",
"308 293 OFFCURVE",
"306 285 CURVE",
"112 278 LINE",
"124 365 OFFCURVE",
"167 423 OFFCURVE",
"230 423 CURVE SMOOTH"
);
}
);
width = 668;
}
);
leftKerningGroup = o;
rightKerningGroup = t;
},
{
glyphname = f_b;
layers = (
{
background = {
paths = (
{
closed = 1;
nodes = (
"24 424 LINE",
"86 424 LINE",
"86 517 LINE SMOOTH",
"86 644 OFFCURVE",
"158 734 OFFCURVE",
"257 734 CURVE SMOOTH",
"326 734 OFFCURVE",
"380 696 OFFCURVE",
"380 648 CURVE SMOOTH",
"380 377 LINE",
"415 415 OFFCURVE",
"456 434 OFFCURVE",
"503 434 CURVE SMOOTH",
"603 434 OFFCURVE",
"670 351 OFFCURVE",
"670 228 CURVE SMOOTH",
"670 91 OFFCURVE",
"585 -10 OFFCURVE",
"469 -10 CURVE SMOOTH",
"428 -10 OFFCURVE",
"389 3 OFFCURVE",
"357 27 CURVE",
"353 27 LINE",
"323 0 LINE",
"315 0 LINE",
"315 408 LINE",
"151 408 LINE",
"151 18 LINE",
"218 8 LINE",
"218 0 LINE",
"25 0 LINE",
"25 8 LINE",
"86 16 LINE",
"86 408 LINE",
"19 408 LINE"
);
},
{
closed = 1;
nodes = (
"545 0 OFFCURVE",
"595 82 OFFCURVE",
"595 207 CURVE SMOOTH",
"595 329 OFFCURVE",
"547 404 OFFCURVE",
"469 404 CURVE SMOOTH",
"433 404 OFFCURVE",
"400 388 OFFCURVE",
"380 362 CURVE",
"380 101 LINE SMOOTH",
"380 40 OFFCURVE",
"415 0 OFFCURVE",
"468 0 CURVE SMOOTH"
);
},
{
closed = 1;
nodes = (
"190 721 OFFCURVE",
"151 651 OFFCURVE",
"151 530 CURVE SMOOTH",
"151 424 LINE",
"315 424 LINE",
"315 650 LINE SMOOTH",
"315 700 OFFCURVE",
"295 721 OFFCURVE",
"254 721 CURVE SMOOTH"
);
}
);
};
hints = (
{
place = "{315, 65}";
},
{
place = "{595, 75}";
},
{
horizontal = 1;
place = "{404, 30}";
},
{
horizontal = 1;
place = "{-10, 21}";
target = up;
type = BottomGhost;
},
{
horizontal = 1;
place = "{721, -20}";
target = down;
type = TopGhost;
}
);
layerId = UUID0;
paths = (
{
closed = 1;
nodes = (
"24 424 LINE",
"86 424 LINE",
"86 517 LINE SMOOTH",
"86 644 OFFCURVE",
"158 734 OFFCURVE",
"257 734 CURVE SMOOTH",
"326 734 OFFCURVE",
"380 696 OFFCURVE",
"380 648 CURVE SMOOTH",
"380 377 LINE",
"415 415 OFFCURVE",
"456 434 OFFCURVE",
"503 434 CURVE SMOOTH",
"603 434 OFFCURVE",
"670 351 OFFCURVE",
"670 228 CURVE SMOOTH",
"670 91 OFFCURVE",
"585 -10 OFFCURVE",
"469 -10 CURVE SMOOTH",
"428 -10 OFFCURVE",
"389 3 OFFCURVE",
"357 27 CURVE",
"353 27 LINE",
"323 0 LINE",
"315 0 LINE",
"315 408 LINE",
"151 408 LINE",
"151 18 LINE",
"218 8 LINE",
"218 0 LINE",
"25 0 LINE",
"25 8 LINE",
"86 16 LINE",
"86 408 LINE",
"19 408 LINE"
);
},
{
closed = 1;
nodes = (
"545 0 OFFCURVE",
"595 82 OFFCURVE",
"595 207 CURVE SMOOTH",
"595 329 OFFCURVE",
"547 404 OFFCURVE",
"469 404 CURVE SMOOTH",
"433 404 OFFCURVE",
"400 388 OFFCURVE",
"380 362 CURVE",
"380 101 LINE SMOOTH",
"380 40 OFFCURVE",
"415 0 OFFCURVE",
"468 0 CURVE SMOOTH"
);
},
{
closed = 1;
nodes = (
"190 721 OFFCURVE",
"151 651 OFFCURVE",
"151 530 CURVE SMOOTH",
"151 424 LINE",
"315 424 LINE",
"315 650 LINE SMOOTH",
"315 700 OFFCURVE",
"295 721 OFFCURVE",
"254 721 CURVE SMOOTH"
);
}
);
width = 710;
}
);
leftKerningGroup = f;
rightKerningGroup = b;
},
{
glyphname = f_f;
layers = (
{
background = {
paths = (
{
closed = 1;
nodes = (
"23 424 LINE",
"85 424 LINE",
"85 489 LINE SMOOTH",
"85 608 OFFCURVE",
"155 706 OFFCURVE",
"268 706 CURVE SMOOTH",
"306 706 OFFCURVE",
"335 692 OFFCURVE",
"355 667 CURVE",
"385 707 OFFCURVE",
"434 733 OFFCURVE",
"485 733 CURVE SMOOTH",
"537 733 OFFCURVE",
"582 706 OFFCURVE",
"582 674 CURVE SMOOTH",
"582 654 OFFCURVE",
"566 638 OFFCURVE",
"544 638 CURVE SMOOTH",
"523 638 OFFCURVE",
"512 652 OFFCURVE",
"506 679 CURVE SMOOTH",
"499 711 OFFCURVE",
"490 720 OFFCURVE",
"469 720 CURVE SMOOTH",
"439 720 OFFCURVE",
"416 702 OFFCURVE",
"402 668 CURVE SMOOTH",
"391 640 OFFCURVE",
"388 610 OFFCURVE",
"388 537 CURVE SMOOTH",
"388 424 LINE",
"481 424 LINE",
"476 408 LINE",
"388 408 LINE",
"388 18 LINE",
"475 8 LINE",
"475 0 LINE",
"272 0 LINE",
"272 8 LINE",
"323 16 LINE",
"323 408 LINE",
"150 408 LINE",
"150 18 LINE",
"217 8 LINE",
"217 0 LINE",
"24 0 LINE",
"24 8 LINE",
"85 16 LINE",
"85 408 LINE",
"18 408 LINE"
);
},
{
closed = 1;
nodes = (
"323 633 LINE SMOOTH",
"323 672 OFFCURVE",
"303 693 OFFCURVE",
"267 693 CURVE SMOOTH",
"197 693 OFFCURVE",
"150 657 OFFCURVE",
"150 502 CURVE SMOOTH",
"150 424 LINE",
"323 424 LINE"
);
}
);
};
hints = (
{
place = "{85, 65}";
},
{
place = "{323, 65}";
},
{
horizontal = 1;
place = "{638, 95}";
},
{
horizontal = 1;
place = "{0, 21}";
target = up;
type = BottomGhost;
}
);
layerId = UUID0;
paths = (
{
closed = 1;
nodes = (
"23 424 LINE",
"85 424 LINE",
"85 489 LINE SMOOTH",
"85 608 OFFCURVE",
"155 706 OFFCURVE",
"268 706 CURVE SMOOTH",
"306 706 OFFCURVE",
"335 692 OFFCURVE",
"355 667 CURVE",
"385 707 OFFCURVE",
"434 733 OFFCURVE",
"485 733 CURVE SMOOTH",
"537 733 OFFCURVE",
"582 706 OFFCURVE",
"582 674 CURVE SMOOTH",
"582 654 OFFCURVE",
"566 638 OFFCURVE",
"544 638 CURVE SMOOTH",
"523 638 OFFCURVE",
"512 652 OFFCURVE",
"506 679 CURVE SMOOTH",
"499 711 OFFCURVE",
"490 720 OFFCURVE",
"469 720 CURVE SMOOTH",
"439 720 OFFCURVE",
"416 702 OFFCURVE",
"402 668 CURVE SMOOTH",
"391 640 OFFCURVE",
"388 610 OFFCURVE",
"388 537 CURVE SMOOTH",
"388 424 LINE",
"481 424 LINE",
"476 408 LINE",
"388 408 LINE",
"388 18 LINE",
"475 8 LINE",
"475 0 LINE",
"272 0 LINE",
"272 8 LINE",
"323 16 LINE",
"323 408 LINE",
"150 408 LINE",
"150 18 LINE",
"217 8 LINE",
"217 0 LINE",
"24 0 LINE",
"24 8 LINE",
"85 16 LINE",
"85 408 LINE",
"18 408 LINE"
);
},
{
closed = 1;
nodes = (
"323 633 LINE SMOOTH",
"323 672 OFFCURVE",
"303 693 OFFCURVE",
"267 693 CURVE SMOOTH",
"197 693 OFFCURVE",
"150 657 OFFCURVE",
"150 502 CURVE SMOOTH",
"150 424 LINE",
"323 424 LINE"
);
}
);
width = 501;
}
);
leftKerningGroup = f;
rightKerningGroup = f;
unicode = FB00;
},
{
glyphname = f_f_b;
layers = (
{
background = {
paths = (
{
closed = 1;
nodes = (
"24 424 LINE",
"86 424 LINE",
"86 489 LINE SMOOTH",
"86 608 OFFCURVE",
"156 706 OFFCURVE",
"269 706 CURVE SMOOTH",
"311 706 OFFCURVE",
"343 689 OFFCURVE",
"362 659 CURVE",
"392 706 OFFCURVE",
"439 734 OFFCURVE",
"495 734 CURVE SMOOTH",
"564 734 OFFCURVE",
"618 696 OFFCURVE",
"618 648 CURVE SMOOTH",
"618 377 LINE",
"653 415 OFFCURVE",
"694 434 OFFCURVE",
"741 434 CURVE SMOOTH",
"841 434 OFFCURVE",
"908 351 OFFCURVE",
"908 228 CURVE SMOOTH",
"908 91 OFFCURVE",
"823 -10 OFFCURVE",
"707 -10 CURVE SMOOTH",
"666 -10 OFFCURVE",
"627 3 OFFCURVE",
"595 27 CURVE",
"591 27 LINE",
"561 0 LINE",
"553 0 LINE",
"553 408 LINE",
"389 408 LINE",
"389 18 LINE",
"456 8 LINE",
"456 0 LINE",
"263 0 LINE",
"263 8 LINE",
"324 16 LINE",
"324 408 LINE",
"151 408 LINE",
"151 18 LINE",
"218 8 LINE",
"218 0 LINE",
"25 0 LINE",
"25 8 LINE",
"86 16 LINE",
"86 408 LINE",
"19 408 LINE"
);
},
{
closed = 1;
nodes = (
"783 0 OFFCURVE",
"833 82 OFFCURVE",
"833 207 CURVE SMOOTH",
"833 329 OFFCURVE",
"785 404 OFFCURVE",
"707 404 CURVE SMOOTH",
"671 404 OFFCURVE",
"638 388 OFFCURVE",
"618 362 CURVE",
"618 101 LINE SMOOTH",
"618 40 OFFCURVE",
"653 0 OFFCURVE",
"706 0 CURVE SMOOTH"
);
},
{
closed = 1;
nodes = (
"428 721 OFFCURVE",
"389 651 OFFCURVE",
"389 530 CURVE SMOOTH",
"389 424 LINE",
"553 424 LINE",
"553 650 LINE SMOOTH",
"553 700 OFFCURVE",
"533 721 OFFCURVE",
"492 721 CURVE SMOOTH"
);
},
{
closed = 1;
nodes = (
"324 633 LINE SMOOTH",
"324 672 OFFCURVE",
"304 693 OFFCURVE",
"268 693 CURVE SMOOTH",
"198 693 OFFCURVE",
"151 657 OFFCURVE",
"151 502 CURVE SMOOTH",
"151 424 LINE",
"324 424 LINE"
);
}
);
};
layerId = UUID0;
paths = (
{
closed = 1;
nodes = (
"24 424 LINE",
"86 424 LINE",
"86 489 LINE SMOOTH",
"86 608 OFFCURVE",
"156 706 OFFCURVE",
"269 706 CURVE SMOOTH",
"311 706 OFFCURVE",
"343 689 OFFCURVE",
"362 659 CURVE",
"392 706 OFFCURVE",
"439 734 OFFCURVE",
"495 734 CURVE SMOOTH",
"564 734 OFFCURVE",
"618 696 OFFCURVE",
"618 648 CURVE SMOOTH",
"618 377 LINE",
"653 415 OFFCURVE",
"694 434 OFFCURVE",
"741 434 CURVE SMOOTH",
"841 434 OFFCURVE",
"908 351 OFFCURVE",
"908 228 CURVE SMOOTH",
"908 91 OFFCURVE",
"823 -10 OFFCURVE",
"707 -10 CURVE SMOOTH",
"666 -10 OFFCURVE",
"627 3 OFFCURVE",
"595 27 CURVE",
"591 27 LINE",
"561 0 LINE",
"553 0 LINE",
"553 408 LINE",
"389 408 LINE",
"389 18 LINE",
"456 8 LINE",
"456 0 LINE",
"263 0 LINE",
"263 8 LINE",
"324 16 LINE",
"324 408 LINE",
"151 408 LINE",
"151 18 LINE",
"218 8 LINE",
"218 0 LINE",
"25 0 LINE",
"25 8 LINE",
"86 16 LINE",
"86 408 LINE",
"19 408 LINE"
);
},
{
closed = 1;
nodes = (
"783 0 OFFCURVE",
"833 82 OFFCURVE",
"833 207 CURVE SMOOTH",
"833 329 OFFCURVE",
"785 404 OFFCURVE",
"707 404 CURVE SMOOTH",
"671 404 OFFCURVE",
"638 388 OFFCURVE",
"618 362 CURVE",
"618 101 LINE SMOOTH",
"618 40 OFFCURVE",
"653 0 OFFCURVE",
"706 0 CURVE SMOOTH"
);
},
{
closed = 1;
nodes = (
"428 721 OFFCURVE",
"389 651 OFFCURVE",
"389 530 CURVE SMOOTH",
"389 424 LINE",
"553 424 LINE",
"553 650 LINE SMOOTH",
"553 700 OFFCURVE",
"533 721 OFFCURVE",
"492 721 CURVE SMOOTH"
);
},
{
closed = 1;
nodes = (
"324 633 LINE SMOOTH",
"324 672 OFFCURVE",
"304 693 OFFCURVE",
"268 693 CURVE SMOOTH",
"198 693 OFFCURVE",
"151 657 OFFCURVE",
"151 502 CURVE SMOOTH",
"151 424 LINE",
"324 424 LINE"
);
}
);
width = 948;
}
);
leftKerningGroup = f;
rightKerningGroup = b;
},
{
glyphname = f_f_h;
layers = (
{
background = {
paths = (
{
closed = 1;
nodes = (
"23 424 LINE",
"85 424 LINE",
"85 489 LINE SMOOTH",
"85 608 OFFCURVE",
"155 706 OFFCURVE",
"268 706 CURVE SMOOTH",
"310 706 OFFCURVE",
"342 689 OFFCURVE",
"361 659 CURVE",
"391 706 OFFCURVE",
"438 734 OFFCURVE",
"494 734 CURVE SMOOTH",
"563 734 OFFCURVE",
"617 696 OFFCURVE",
"617 648 CURVE SMOOTH",
"617 369 LINE",
"658 411 OFFCURVE",
"704 434 OFFCURVE",
"748 434 CURVE SMOOTH",
"788 434 OFFCURVE",
"823 415 OFFCURVE",
"839 385 CURVE SMOOTH",
"848 367 OFFCURVE",
"850 346 OFFCURVE",
"850 271 CURVE SMOOTH",
"850 16 LINE",
"911 8 LINE",
"911 0 LINE",
"724 0 LINE",
"724 8 LINE",
"785 16 LINE",
"785 271 LINE SMOOTH",
"785 326 OFFCURVE",
"783 345 OFFCURVE",
"775 361 CURVE SMOOTH",
"764 384 OFFCURVE",
"739 397 OFFCURVE",
"707 397 CURVE SMOOTH",
"672 397 OFFCURVE",
"642 382 OFFCURVE",
"617 354 CURVE",
"617 16 LINE",
"678 8 LINE",
"678 0 LINE",
"491 0 LINE",
"491 8 LINE",
"552 16 LINE",
"552 408 LINE",
"388 408 LINE",
"388 18 LINE",
"445 8 LINE",
"445 0 LINE",
"262 0 LINE",
"262 8 LINE",
"323 16 LINE",
"323 408 LINE",
"150 408 LINE",
"150 18 LINE",
"217 8 LINE",
"217 0 LINE",
"24 0 LINE",
"24 8 LINE",
"85 16 LINE",
"85 408 LINE",
"18 408 LINE"
);
},
{
closed = 1;
nodes = (
"427 721 OFFCURVE",
"388 651 OFFCURVE",
"388 530 CURVE SMOOTH",
"388 424 LINE",
"552 424 LINE",
"552 650 LINE SMOOTH",
"552 700 OFFCURVE",
"532 721 OFFCURVE",
"491 721 CURVE SMOOTH"
);
},
{
closed = 1;
nodes = (
"150 424 LINE",
"323 424 LINE",
"323 633 LINE SMOOTH",
"323 672 OFFCURVE",
"303 693 OFFCURVE",
"267 693 CURVE SMOOTH",
"197 693 OFFCURVE",
"150 657 OFFCURVE",
"150 502 CURVE SMOOTH"
);
}
);
};
layerId = UUID0;
paths = (
{
closed = 1;
nodes = (
"23 424 LINE",
"85 424 LINE",
"85 489 LINE SMOOTH",
"85 608 OFFCURVE",
"155 706 OFFCURVE",
"268 706 CURVE SMOOTH",
"310 706 OFFCURVE",
"342 689 OFFCURVE",
"361 659 CURVE",
"391 706 OFFCURVE",
"438 734 OFFCURVE",
"494 734 CURVE SMOOTH",
"563 734 OFFCURVE",
"617 696 OFFCURVE",
"617 648 CURVE SMOOTH",
"617 369 LINE",
"658 411 OFFCURVE",
"704 434 OFFCURVE",
"748 434 CURVE SMOOTH",
"788 434 OFFCURVE",
"823 415 OFFCURVE",
"839 385 CURVE SMOOTH",
"848 367 OFFCURVE",
"850 346 OFFCURVE",
"850 271 CURVE SMOOTH",
"850 16 LINE",
"911 8 LINE",
"911 0 LINE",
"724 0 LINE",
"724 8 LINE",
"785 16 LINE",
"785 271 LINE SMOOTH",
"785 326 OFFCURVE",
"783 345 OFFCURVE",
"775 361 CURVE SMOOTH",
"764 384 OFFCURVE",
"739 397 OFFCURVE",
"707 397 CURVE SMOOTH",
"672 397 OFFCURVE",
"642 382 OFFCURVE",
"617 354 CURVE",
"617 16 LINE",
"678 8 LINE",
"678 0 LINE",
"491 0 LINE",
"491 8 LINE",
"552 16 LINE",
"552 408 LINE",
"388 408 LINE",
"388 18 LINE",
"445 8 LINE",
"445 0 LINE",
"262 0 LINE",
"262 8 LINE",
"323 16 LINE",
"323 408 LINE",
"150 408 LINE",
"150 18 LINE",
"217 8 LINE",
"217 0 LINE",
"24 0 LINE",
"24 8 LINE",
"85 16 LINE",
"85 408 LINE",
"18 408 LINE"
);
},
{
closed = 1;
nodes = (
"427 721 OFFCURVE",
"388 651 OFFCURVE",
"388 530 CURVE SMOOTH",
"388 424 LINE",
"552 424 LINE",
"552 650 LINE SMOOTH",
"552 700 OFFCURVE",
"532 721 OFFCURVE",
"491 721 CURVE SMOOTH"
);
},
{
closed = 1;
nodes = (
"150 424 LINE",
"323 424 LINE",
"323 633 LINE SMOOTH",
"323 672 OFFCURVE",
"303 693 OFFCURVE",
"267 693 CURVE SMOOTH",
"197 693 OFFCURVE",
"150 657 OFFCURVE",
"150 502 CURVE SMOOTH"
);
}
);
width = 926;
}
);
leftKerningGroup = f;
rightKerningGroup = n;
},
{
glyphname = f_f_i;
layers = (
{
background = {
paths = (
{
closed = 1;
nodes = (
"23 424 LINE",
"85 424 LINE",
"85 489 LINE SMOOTH",
"85 608 OFFCURVE",
"155 706 OFFCURVE",
"268 706 CURVE SMOOTH",
"311 706 OFFCURVE",
"343 689 OFFCURVE",
"362 657 CURVE",
"395 705 OFFCURVE",
"446 734 OFFCURVE",
"509 734 CURVE SMOOTH",
"578 734 OFFCURVE",
"631 696 OFFCURVE",
"631 647 CURVE SMOOTH",
"631 622 OFFCURVE",
"616 606 OFFCURVE",
"592 606 CURVE SMOOTH",
"570 606 OFFCURVE",
"557 620 OFFCURVE",
"551 650 CURVE SMOOTH",
"538 708 OFFCURVE",
"528 721 OFFCURVE",
"496 721 CURVE SMOOTH",
"429 721 OFFCURVE",
"388 649 OFFCURVE",
"388 530 CURVE SMOOTH",
"388 424 LINE",
"481 424 LINE",
"632 435 LINE",
"640 435 LINE",
"640 16 LINE",
"701 8 LINE",
"701 0 LINE",
"514 0 LINE",
"514 8 LINE",
"575 16 LINE",
"575 402 LINE",
"476 408 LINE",
"388 408 LINE",
"388 18 LINE",
"465 8 LINE",
"465 0 LINE",
"262 0 LINE",
"262 8 LINE",
"323 16 LINE",
"323 408 LINE",
"150 408 LINE",
"150 18 LINE",
"217 8 LINE",
"217 0 LINE",
"24 0 LINE",
"24 8 LINE",
"85 16 LINE",
"85 408 LINE",
"18 408 LINE"
);
},
{
closed = 1;
nodes = (
"323 617 LINE SMOOTH",
"323 672 OFFCURVE",
"303 693 OFFCURVE",
"267 693 CURVE SMOOTH",
"203 693 OFFCURVE",
"150 657 OFFCURVE",
"150 502 CURVE SMOOTH",
"150 424 LINE",
"323 424 LINE"
);
}
);
};
layerId = UUID0;
paths = (
{
closed = 1;
nodes = (
"23 424 LINE",
"85 424 LINE",
"85 489 LINE SMOOTH",
"85 608 OFFCURVE",
"155 706 OFFCURVE",
"268 706 CURVE SMOOTH",
"311 706 OFFCURVE",
"343 689 OFFCURVE",
"362 657 CURVE",
"395 705 OFFCURVE",
"446 734 OFFCURVE",
"509 734 CURVE SMOOTH",
"578 734 OFFCURVE",
"631 696 OFFCURVE",
"631 647 CURVE SMOOTH",
"631 622 OFFCURVE",
"616 606 OFFCURVE",
"592 606 CURVE SMOOTH",
"570 606 OFFCURVE",
"557 620 OFFCURVE",
"551 650 CURVE SMOOTH",
"538 708 OFFCURVE",
"528 721 OFFCURVE",
"496 721 CURVE SMOOTH",
"429 721 OFFCURVE",
"388 649 OFFCURVE",
"388 530 CURVE SMOOTH",
"388 424 LINE",
"481 424 LINE",
"632 435 LINE",
"640 435 LINE",
"640 16 LINE",
"701 8 LINE",
"701 0 LINE",
"514 0 LINE",
"514 8 LINE",
"575 16 LINE",
"575 402 LINE",
"476 408 LINE",
"388 408 LINE",
"388 18 LINE",
"465 8 LINE",
"465 0 LINE",
"262 0 LINE",
"262 8 LINE",
"323 16 LINE",
"323 408 LINE",
"150 408 LINE",
"150 18 LINE",
"217 8 LINE",
"217 0 LINE",
"24 0 LINE",
"24 8 LINE",
"85 16 LINE",
"85 408 LINE",
"18 408 LINE"
);
},
{
closed = 1;
nodes = (
"323 617 LINE SMOOTH",
"323 672 OFFCURVE",
"303 693 OFFCURVE",
"267 693 CURVE SMOOTH",
"203 693 OFFCURVE",
"150 657 OFFCURVE",
"150 502 CURVE SMOOTH",
"150 424 LINE",
"323 424 LINE"
);
}
);
width = 717;
}
);
leftKerningGroup = f;
rightKerningGroup = i;
unicode = FB03;
},
{
glyphname = f_f_j;
layers = (
{
background = {
paths = (
{
closed = 1;
nodes = (
"23 424 LINE",
"85 424 LINE",
"85 489 LINE SMOOTH",
"85 608 OFFCURVE",
"155 706 OFFCURVE",
"268 706 CURVE SMOOTH",
"311 706 OFFCURVE",
"343 689 OFFCURVE",
"362 657 CURVE",
"395 705 OFFCURVE",
"446 734 OFFCURVE",
"509 734 CURVE SMOOTH",
"578 734 OFFCURVE",
"631 696 OFFCURVE",
"631 647 CURVE SMOOTH",
"631 622 OFFCURVE",
"616 606 OFFCURVE",
"592 606 CURVE SMOOTH",
"570 606 OFFCURVE",
"557 620 OFFCURVE",
"551 650 CURVE SMOOTH",
"538 708 OFFCURVE",
"528 721 OFFCURVE",
"496 721 CURVE SMOOTH",
"429 721 OFFCURVE",
"388 649 OFFCURVE",
"388 530 CURVE SMOOTH",
"388 424 LINE",
"481 424 LINE",
"632 435 LINE",
"640 435 LINE",
"640 40 LINE SMOOTH",
"640 -91 OFFCURVE",
"636 -123 OFFCURVE",
"617 -158 CURVE SMOOTH",
"587 -214 OFFCURVE",
"537 -247 OFFCURVE",
"481 -247 CURVE SMOOTH",
"435 -247 OFFCURVE",
"404 -223 OFFCURVE",
"404 -189 CURVE SMOOTH",
"404 -165 OFFCURVE",
"420 -149 OFFCURVE",
"442 -149 CURVE SMOOTH",
"462 -149 OFFCURVE",
"474 -161 OFFCURVE",
"481 -188 CURVE SMOOTH",
"488 -218 OFFCURVE",
"497 -228 OFFCURVE",
"518 -228 CURVE SMOOTH",
"557 -228 OFFCURVE",
"575 -188 OFFCURVE",
"575 -102 CURVE SMOOTH",
"575 396 LINE",
"476 408 LINE",
"388 408 LINE",
"388 18 LINE",
"465 8 LINE",
"465 0 LINE",
"262 0 LINE",
"262 8 LINE",
"323 16 LINE",
"323 408 LINE",
"150 408 LINE",
"150 18 LINE",
"217 8 LINE",
"217 0 LINE",
"24 0 LINE",
"24 8 LINE",
"85 16 LINE",
"85 408 LINE",
"18 408 LINE"
);
},
{
closed = 1;
nodes = (
"150 424 LINE",
"323 424 LINE",
"323 633 LINE SMOOTH",
"323 672 OFFCURVE",
"303 693 OFFCURVE",
"267 693 CURVE SMOOTH",
"197 693 OFFCURVE",
"150 657 OFFCURVE",
"150 502 CURVE SMOOTH"
);
}
);
};
layerId = UUID0;
paths = (
{
closed = 1;
nodes = (
"23 424 LINE",
"85 424 LINE",
"85 489 LINE SMOOTH",
"85 608 OFFCURVE",
"155 706 OFFCURVE",
"268 706 CURVE SMOOTH",
"311 706 OFFCURVE",
"343 689 OFFCURVE",
"362 657 CURVE",
"395 705 OFFCURVE",
"446 734 OFFCURVE",
"509 734 CURVE SMOOTH",
"578 734 OFFCURVE",
"631 696 OFFCURVE",
"631 647 CURVE SMOOTH",
"631 622 OFFCURVE",
"616 606 OFFCURVE",
"592 606 CURVE SMOOTH",
"570 606 OFFCURVE",
"557 620 OFFCURVE",
"551 650 CURVE SMOOTH",
"538 708 OFFCURVE",
"528 721 OFFCURVE",
"496 721 CURVE SMOOTH",
"429 721 OFFCURVE",
"388 649 OFFCURVE",
"388 530 CURVE SMOOTH",
"388 424 LINE",
"481 424 LINE",
"632 435 LINE",
"640 435 LINE",
"640 40 LINE SMOOTH",
"640 -91 OFFCURVE",
"636 -123 OFFCURVE",
"617 -158 CURVE SMOOTH",
"587 -214 OFFCURVE",
"537 -247 OFFCURVE",
"481 -247 CURVE SMOOTH",
"435 -247 OFFCURVE",
"404 -223 OFFCURVE",
"404 -189 CURVE SMOOTH",
"404 -165 OFFCURVE",
"420 -149 OFFCURVE",
"442 -149 CURVE SMOOTH",
"462 -149 OFFCURVE",
"474 -161 OFFCURVE",
"481 -188 CURVE SMOOTH",
"488 -218 OFFCURVE",
"497 -228 OFFCURVE",
"518 -228 CURVE SMOOTH",
"557 -228 OFFCURVE",
"575 -188 OFFCURVE",
"575 -102 CURVE SMOOTH",
"575 396 LINE",
"476 408 LINE",
"388 408 LINE",
"388 18 LINE",
"465 8 LINE",
"465 0 LINE",
"262 0 LINE",
"262 8 LINE",
"323 16 LINE",
"323 408 LINE",
"150 408 LINE",
"150 18 LINE",
"217 8 LINE",
"217 0 LINE",
"24 0 LINE",
"24 8 LINE",
"85 16 LINE",
"85 408 LINE",
"18 408 LINE"
);
},
{
closed = 1;
nodes = (
"150 424 LINE",
"323 424 LINE",
"323 633 LINE SMOOTH",
"323 672 OFFCURVE",
"303 693 OFFCURVE",
"267 693 CURVE SMOOTH",
"197 693 OFFCURVE",
"150 657 OFFCURVE",
"150 502 CURVE SMOOTH"
);
}
);
width = 712;
}
);
leftKerningGroup = f;
rightKerningGroup = j;
},
{
glyphname = f_f_k;
layers = (
{
background = {
paths = (
{
closed = 1;
nodes = (
"23 424 LINE",
"85 424 LINE",
"85 489 LINE SMOOTH",
"85 608 OFFCURVE",
"155 706 OFFCURVE",
"268 706 CURVE SMOOTH",
"311 706 OFFCURVE",
"343 689 OFFCURVE",
"362 657 CURVE",
"394 704 OFFCURVE",
"443 734 OFFCURVE",
"506 734 CURVE SMOOTH",
"579 734 OFFCURVE",
"626 685 OFFCURVE",
"626 600 CURVE SMOOTH",
"626 189 LINE",
"768 360 LINE SMOOTH",
"780 375 OFFCURVE",
"786 385 OFFCURVE",
"786 392 CURVE SMOOTH",
"786 404 OFFCURVE",
"772 409 OFFCURVE",
"724 416 CURVE",
"724 424 LINE",
"893 424 LINE",
"893 416 LINE",
"839 407 OFFCURVE",
"815 394 OFFCURVE",
"788 362 CURVE SMOOTH",
"698 256 LINE",
"896 16 LINE",
"951 8 LINE",
"951 0 LINE",
"823 0 LINE",
"654 204 LINE",
"626 171 LINE",
"626 16 LINE",
"686 8 LINE",
"686 0 LINE",
"500 0 LINE",
"500 8 LINE",
"561 16 LINE",
"561 408 LINE",
"388 408 LINE",
"388 18 LINE",
"455 8 LINE",
"455 0 LINE",
"262 0 LINE",
"262 8 LINE",
"323 16 LINE",
"323 408 LINE",
"150 408 LINE",
"150 18 LINE",
"217 8 LINE",
"217 0 LINE",
"24 0 LINE",
"24 8 LINE",
"85 16 LINE",
"85 408 LINE",
"18 408 LINE"
);
},
{
closed = 1;
nodes = (
"561 661 LINE SMOOTH",
"561 700 OFFCURVE",
"541 721 OFFCURVE",
"505 721 CURVE SMOOTH",
"435 721 OFFCURVE",
"388 685 OFFCURVE",
"388 530 CURVE SMOOTH",
"388 424 LINE",
"561 424 LINE"
);
},
{
closed = 1;
nodes = (
"323 617 LINE SMOOTH",
"323 672 OFFCURVE",
"303 693 OFFCURVE",
"267 693 CURVE SMOOTH",
"203 693 OFFCURVE",
"150 657 OFFCURVE",
"150 502 CURVE SMOOTH",
"150 424 LINE",
"323 424 LINE"
);
}
);
};
layerId = UUID0;
paths = (
{
closed = 1;
nodes = (
"23 424 LINE",
"85 424 LINE",
"85 489 LINE SMOOTH",
"85 608 OFFCURVE",
"155 706 OFFCURVE",
"268 706 CURVE SMOOTH",
"311 706 OFFCURVE",
"343 689 OFFCURVE",
"362 657 CURVE",
"394 704 OFFCURVE",
"443 734 OFFCURVE",
"506 734 CURVE SMOOTH",
"579 734 OFFCURVE",
"626 685 OFFCURVE",
"626 600 CURVE SMOOTH",
"626 189 LINE",
"768 360 LINE SMOOTH",
"780 375 OFFCURVE",
"786 385 OFFCURVE",
"786 392 CURVE SMOOTH",
"786 404 OFFCURVE",
"772 409 OFFCURVE",
"724 416 CURVE",
"724 424 LINE",
"893 424 LINE",
"893 416 LINE",
"839 407 OFFCURVE",
"815 394 OFFCURVE",
"788 362 CURVE SMOOTH",
"698 256 LINE",
"896 16 LINE",
"951 8 LINE",
"951 0 LINE",
"823 0 LINE",
"654 204 LINE",
"626 171 LINE",
"626 16 LINE",
"686 8 LINE",
"686 0 LINE",
"500 0 LINE",
"500 8 LINE",
"561 16 LINE",
"561 408 LINE",
"388 408 LINE",
"388 18 LINE",
"455 8 LINE",
"455 0 LINE",
"262 0 LINE",
"262 8 LINE",
"323 16 LINE",
"323 408 LINE",
"150 408 LINE",
"150 18 LINE",
"217 8 LINE",
"217 0 LINE",
"24 0 LINE",
"24 8 LINE",
"85 16 LINE",
"85 408 LINE",
"18 408 LINE"
);
},
{
closed = 1;
nodes = (
"561 661 LINE SMOOTH",
"561 700 OFFCURVE",
"541 721 OFFCURVE",
"505 721 CURVE SMOOTH",
"435 721 OFFCURVE",
"388 685 OFFCURVE",
"388 530 CURVE SMOOTH",
"388 424 LINE",
"561 424 LINE"
);
},
{
closed = 1;
nodes = (
"323 617 LINE SMOOTH",
"323 672 OFFCURVE",
"303 693 OFFCURVE",
"267 693 CURVE SMOOTH",
"203 693 OFFCURVE",
"150 657 OFFCURVE",
"150 502 CURVE SMOOTH",
"150 424 LINE",
"323 424 LINE"
);
}
);
width = 939;
}
);
leftKerningGroup = f;
rightKerningGroup = k;
},
{
glyphname = f_f_l;
layers = (
{
background = {
paths = (
{
closed = 1;
nodes = (
"23 424 LINE",
"85 424 LINE",
"85 489 LINE SMOOTH",
"85 608 OFFCURVE",
"155 706 OFFCURVE",
"268 706 CURVE SMOOTH",
"311 706 OFFCURVE",
"343 689 OFFCURVE",
"362 657 CURVE",
"395 705 OFFCURVE",
"446 734 OFFCURVE",
"508 734 CURVE SMOOTH",
"577 734 OFFCURVE",
"631 696 OFFCURVE",
"631 648 CURVE SMOOTH",
"631 16 LINE",
"692 8 LINE",
"692 0 LINE",
"515 0 LINE",
"515 8 LINE",
"566 16 LINE",
"566 408 LINE",
"388 408 LINE",
"388 18 LINE",
"455 8 LINE",
"455 0 LINE",
"262 0 LINE",
"262 8 LINE",
"323 16 LINE",
"323 408 LINE",
"150 408 LINE",
"150 18 LINE",
"217 8 LINE",
"217 0 LINE",
"24 0 LINE",
"24 8 LINE",
"85 16 LINE",
"85 408 LINE",
"18 408 LINE"
);
},
{
closed = 1;
nodes = (
"431 721 OFFCURVE",
"388 651 OFFCURVE",
"388 530 CURVE SMOOTH",
"388 424 LINE",
"566 424 LINE",
"566 650 LINE SMOOTH",
"566 700 OFFCURVE",
"546 721 OFFCURVE",
"505 721 CURVE SMOOTH"
);
},
{
closed = 1;
nodes = (
"323 617 LINE SMOOTH",
"323 672 OFFCURVE",
"303 693 OFFCURVE",
"267 693 CURVE SMOOTH",
"203 693 OFFCURVE",
"150 657 OFFCURVE",
"150 502 CURVE SMOOTH",
"150 424 LINE",
"323 424 LINE"
);
}
);
};
layerId = UUID0;
paths = (
{
closed = 1;
nodes = (
"23 424 LINE",
"85 424 LINE",
"85 489 LINE SMOOTH",
"85 608 OFFCURVE",
"155 706 OFFCURVE",
"268 706 CURVE SMOOTH",
"311 706 OFFCURVE",
"343 689 OFFCURVE",
"362 657 CURVE",
"395 705 OFFCURVE",
"446 734 OFFCURVE",
"508 734 CURVE SMOOTH",
"577 734 OFFCURVE",
"631 696 OFFCURVE",
"631 648 CURVE SMOOTH",
"631 16 LINE",
"692 8 LINE",
"692 0 LINE",
"515 0 LINE",
"515 8 LINE",
"566 16 LINE",
"566 408 LINE",
"388 408 LINE",
"388 18 LINE",
"455 8 LINE",
"455 0 LINE",
"262 0 LINE",
"262 8 LINE",
"323 16 LINE",
"323 408 LINE",
"150 408 LINE",
"150 18 LINE",
"217 8 LINE",
"217 0 LINE",
"24 0 LINE",
"24 8 LINE",
"85 16 LINE",
"85 408 LINE",
"18 408 LINE"
);
},
{
closed = 1;
nodes = (
"431 721 OFFCURVE",
"388 651 OFFCURVE",
"388 530 CURVE SMOOTH",
"388 424 LINE",
"566 424 LINE",
"566 650 LINE SMOOTH",
"566 700 OFFCURVE",
"546 721 OFFCURVE",
"505 721 CURVE SMOOTH"
);
},
{
closed = 1;
nodes = (
"323 617 LINE SMOOTH",
"323 672 OFFCURVE",
"303 693 OFFCURVE",
"267 693 CURVE SMOOTH",
"203 693 OFFCURVE",
"150 657 OFFCURVE",
"150 502 CURVE SMOOTH",
"150 424 LINE",
"323 424 LINE"
);
}
);
width = 710;
}
);
leftKerningGroup = f;
rightKerningGroup = l;
unicode = FB04;
},
{
glyphname = f_f_t;
layers = (
{
background = {
paths = (
{
closed = 1;
nodes = (
"25 424 LINE",
"87 424 LINE",
"87 489 LINE SMOOTH",
"87 608 OFFCURVE",
"157 706 OFFCURVE",
"270 706 CURVE SMOOTH",
"313 706 OFFCURVE",
"345 689 OFFCURVE",
"364 657 CURVE",
"397 705 OFFCURVE",
"448 734 OFFCURVE",
"511 734 CURVE SMOOTH",
"580 734 OFFCURVE",
"633 696 OFFCURVE",
"633 647 CURVE SMOOTH",
"633 622 OFFCURVE",
"618 606 OFFCURVE",
"594 606 CURVE SMOOTH",
"572 606 OFFCURVE",
"559 620 OFFCURVE",
"553 650 CURVE SMOOTH",
"540 708 OFFCURVE",
"530 721 OFFCURVE",
"498 721 CURVE SMOOTH",
"431 721 OFFCURVE",
"390 649 OFFCURVE",
"390 530 CURVE SMOOTH",
"390 424 LINE",
"562 424 LINE",
"623 510 LINE",
"627 509 LINE",
"627 424 LINE",
"741 424 LINE",
"735 408 LINE",
"627 408 LINE",
"627 102 LINE SMOOTH",
"627 79 OFFCURVE",
"631 61 OFFCURVE",
"638 50 CURVE",
"646 34 OFFCURVE",
"662 26 OFFCURVE",
"683 26 CURVE SMOOTH",
"705 26 OFFCURVE",
"723 36 OFFCURVE",
"747 60 CURVE",
"751 57 LINE",
"731 16 OFFCURVE",
"692 -10 OFFCURVE",
"650 -10 CURVE SMOOTH",
"629 -10 OFFCURVE",
"608 -3 OFFCURVE",
"593 8 CURVE SMOOTH",
"571 24 OFFCURVE",
"562 47 OFFCURVE",
"562 89 CURVE SMOOTH",
"562 409 LINE",
"390 409 LINE",
"390 18 LINE",
"467 8 LINE",
"467 0 LINE",
"264 0 LINE",
"264 8 LINE",
"325 16 LINE",
"325 409 LINE",
"152 409 LINE",
"152 18 LINE",
"219 8 LINE",
"219 0 LINE",
"26 0 LINE",
"26 8 LINE",
"87 16 LINE",
"87 409 LINE",
"20 409 LINE"
);
},
{
closed = 1;
nodes = (
"152 424 LINE",
"325 424 LINE",
"325 617 LINE SMOOTH",
"325 672 OFFCURVE",
"305 693 OFFCURVE",
"269 693 CURVE SMOOTH",
"205 693 OFFCURVE",
"152 657 OFFCURVE",
"152 502 CURVE SMOOTH"
);
}
);
};
layerId = UUID0;
paths = (
{
closed = 1;
nodes = (
"25 424 LINE",
"87 424 LINE",
"87 489 LINE SMOOTH",
"87 608 OFFCURVE",
"157 706 OFFCURVE",
"270 706 CURVE SMOOTH",
"313 706 OFFCURVE",
"345 689 OFFCURVE",
"364 657 CURVE",
"397 705 OFFCURVE",
"448 734 OFFCURVE",
"511 734 CURVE SMOOTH",
"580 734 OFFCURVE",
"633 696 OFFCURVE",
"633 647 CURVE SMOOTH",
"633 622 OFFCURVE",
"618 606 OFFCURVE",
"594 606 CURVE SMOOTH",
"572 606 OFFCURVE",
"559 620 OFFCURVE",
"553 650 CURVE SMOOTH",
"540 708 OFFCURVE",
"530 721 OFFCURVE",
"498 721 CURVE SMOOTH",
"431 721 OFFCURVE",
"390 649 OFFCURVE",
"390 530 CURVE SMOOTH",
"390 424 LINE",
"562 424 LINE",
"623 510 LINE",
"627 509 LINE",
"627 424 LINE",
"741 424 LINE",
"735 408 LINE",
"627 408 LINE",
"627 102 LINE SMOOTH",
"627 79 OFFCURVE",
"631 61 OFFCURVE",
"638 50 CURVE",
"646 34 OFFCURVE",
"662 26 OFFCURVE",
"683 26 CURVE SMOOTH",
"705 26 OFFCURVE",
"723 36 OFFCURVE",
"747 60 CURVE",
"751 57 LINE",
"731 16 OFFCURVE",
"692 -10 OFFCURVE",
"650 -10 CURVE SMOOTH",
"629 -10 OFFCURVE",
"608 -3 OFFCURVE",
"593 8 CURVE SMOOTH",
"571 24 OFFCURVE",
"562 47 OFFCURVE",
"562 89 CURVE SMOOTH",
"562 409 LINE",
"390 409 LINE",
"390 18 LINE",
"467 8 LINE",
"467 0 LINE",
"264 0 LINE",
"264 8 LINE",
"325 16 LINE",
"325 409 LINE",
"152 409 LINE",
"152 18 LINE",
"219 8 LINE",
"219 0 LINE",
"26 0 LINE",
"26 8 LINE",
"87 16 LINE",
"87 409 LINE",
"20 409 LINE"
);
},
{
closed = 1;
nodes = (
"152 424 LINE",
"325 424 LINE",
"325 617 LINE SMOOTH",
"325 672 OFFCURVE",
"305 693 OFFCURVE",
"269 693 CURVE SMOOTH",
"205 693 OFFCURVE",
"152 657 OFFCURVE",
"152 502 CURVE SMOOTH"
);
}
);
width = 757;
}
);
leftKerningGroup = f;
rightKerningGroup = t;
},
{
glyphname = f_h;
layers = (
{
background = {
paths = (
{
closed = 1;
nodes = (
"23 424 LINE",
"85 424 LINE",
"85 517 LINE SMOOTH",
"85 644 OFFCURVE",
"157 734 OFFCURVE",
"256 734 CURVE SMOOTH",
"325 734 OFFCURVE",
"379 696 OFFCURVE",
"379 648 CURVE SMOOTH",
"379 369 LINE",
"420 411 OFFCURVE",
"466 434 OFFCURVE",
"510 434 CURVE SMOOTH",
"550 434 OFFCURVE",
"585 415 OFFCURVE",
"601 385 CURVE SMOOTH",
"610 367 OFFCURVE",
"612 346 OFFCURVE",
"612 271 CURVE SMOOTH",
"612 16 LINE",
"673 8 LINE",
"673 0 LINE",
"486 0 LINE",
"486 8 LINE",
"547 16 LINE",
"547 271 LINE SMOOTH",
"547 326 OFFCURVE",
"545 345 OFFCURVE",
"537 361 CURVE SMOOTH",
"526 384 OFFCURVE",
"501 397 OFFCURVE",
"469 397 CURVE SMOOTH",
"434 397 OFFCURVE",
"404 382 OFFCURVE",
"379 354 CURVE",
"379 16 LINE",
"440 8 LINE",
"440 0 LINE",
"253 0 LINE",
"253 8 LINE",
"314 16 LINE",
"314 408 LINE",
"150 408 LINE",
"150 18 LINE",
"207 8 LINE",
"207 0 LINE",
"24 0 LINE",
"24 8 LINE",
"85 16 LINE",
"85 408 LINE",
"18 408 LINE"
);
},
{
closed = 1;
nodes = (
"189 721 OFFCURVE",
"150 651 OFFCURVE",
"150 530 CURVE SMOOTH",
"150 424 LINE",
"314 424 LINE",
"314 650 LINE SMOOTH",
"314 700 OFFCURVE",
"294 721 OFFCURVE",
"253 721 CURVE SMOOTH"
);
}
);
};
hints = (
{
place = "{314, 65}";
},
{
place = "{547, 65}";
},
{
horizontal = 1;
place = "{397, 37}";
},
{
horizontal = 1;
place = "{0, 21}";
target = up;
type = BottomGhost;
},
{
horizontal = 1;
place = "{721, -20}";
target = down;
type = TopGhost;
}
);
layerId = UUID0;
paths = (
{
closed = 1;
nodes = (
"23 424 LINE",
"85 424 LINE",
"85 517 LINE SMOOTH",
"85 644 OFFCURVE",
"157 734 OFFCURVE",
"256 734 CURVE SMOOTH",
"325 734 OFFCURVE",
"379 696 OFFCURVE",
"379 648 CURVE SMOOTH",
"379 369 LINE",
"420 411 OFFCURVE",
"466 434 OFFCURVE",
"510 434 CURVE SMOOTH",
"550 434 OFFCURVE",
"585 415 OFFCURVE",
"601 385 CURVE SMOOTH",
"610 367 OFFCURVE",
"612 346 OFFCURVE",
"612 271 CURVE SMOOTH",
"612 16 LINE",
"673 8 LINE",
"673 0 LINE",
"486 0 LINE",
"486 8 LINE",
"547 16 LINE",
"547 271 LINE SMOOTH",
"547 326 OFFCURVE",
"545 345 OFFCURVE",
"537 361 CURVE SMOOTH",
"526 384 OFFCURVE",
"501 397 OFFCURVE",
"469 397 CURVE SMOOTH",
"434 397 OFFCURVE",
"404 382 OFFCURVE",
"379 354 CURVE",
"379 16 LINE",
"440 8 LINE",
"440 0 LINE",
"253 0 LINE",
"253 8 LINE",
"314 16 LINE",
"314 408 LINE",
"150 408 LINE",
"150 18 LINE",
"207 8 LINE",
"207 0 LINE",
"24 0 LINE",
"24 8 LINE",
"85 16 LINE",
"85 408 LINE",
"18 408 LINE"
);
},
{
closed = 1;
nodes = (
"189 721 OFFCURVE",
"150 651 OFFCURVE",
"150 530 CURVE SMOOTH",
"150 424 LINE",
"314 424 LINE",
"314 650 LINE SMOOTH",
"314 700 OFFCURVE",
"294 721 OFFCURVE",
"253 721 CURVE SMOOTH"
);
}
);
width = 688;
}
);
leftKerningGroup = f;
rightKerningGroup = n;
},
{
glyphname = f_i;
layers = (
{
background = {
paths = (
{
closed = 1;
nodes = (
"463 8 LINE",
"463 0 LINE",
"276 0 LINE",
"276 8 LINE",
"337 16 LINE",
"337 396 LINE",
"238 408 LINE",
"150 408 LINE",
"150 18 LINE",
"227 8 LINE",
"227 0 LINE",
"24 0 LINE",
"24 8 LINE",
"85 16 LINE",
"85 408 LINE",
"18 408 LINE",
"23 424 LINE",
"85 424 LINE",
"85 517 LINE SMOOTH",
"85 645 OFFCURVE",
"161 734 OFFCURVE",
"271 734 CURVE SMOOTH",
"340 734 OFFCURVE",
"393 696 OFFCURVE",
"393 647 CURVE SMOOTH",
"393 622 OFFCURVE",
"378 606 OFFCURVE",
"354 606 CURVE SMOOTH",
"332 606 OFFCURVE",
"319 620 OFFCURVE",
"313 650 CURVE SMOOTH",
"300 708 OFFCURVE",
"290 721 OFFCURVE",
"258 721 CURVE SMOOTH",
"191 721 OFFCURVE",
"150 649 OFFCURVE",
"150 530 CURVE SMOOTH",
"150 424 LINE",
"243 424 LINE",
"394 435 LINE",
"402 435 LINE",
"402 16 LINE"
);
}
);
};
hints = (
{
place = "{85, 65}";
},
{
place = "{337, 65}";
},
{
horizontal = 1;
place = "{606, 128}";
},
{
horizontal = 1;
place = "{0, 21}";
target = up;
type = BottomGhost;
}
);
layerId = UUID0;
paths = (
{
closed = 1;
nodes = (
"463 8 LINE",
"463 0 LINE",
"276 0 LINE",
"276 8 LINE",
"337 16 LINE",
"337 396 LINE",
"238 408 LINE",
"150 408 LINE",
"150 18 LINE",
"227 8 LINE",
"227 0 LINE",
"24 0 LINE",
"24 8 LINE",
"85 16 LINE",
"85 408 LINE",
"18 408 LINE",
"23 424 LINE",
"85 424 LINE",
"85 517 LINE SMOOTH",
"85 645 OFFCURVE",
"161 734 OFFCURVE",
"271 734 CURVE SMOOTH",
"340 734 OFFCURVE",
"393 696 OFFCURVE",
"393 647 CURVE SMOOTH",
"393 622 OFFCURVE",
"378 606 OFFCURVE",
"354 606 CURVE SMOOTH",
"332 606 OFFCURVE",
"319 620 OFFCURVE",
"313 650 CURVE SMOOTH",
"300 708 OFFCURVE",
"290 721 OFFCURVE",
"258 721 CURVE SMOOTH",
"191 721 OFFCURVE",
"150 649 OFFCURVE",
"150 530 CURVE SMOOTH",
"150 424 LINE",
"243 424 LINE",
"394 435 LINE",
"402 435 LINE",
"402 16 LINE"
);
}
);
width = 479;
}
);
leftKerningGroup = f;
rightKerningGroup = i;
unicode = FB01;
},
{
glyphname = f_j;
layers = (
{
background = {
paths = (
{
closed = 1;
nodes = (
"337 396 LINE",
"238 408 LINE",
"150 408 LINE",
"150 18 LINE",
"227 8 LINE",
"227 0 LINE",
"24 0 LINE",
"24 8 LINE",
"85 16 LINE",
"85 408 LINE",
"18 408 LINE",
"23 424 LINE",
"85 424 LINE",
"85 517 LINE SMOOTH",
"85 645 OFFCURVE",
"161 734 OFFCURVE",
"271 734 CURVE SMOOTH",
"340 734 OFFCURVE",
"393 696 OFFCURVE",
"393 647 CURVE SMOOTH",
"393 622 OFFCURVE",
"378 606 OFFCURVE",
"354 606 CURVE SMOOTH",
"332 606 OFFCURVE",
"319 620 OFFCURVE",
"313 650 CURVE SMOOTH",
"300 708 OFFCURVE",
"290 721 OFFCURVE",
"258 721 CURVE SMOOTH",
"191 721 OFFCURVE",
"150 649 OFFCURVE",
"150 530 CURVE SMOOTH",
"150 424 LINE",
"243 424 LINE",
"394 435 LINE",
"402 435 LINE",
"402 40 LINE SMOOTH",
"402 -91 OFFCURVE",
"398 -123 OFFCURVE",
"379 -158 CURVE SMOOTH",
"349 -214 OFFCURVE",
"299 -247 OFFCURVE",
"243 -247 CURVE SMOOTH",
"197 -247 OFFCURVE",
"166 -223 OFFCURVE",
"166 -189 CURVE SMOOTH",
"166 -165 OFFCURVE",
"182 -149 OFFCURVE",
"204 -149 CURVE SMOOTH",
"224 -149 OFFCURVE",
"236 -161 OFFCURVE",
"243 -188 CURVE SMOOTH",
"250 -218 OFFCURVE",
"259 -228 OFFCURVE",
"280 -228 CURVE SMOOTH",
"319 -228 OFFCURVE",
"337 -188 OFFCURVE",
"337 -102 CURVE SMOOTH"
);
}
);
};
layerId = UUID0;
paths = (
{
closed = 1;
nodes = (
"337 396 LINE",
"238 408 LINE",
"150 408 LINE",
"150 18 LINE",
"227 8 LINE",
"227 0 LINE",
"24 0 LINE",
"24 8 LINE",
"85 16 LINE",
"85 408 LINE",
"18 408 LINE",
"23 424 LINE",
"85 424 LINE",
"85 517 LINE SMOOTH",
"85 645 OFFCURVE",
"161 734 OFFCURVE",
"271 734 CURVE SMOOTH",
"340 734 OFFCURVE",
"393 696 OFFCURVE",
"393 647 CURVE SMOOTH",
"393 622 OFFCURVE",
"378 606 OFFCURVE",
"354 606 CURVE SMOOTH",
"332 606 OFFCURVE",
"319 620 OFFCURVE",
"313 650 CURVE SMOOTH",
"300 708 OFFCURVE",
"290 721 OFFCURVE",
"258 721 CURVE SMOOTH",
"191 721 OFFCURVE",
"150 649 OFFCURVE",
"150 530 CURVE SMOOTH",
"150 424 LINE",
"243 424 LINE",
"394 435 LINE",
"402 435 LINE",
"402 40 LINE SMOOTH",
"402 -91 OFFCURVE",
"398 -123 OFFCURVE",
"379 -158 CURVE SMOOTH",
"349 -214 OFFCURVE",
"299 -247 OFFCURVE",
"243 -247 CURVE SMOOTH",
"197 -247 OFFCURVE",
"166 -223 OFFCURVE",
"166 -189 CURVE SMOOTH",
"166 -165 OFFCURVE",
"182 -149 OFFCURVE",
"204 -149 CURVE SMOOTH",
"224 -149 OFFCURVE",
"236 -161 OFFCURVE",
"243 -188 CURVE SMOOTH",
"250 -218 OFFCURVE",
"259 -228 OFFCURVE",
"280 -228 CURVE SMOOTH",
"319 -228 OFFCURVE",
"337 -188 OFFCURVE",
"337 -102 CURVE SMOOTH"
);
}
);
width = 474;
}
);
leftKerningGroup = f;
rightKerningGroup = j;
},
{
glyphname = f_k;
layers = (
{
background = {
paths = (
{
closed = 1;
nodes = (
"23 424 LINE",
"85 424 LINE",
"85 517 LINE SMOOTH",
"85 636 OFFCURVE",
"155 734 OFFCURVE",
"268 734 CURVE SMOOTH",
"341 734 OFFCURVE",
"388 685 OFFCURVE",
"388 600 CURVE SMOOTH",
"388 189 LINE",
"530 360 LINE SMOOTH",
"542 375 OFFCURVE",
"548 385 OFFCURVE",
"548 392 CURVE SMOOTH",
"548 404 OFFCURVE",
"534 409 OFFCURVE",
"486 416 CURVE",
"486 424 LINE",
"655 424 LINE",
"655 416 LINE",
"601 407 OFFCURVE",
"577 394 OFFCURVE",
"550 362 CURVE SMOOTH",
"460 256 LINE",
"658 16 LINE",
"713 8 LINE",
"713 0 LINE",
"585 0 LINE",
"416 204 LINE",
"388 171 LINE",
"388 16 LINE",
"448 8 LINE",
"448 0 LINE",
"262 0 LINE",
"262 8 LINE",
"323 16 LINE",
"323 408 LINE",
"150 408 LINE",
"150 18 LINE",
"217 8 LINE",
"217 0 LINE",
"24 0 LINE",
"24 8 LINE",
"85 16 LINE",
"85 408 LINE",
"18 408 LINE"
);
},
{
closed = 1;
nodes = (
"323 661 LINE SMOOTH",
"323 700 OFFCURVE",
"303 721 OFFCURVE",
"267 721 CURVE SMOOTH",
"197 721 OFFCURVE",
"150 685 OFFCURVE",
"150 530 CURVE SMOOTH",
"150 424 LINE",
"323 424 LINE"
);
}
);
};
hints = (
{
place = "{323, 65}";
},
{
horizontal = 1;
place = "{721, -20}";
target = down;
type = TopGhost;
},
{
horizontal = 1;
place = "{0, 21}";
target = up;
type = BottomGhost;
}
);
layerId = UUID0;
paths = (
{
closed = 1;
nodes = (
"23 424 LINE",
"85 424 LINE",
"85 517 LINE SMOOTH",
"85 636 OFFCURVE",
"155 734 OFFCURVE",
"268 734 CURVE SMOOTH",
"341 734 OFFCURVE",
"388 685 OFFCURVE",
"388 600 CURVE SMOOTH",
"388 189 LINE",
"530 360 LINE SMOOTH",
"542 375 OFFCURVE",
"548 385 OFFCURVE",
"548 392 CURVE SMOOTH",
"548 404 OFFCURVE",
"534 409 OFFCURVE",
"486 416 CURVE",
"486 424 LINE",
"655 424 LINE",
"655 416 LINE",
"601 407 OFFCURVE",
"577 394 OFFCURVE",
"550 362 CURVE SMOOTH",
"460 256 LINE",
"658 16 LINE",
"713 8 LINE",
"713 0 LINE",
"585 0 LINE",
"416 204 LINE",
"388 171 LINE",
"388 16 LINE",
"448 8 LINE",
"448 0 LINE",
"262 0 LINE",
"262 8 LINE",
"323 16 LINE",
"323 408 LINE",
"150 408 LINE",
"150 18 LINE",
"217 8 LINE",
"217 0 LINE",
"24 0 LINE",
"24 8 LINE",
"85 16 LINE",
"85 408 LINE",
"18 408 LINE"
);
},
{
closed = 1;
nodes = (
"323 661 LINE SMOOTH",
"323 700 OFFCURVE",
"303 721 OFFCURVE",
"267 721 CURVE SMOOTH",
"197 721 OFFCURVE",
"150 685 OFFCURVE",
"150 530 CURVE SMOOTH",
"150 424 LINE",
"323 424 LINE"
);
}
);
width = 701;
}
);
leftKerningGroup = f;
rightKerningGroup = k;
},
{
glyphname = f_l;
layers = (
{
background = {
paths = (
{
closed = 1;
nodes = (
"23 424 LINE",
"85 424 LINE",
"85 517 LINE SMOOTH",
"85 644 OFFCURVE",
"161 734 OFFCURVE",
"270 734 CURVE SMOOTH",
"339 734 OFFCURVE",
"393 706 OFFCURVE",
"393 618 CURVE SMOOTH",
"393 16 LINE",
"454 8 LINE",
"454 0 LINE",
"277 0 LINE",
"277 8 LINE",
"328 16 LINE",
"328 408 LINE",
"150 408 LINE",
"150 18 LINE",
"217 8 LINE",
"217 0 LINE",
"24 0 LINE",
"24 8 LINE",
"85 16 LINE",
"85 408 LINE",
"18 408 LINE"
);
},
{
closed = 1;
nodes = (
"328 653 LINE SMOOTH",
"328 700 OFFCURVE",
"307 721 OFFCURVE",
"267 721 CURVE SMOOTH",
"193 721 OFFCURVE",
"150 651 OFFCURVE",
"150 530 CURVE SMOOTH",
"150 424 LINE",
"328 424 LINE"
);
}
);
};
layerId = UUID0;
paths = (
{
closed = 1;
nodes = (
"23 424 LINE",
"85 424 LINE",
"85 517 LINE SMOOTH",
"85 644 OFFCURVE",
"161 734 OFFCURVE",
"270 734 CURVE SMOOTH",
"339 734 OFFCURVE",
"393 706 OFFCURVE",
"393 618 CURVE SMOOTH",
"393 16 LINE",
"454 8 LINE",
"454 0 LINE",
"277 0 LINE",
"277 8 LINE",
"328 16 LINE",
"328 408 LINE",
"150 408 LINE",
"150 18 LINE",
"217 8 LINE",
"217 0 LINE",
"24 0 LINE",
"24 8 LINE",
"85 16 LINE",
"85 408 LINE",
"18 408 LINE"
);
},
{
closed = 1;
nodes = (
"328 653 LINE SMOOTH",
"328 700 OFFCURVE",
"307 721 OFFCURVE",
"267 721 CURVE SMOOTH",
"193 721 OFFCURVE",
"150 651 OFFCURVE",
"150 530 CURVE SMOOTH",
"150 424 LINE",
"328 424 LINE"
);
}
);
width = 472;
}
);
leftKerningGroup = f;
rightKerningGroup = l;
unicode = FB02;
},
{
glyphname = f_t;
layers = (
{
background = {
paths = (
{
closed = 1;
nodes = (
"25 424 LINE",
"87 424 LINE",
"87 517 LINE SMOOTH",
"87 645 OFFCURVE",
"163 734 OFFCURVE",
"273 734 CURVE SMOOTH",
"342 734 OFFCURVE",
"395 696 OFFCURVE",
"395 647 CURVE SMOOTH",
"395 622 OFFCURVE",
"380 606 OFFCURVE",
"356 606 CURVE SMOOTH",
"334 606 OFFCURVE",
"321 620 OFFCURVE",
"315 650 CURVE SMOOTH",
"302 708 OFFCURVE",
"292 721 OFFCURVE",
"260 721 CURVE SMOOTH",
"193 721 OFFCURVE",
"152 649 OFFCURVE",
"152 530 CURVE SMOOTH",
"152 424 LINE",
"324 424 LINE",
"385 510 LINE",
"389 509 LINE",
"389 424 LINE",
"503 424 LINE",
"497 408 LINE",
"389 408 LINE",
"389 102 LINE SMOOTH",
"389 79 OFFCURVE",
"393 61 OFFCURVE",
"400 50 CURVE",
"408 34 OFFCURVE",
"424 26 OFFCURVE",
"445 26 CURVE SMOOTH",
"467 26 OFFCURVE",
"485 36 OFFCURVE",
"509 60 CURVE",
"513 57 LINE",
"493 16 OFFCURVE",
"454 -10 OFFCURVE",
"412 -10 CURVE SMOOTH",
"391 -10 OFFCURVE",
"370 -3 OFFCURVE",
"355 8 CURVE SMOOTH",
"333 24 OFFCURVE",
"324 47 OFFCURVE",
"324 89 CURVE SMOOTH",
"324 409 LINE",
"152 409 LINE",
"152 18 LINE",
"229 8 LINE",
"229 0 LINE",
"26 0 LINE",
"26 8 LINE",
"87 16 LINE",
"87 409 LINE",
"20 409 LINE"
);
}
);
};
layerId = UUID0;
paths = (
{
closed = 1;
nodes = (
"25 424 LINE",
"87 424 LINE",
"87 517 LINE SMOOTH",
"87 645 OFFCURVE",
"163 734 OFFCURVE",
"273 734 CURVE SMOOTH",
"342 734 OFFCURVE",
"395 696 OFFCURVE",
"395 647 CURVE SMOOTH",
"395 622 OFFCURVE",
"380 606 OFFCURVE",
"356 606 CURVE SMOOTH",
"334 606 OFFCURVE",
"321 620 OFFCURVE",
"315 650 CURVE SMOOTH",
"302 708 OFFCURVE",
"292 721 OFFCURVE",
"260 721 CURVE SMOOTH",
"193 721 OFFCURVE",
"152 649 OFFCURVE",
"152 530 CURVE SMOOTH",
"152 424 LINE",
"324 424 LINE",
"385 510 LINE",
"389 509 LINE",
"389 424 LINE",
"503 424 LINE",
"497 408 LINE",
"389 408 LINE",
"389 102 LINE SMOOTH",
"389 79 OFFCURVE",
"393 61 OFFCURVE",
"400 50 CURVE",
"408 34 OFFCURVE",
"424 26 OFFCURVE",
"445 26 CURVE SMOOTH",
"467 26 OFFCURVE",
"485 36 OFFCURVE",
"509 60 CURVE",
"513 57 LINE",
"493 16 OFFCURVE",
"454 -10 OFFCURVE",
"412 -10 CURVE SMOOTH",
"391 -10 OFFCURVE",
"370 -3 OFFCURVE",
"355 8 CURVE SMOOTH",
"333 24 OFFCURVE",
"324 47 OFFCURVE",
"324 89 CURVE SMOOTH",
"324 409 LINE",
"152 409 LINE",
"152 18 LINE",
"229 8 LINE",
"229 0 LINE",
"26 0 LINE",
"26 8 LINE",
"87 16 LINE",
"87 409 LINE",
"20 409 LINE"
);
}
);
width = 519;
}
);
leftKerningGroup = f;
rightKerningGroup = t;
},
